<?xml version="1.0" encoding="UTF-8" standalone="no"?><svg xmlns="http://www.w3.org/2000/svg" xmlns:xlink="http://www.w3.org/1999/xlink" contentScriptType="application/ecmascript" contentStyleType="text/css" height="514px" preserveAspectRatio="none" style="width:503px;height:514px;" version="1.1" viewBox="0 0 503 514" width="503px" zoomAndPan="magnify"><defs><filter height="300%" id="f8fjewwv9ghd9" width="300%" x="-1" y="-1"><feGaussianBlur result="blurOut" stdDeviation="2.0"/><feColorMatrix in="blurOut" result="blurOut2" type="matrix" values="0 0 0 0 0 0 0 0 0 0 0 0 0 0 0 0 0 0 .4 0"/><feOffset dx="4.0" dy="4.0" in="blurOut2" result="blurOut3"/><feBlend in="SourceGraphic" in2="blurOut3" mode="normal"/></filter></defs><g><rect fill="#FFFFFF" filter="url(#f8fjewwv9ghd9)" height="313.5938" style="stroke:#A80036;stroke-width:1.0;" width="10" x="25" y="98.2969"/><rect fill="#FFFFFF" filter="url(#f8fjewwv9ghd9)" height="29.1328" style="stroke:#A80036;stroke-width:1.0;" width="10" x="445" y="119.4297"/><rect fill="#FFFFFF" filter="url(#f8fjewwv9ghd9)" height="29.1328" style="stroke:#A80036;stroke-width:1.0;" width="10" x="445" y="177.6953"/><rect fill="#FFFFFF" filter="url(#f8fjewwv9ghd9)" height="59.3984" style="stroke:#A80036;stroke-width:1.0;" width="10" x="445" y="235.9609"/><rect fill="#FFFFFF" filter="url(#f8fjewwv9ghd9)" height="29.1328" style="stroke:#A80036;stroke-width:1.0;" width="10" x="445" y="324.4922"/><rect fill="#FFFFFF" filter="url(#f8fjewwv9ghd9)" height="29.1328" style="stroke:#A80036;stroke-width:1.0;" width="10" x="445" y="382.7578"/><line style="stroke:#A80036;stroke-width:1.0;stroke-dasharray:5.0,5.0;" x1="30" x2="30" y1="88.2969" y2="429.8906"/><line style="stroke:#A80036;stroke-width:1.0;stroke-dasharray:5.0,5.0;" x1="450" x2="450" y1="88.2969" y2="429.8906"/><text fill="#000000" font-family="sans-serif" font-size="14" lengthAdjust="spacing" textLength="44" x="5" y="84.9951">admin</text><ellipse cx="30" cy="15" fill="#FEFECE" filter="url(#f8fjewwv9ghd9)" rx="8" ry="8" style="stroke:#A80036;stroke-width:2.0;"/><path d="M30,23 L30,50 M17,31 L43,31 M30,50 L17,65 M30,50 L43,65 " fill="none" filter="url(#f8fjewwv9ghd9)" style="stroke:#A80036;stroke-width:2.0;"/><text fill="#000000" font-family="sans-serif" font-size="14" lengthAdjust="spacing" textLength="44" x="5" y="441.8857">admin</text><ellipse cx="30" cy="455.1875" fill="#FEFECE" filter="url(#f8fjewwv9ghd9)" rx="8" ry="8" style="stroke:#A80036;stroke-width:2.0;"/><path d="M30,463.1875 L30,490.1875 M17,471.1875 L43,471.1875 M30,490.1875 L17,505.1875 M30,490.1875 L43,505.1875 " fill="none" filter="url(#f8fjewwv9ghd9)" style="stroke:#A80036;stroke-width:2.0;"/><rect fill="#FEFECE" filter="url(#f8fjewwv9ghd9)" height="30.2969" style="stroke:#A80036;stroke-width:1.5;" width="82" x="407" y="53"/><text fill="#000000" font-family="sans-serif" font-size="14" lengthAdjust="spacing" textLength="68" x="414" y="72.9951">:Platform</text><rect fill="#FEFECE" filter="url(#f8fjewwv9ghd9)" height="30.2969" style="stroke:#A80036;stroke-width:1.5;" width="82" x="407" y="428.8906"/><text fill="#000000" font-family="sans-serif" font-size="14" lengthAdjust="spacing" textLength="68" x="414" y="448.8857">:Platform</text><rect fill="#FFFFFF" filter="url(#f8fjewwv9ghd9)" height="313.5938" style="stroke:#A80036;stroke-width:1.0;" width="10" x="25" y="98.2969"/><rect fill="#FFFFFF" filter="url(#f8fjewwv9ghd9)" height="29.1328" style="stroke:#A80036;stroke-width:1.0;" width="10" x="445" y="119.4297"/><rect fill="#FFFFFF" filter="url(#f8fjewwv9ghd9)" height="29.1328" style="stroke:#A80036;stroke-width:1.0;" width="10" x="445" y="177.6953"/><rect fill="#FFFFFF" filter="url(#f8fjewwv9ghd9)" height="59.3984" style="stroke:#A80036;stroke-width:1.0;" width="10" x="445" y="235.9609"/><rect fill="#FFFFFF" filter="url(#f8fjewwv9ghd9)" height="29.1328" style="stroke:#A80036;stroke-width:1.0;" width="10" x="445" y="324.4922"/><rect fill="#FFFFFF" filter="url(#f8fjewwv9ghd9)" height="29.1328" style="stroke:#A80036;stroke-width:1.0;" width="10" x="445" y="382.7578"/><polygon fill="#A80036" points="433,115.4297,443,119.4297,433,123.4297,437,119.4297" style="stroke:#A80036;stroke-width:1.0;"/><line style="stroke:#A80036;stroke-width:1.0;" x1="35" x2="439" y1="119.4297" y2="119.4297"/><text fill="#000000" font-family="sans-serif" font-size="13" font-weight="bold" lengthAdjust="spacing" textLength="9" x="42" y="114.3638">1</text><text fill="#000000" font-family="sans-serif" font-size="13" lengthAdjust="spacing" textLength="258" x="55" y="114.3638">asks to be authenticated in the Platform</text><polygon fill="#A80036" points="46,144.5625,36,148.5625,46,152.5625,42,148.5625" style="stroke:#A80036;stroke-width:1.0;"/><line style="stroke:#A80036;stroke-width:1.0;stroke-dasharray:2.0,2.0;" x1="40" x2="449" y1="148.5625" y2="148.5625"/><text fill="#000000" font-family="sans-serif" font-size="13" font-weight="bold" lengthAdjust="spacing" textLength="9" x="52" y="143.4966">2</text><text fill="#000000" font-family="sans-serif" font-size="13" lengthAdjust="spacing" textLength="196" x="65" y="143.4966">confirms admin authentication</text><polygon fill="#A80036" points="433,173.6953,443,177.6953,433,181.6953,437,177.6953" style="stroke:#A80036;stroke-width:1.0;"/><line style="stroke:#A80036;stroke-width:1.0;" x1="35" x2="439" y1="177.6953" y2="177.6953"/><text fill="#000000" font-family="sans-serif" font-size="13" font-weight="bold" lengthAdjust="spacing" textLength="8" x="42" y="172.6294">3</text><text fill="#000000" font-family="sans-serif" font-size="13" lengthAdjust="spacing" textLength="103" x="54" y="172.6294">access Platform</text><polygon fill="#A80036" points="46,202.8281,36,206.8281,46,210.8281,42,206.8281" style="stroke:#A80036;stroke-width:1.0;"/><line style="stroke:#A80036;stroke-width:1.0;stroke-dasharray:2.0,2.0;" x1="40" x2="449" y1="206.8281" y2="206.8281"/><text fill="#000000" font-family="sans-serif" font-size="13" font-weight="bold" lengthAdjust="spacing" textLength="9" x="52" y="201.7622">4</text><text fill="#000000" font-family="sans-serif" font-size="13" lengthAdjust="spacing" textLength="373" x="65" y="201.7622">asks the admin if he wants to Create, Read, Edit or Delete</text><polygon fill="#A80036" points="433,231.9609,443,235.9609,433,239.9609,437,235.9609" style="stroke:#A80036;stroke-width:1.0;"/><line style="stroke:#A80036;stroke-width:1.0;" x1="35" x2="439" y1="235.9609" y2="235.9609"/><text fill="#000000" font-family="sans-serif" font-size="13" font-weight="bold" lengthAdjust="spacing" textLength="9" x="42" y="230.895">5</text><text fill="#000000" font-family="sans-serif" font-size="13" lengthAdjust="spacing" textLength="92" x="55" y="230.895">choses Create</text><polygon fill="#A80036" points="46,291.3594,36,295.3594,46,299.3594,42,295.3594" style="stroke:#A80036;stroke-width:1.0;"/><line style="stroke:#A80036;stroke-width:1.0;stroke-dasharray:2.0,2.0;" x1="40" x2="449" y1="295.3594" y2="295.3594"/><text fill="#000000" font-family="sans-serif" font-size="13" font-weight="bold" lengthAdjust="spacing" textLength="9" x="52" y="275.1606">6</text><text fill="#000000" font-family="sans-serif" font-size="13" lengthAdjust="spacing" textLength="211" x="65" y="260.0278">asks for Parking Space attributes</text><text fill="#000000" font-family="sans-serif" font-size="13" lengthAdjust="spacing" textLength="187" x="65" y="275.1606">(ID, floor, price, parkingLotID)</text><text fill="#000000" font-family="sans-serif" font-size="13" lengthAdjust="spacing" textLength="0" x="69" y="290.2935"/><polygon fill="#A80036" points="433,320.4922,443,324.4922,433,328.4922,437,324.4922" style="stroke:#A80036;stroke-width:1.0;"/><line style="stroke:#A80036;stroke-width:1.0;" x1="35" x2="439" y1="324.4922" y2="324.4922"/><text fill="#000000" font-family="sans-serif" font-size="13" font-weight="bold" lengthAdjust="spacing" textLength="9" x="42" y="319.4263">7</text><text fill="#000000" font-family="sans-serif" font-size="13" lengthAdjust="spacing" textLength="138" x="55" y="319.4263">inserts the asked info</text><polygon fill="#A80036" points="46,349.625,36,353.625,46,357.625,42,353.625" style="stroke:#A80036;stroke-width:1.0;"/><line style="stroke:#A80036;stroke-width:1.0;stroke-dasharray:2.0,2.0;" x1="40" x2="449" y1="353.625" y2="353.625"/><text fill="#000000" font-family="sans-serif" font-size="13" font-weight="bold" lengthAdjust="spacing" textLength="9" x="52" y="348.5591">8</text><text fill="#000000" font-family="sans-serif" font-size="13" lengthAdjust="spacing" textLength="262" x="65" y="348.5591">shows the info and asks for confirmation</text><polygon fill="#A80036" points="433,378.7578,443,382.7578,433,386.7578,437,382.7578" style="stroke:#A80036;stroke-width:1.0;"/><line style="stroke:#A80036;stroke-width:1.0;" x1="35" x2="439" y1="382.7578" y2="382.7578"/><text fill="#000000" font-family="sans-serif" font-size="13" font-weight="bold" lengthAdjust="spacing" textLength="9" x="42" y="377.6919">9</text><text fill="#000000" font-family="sans-serif" font-size="13" lengthAdjust="spacing" textLength="56" x="55" y="377.6919">confirms</text><polygon fill="#A80036" points="41,407.8906,31,411.8906,41,415.8906,37,411.8906" style="stroke:#A80036;stroke-width:1.0;"/><line style="stroke:#A80036;stroke-width:1.0;stroke-dasharray:2.0,2.0;" x1="35" x2="449" y1="411.8906" y2="411.8906"/><text fill="#000000" font-family="sans-serif" font-size="13" font-weight="bold" lengthAdjust="spacing" textLength="19" x="47" y="406.8247">10</text><text fill="#000000" font-family="sans-serif" font-size="13" lengthAdjust="spacing" textLength="132" x="70" y="406.8247">successful operation</text><!--MD5=[f58a6abd3b8507d54d46d916b86e21ee]
@startuml
autonumber
actor "admin" as ADMIN

activate ADMIN
ADMIN -> ":Platform" : asks to be authenticated in the Platform
activate ":Platform"
":Platform" - -> ADMIN : confirms admin authentication
deactivate ":Platform"

ADMIN -> ":Platform" : access Platform
activate ":Platform"

":Platform" - -> ADMIN : asks the admin if he wants to Create, Read, Edit or Delete
deactivate ":Platform"

ADMIN -> ":Platform" : choses Create
activate ":Platform"
":Platform" - -> ADMIN : asks for Parking Space attributes \n(ID, floor, price, parkingLotID)\n
deactivate ":Platform"

ADMIN -> ":Platform" : inserts the asked info
activate ":Platform"
":Platform" - -> ADMIN : shows the info and asks for confirmation
deactivate ":Platform"

ADMIN -> ":Platform" : confirms
activate ":Platform"
":Platform" - -> ADMIN : successful operation
deactivate ":Platform"

deactivate ADMIN
@enduml

PlantUML version 1.2021.01beta3(Unknown compile time)
(GPL source distribution)
Java Runtime: Java(TM) SE Runtime Environment
JVM: Java HotSpot(TM) 64-Bit Server VM
Default Encoding: UTF-8
Language: en
Country: US
--></g></svg>