<?xml version="1.0" encoding="UTF-8" standalone="no"?><svg xmlns="http://www.w3.org/2000/svg" xmlns:xlink="http://www.w3.org/1999/xlink" contentScriptType="application/ecmascript" contentStyleType="text/css" height="514px" preserveAspectRatio="none" style="width:519px;height:514px;" version="1.1" viewBox="0 0 519 514" width="519px" zoomAndPan="magnify"><defs><filter height="300%" id="f1tu8zb27oqaeg" width="300%" x="-1" y="-1"><feGaussianBlur result="blurOut" stdDeviation="2.0"/><feColorMatrix in="blurOut" result="blurOut2" type="matrix" values="0 0 0 0 0 0 0 0 0 0 0 0 0 0 0 0 0 0 .4 0"/><feOffset dx="4.0" dy="4.0" in="blurOut2" result="blurOut3"/><feBlend in="SourceGraphic" in2="blurOut3" mode="normal"/></filter></defs><g><rect fill="#FFFFFF" filter="url(#f1tu8zb27oqaeg)" height="313.5938" style="stroke:#A80036;stroke-width:1.0;" width="10" x="41" y="98.2969"/><rect fill="#FFFFFF" filter="url(#f1tu8zb27oqaeg)" height="29.1328" style="stroke:#A80036;stroke-width:1.0;" width="10" x="461" y="119.4297"/><rect fill="#FFFFFF" filter="url(#f1tu8zb27oqaeg)" height="29.1328" style="stroke:#A80036;stroke-width:1.0;" width="10" x="461" y="177.6953"/><rect fill="#FFFFFF" filter="url(#f1tu8zb27oqaeg)" height="59.3984" style="stroke:#A80036;stroke-width:1.0;" width="10" x="461" y="235.9609"/><rect fill="#FFFFFF" filter="url(#f1tu8zb27oqaeg)" height="29.1328" style="stroke:#A80036;stroke-width:1.0;" width="10" x="461" y="324.4922"/><rect fill="#FFFFFF" filter="url(#f1tu8zb27oqaeg)" height="29.1328" style="stroke:#A80036;stroke-width:1.0;" width="10" x="461" y="382.7578"/><line style="stroke:#A80036;stroke-width:1.0;stroke-dasharray:5.0,5.0;" x1="46" x2="46" y1="88.2969" y2="429.8906"/><line style="stroke:#A80036;stroke-width:1.0;stroke-dasharray:5.0,5.0;" x1="466" x2="466" y1="88.2969" y2="429.8906"/><text fill="#000000" font-family="sans-serif" font-size="14" lengthAdjust="spacing" textLength="76" x="5" y="84.9951">httpClient</text><ellipse cx="46" cy="15" fill="#FEFECE" filter="url(#f1tu8zb27oqaeg)" rx="8" ry="8" style="stroke:#A80036;stroke-width:2.0;"/><path d="M46,23 L46,50 M33,31 L59,31 M46,50 L33,65 M46,50 L59,65 " fill="none" filter="url(#f1tu8zb27oqaeg)" style="stroke:#A80036;stroke-width:2.0;"/><text fill="#000000" font-family="sans-serif" font-size="14" lengthAdjust="spacing" textLength="76" x="5" y="441.8857">httpClient</text><ellipse cx="46" cy="455.1875" fill="#FEFECE" filter="url(#f1tu8zb27oqaeg)" rx="8" ry="8" style="stroke:#A80036;stroke-width:2.0;"/><path d="M46,463.1875 L46,490.1875 M33,471.1875 L59,471.1875 M46,490.1875 L33,505.1875 M46,490.1875 L59,505.1875 " fill="none" filter="url(#f1tu8zb27oqaeg)" style="stroke:#A80036;stroke-width:2.0;"/><rect fill="#FEFECE" filter="url(#f1tu8zb27oqaeg)" height="30.2969" style="stroke:#A80036;stroke-width:1.5;" width="82" x="423" y="53"/><text fill="#000000" font-family="sans-serif" font-size="14" lengthAdjust="spacing" textLength="68" x="430" y="72.9951">:Platform</text><rect fill="#FEFECE" filter="url(#f1tu8zb27oqaeg)" height="30.2969" style="stroke:#A80036;stroke-width:1.5;" width="82" x="423" y="428.8906"/><text fill="#000000" font-family="sans-serif" font-size="14" lengthAdjust="spacing" textLength="68" x="430" y="448.8857">:Platform</text><rect fill="#FFFFFF" filter="url(#f1tu8zb27oqaeg)" height="313.5938" style="stroke:#A80036;stroke-width:1.0;" width="10" x="41" y="98.2969"/><rect fill="#FFFFFF" filter="url(#f1tu8zb27oqaeg)" height="29.1328" style="stroke:#A80036;stroke-width:1.0;" width="10" x="461" y="119.4297"/><rect fill="#FFFFFF" filter="url(#f1tu8zb27oqaeg)" height="29.1328" style="stroke:#A80036;stroke-width:1.0;" width="10" x="461" y="177.6953"/><rect fill="#FFFFFF" filter="url(#f1tu8zb27oqaeg)" height="59.3984" style="stroke:#A80036;stroke-width:1.0;" width="10" x="461" y="235.9609"/><rect fill="#FFFFFF" filter="url(#f1tu8zb27oqaeg)" height="29.1328" style="stroke:#A80036;stroke-width:1.0;" width="10" x="461" y="324.4922"/><rect fill="#FFFFFF" filter="url(#f1tu8zb27oqaeg)" height="29.1328" style="stroke:#A80036;stroke-width:1.0;" width="10" x="461" y="382.7578"/><polygon fill="#A80036" points="449,115.4297,459,119.4297,449,123.4297,453,119.4297" style="stroke:#A80036;stroke-width:1.0;"/><line style="stroke:#A80036;stroke-width:1.0;" x1="51" x2="455" y1="119.4297" y2="119.4297"/><text fill="#000000" font-family="sans-serif" font-size="13" font-weight="bold" lengthAdjust="spacing" textLength="9" x="58" y="114.3638">1</text><text fill="#000000" font-family="sans-serif" font-size="13" lengthAdjust="spacing" textLength="258" x="71" y="114.3638">asks to be authenticated in the Platform</text><polygon fill="#A80036" points="62,144.5625,52,148.5625,62,152.5625,58,148.5625" style="stroke:#A80036;stroke-width:1.0;"/><line style="stroke:#A80036;stroke-width:1.0;stroke-dasharray:2.0,2.0;" x1="56" x2="465" y1="148.5625" y2="148.5625"/><text fill="#000000" font-family="sans-serif" font-size="13" font-weight="bold" lengthAdjust="spacing" textLength="9" x="68" y="143.4966">2</text><text fill="#000000" font-family="sans-serif" font-size="13" lengthAdjust="spacing" textLength="218" x="81" y="143.4966">confirms httpClient authentication</text><polygon fill="#A80036" points="449,173.6953,459,177.6953,449,181.6953,453,177.6953" style="stroke:#A80036;stroke-width:1.0;"/><line style="stroke:#A80036;stroke-width:1.0;" x1="51" x2="455" y1="177.6953" y2="177.6953"/><text fill="#000000" font-family="sans-serif" font-size="13" font-weight="bold" lengthAdjust="spacing" textLength="8" x="58" y="172.6294">3</text><text fill="#000000" font-family="sans-serif" font-size="13" lengthAdjust="spacing" textLength="103" x="70" y="172.6294">access Platform</text><polygon fill="#A80036" points="62,202.8281,52,206.8281,62,210.8281,58,206.8281" style="stroke:#A80036;stroke-width:1.0;"/><line style="stroke:#A80036;stroke-width:1.0;stroke-dasharray:2.0,2.0;" x1="56" x2="465" y1="206.8281" y2="206.8281"/><text fill="#000000" font-family="sans-serif" font-size="13" font-weight="bold" lengthAdjust="spacing" textLength="9" x="68" y="201.7622">4</text><text fill="#000000" font-family="sans-serif" font-size="13" lengthAdjust="spacing" textLength="373" x="81" y="201.7622">asks the admin if he wants to Create, Read, Edit or Delete</text><polygon fill="#A80036" points="449,231.9609,459,235.9609,449,239.9609,453,235.9609" style="stroke:#A80036;stroke-width:1.0;"/><line style="stroke:#A80036;stroke-width:1.0;" x1="51" x2="455" y1="235.9609" y2="235.9609"/><text fill="#000000" font-family="sans-serif" font-size="13" font-weight="bold" lengthAdjust="spacing" textLength="9" x="58" y="230.895">5</text><text fill="#000000" font-family="sans-serif" font-size="13" lengthAdjust="spacing" textLength="92" x="71" y="230.895">choses Create</text><polygon fill="#A80036" points="62,291.3594,52,295.3594,62,299.3594,58,295.3594" style="stroke:#A80036;stroke-width:1.0;"/><line style="stroke:#A80036;stroke-width:1.0;stroke-dasharray:2.0,2.0;" x1="56" x2="465" y1="295.3594" y2="295.3594"/><text fill="#000000" font-family="sans-serif" font-size="13" font-weight="bold" lengthAdjust="spacing" textLength="9" x="68" y="275.1606">6</text><text fill="#000000" font-family="sans-serif" font-size="13" lengthAdjust="spacing" textLength="211" x="81" y="260.0278">asks for Parking Space attributes</text><text fill="#000000" font-family="sans-serif" font-size="13" lengthAdjust="spacing" textLength="364" x="81" y="275.1606">(designacaoUnica, andar, preco, parqueEstacionamento)</text><text fill="#000000" font-family="sans-serif" font-size="13" lengthAdjust="spacing" textLength="0" x="85" y="290.2935"/><polygon fill="#A80036" points="449,320.4922,459,324.4922,449,328.4922,453,324.4922" style="stroke:#A80036;stroke-width:1.0;"/><line style="stroke:#A80036;stroke-width:1.0;" x1="51" x2="455" y1="324.4922" y2="324.4922"/><text fill="#000000" font-family="sans-serif" font-size="13" font-weight="bold" lengthAdjust="spacing" textLength="9" x="58" y="319.4263">7</text><text fill="#000000" font-family="sans-serif" font-size="13" lengthAdjust="spacing" textLength="138" x="71" y="319.4263">inserts the asked info</text><polygon fill="#A80036" points="62,349.625,52,353.625,62,357.625,58,353.625" style="stroke:#A80036;stroke-width:1.0;"/><line style="stroke:#A80036;stroke-width:1.0;stroke-dasharray:2.0,2.0;" x1="56" x2="465" y1="353.625" y2="353.625"/><text fill="#000000" font-family="sans-serif" font-size="13" font-weight="bold" lengthAdjust="spacing" textLength="9" x="68" y="348.5591">8</text><text fill="#000000" font-family="sans-serif" font-size="13" lengthAdjust="spacing" textLength="262" x="81" y="348.5591">shows the info and asks for confirmation</text><polygon fill="#A80036" points="449,378.7578,459,382.7578,449,386.7578,453,382.7578" style="stroke:#A80036;stroke-width:1.0;"/><line style="stroke:#A80036;stroke-width:1.0;" x1="51" x2="455" y1="382.7578" y2="382.7578"/><text fill="#000000" font-family="sans-serif" font-size="13" font-weight="bold" lengthAdjust="spacing" textLength="9" x="58" y="377.6919">9</text><text fill="#000000" font-family="sans-serif" font-size="13" lengthAdjust="spacing" textLength="56" x="71" y="377.6919">confirms</text><polygon fill="#A80036" points="57,407.8906,47,411.8906,57,415.8906,53,411.8906" style="stroke:#A80036;stroke-width:1.0;"/><line style="stroke:#A80036;stroke-width:1.0;stroke-dasharray:2.0,2.0;" x1="51" x2="465" y1="411.8906" y2="411.8906"/><text fill="#000000" font-family="sans-serif" font-size="13" font-weight="bold" lengthAdjust="spacing" textLength="19" x="63" y="406.8247">10</text><text fill="#000000" font-family="sans-serif" font-size="13" lengthAdjust="spacing" textLength="132" x="86" y="406.8247">successful operation</text><!--MD5=[1f16a78566be00ebbc1f71b218be1f4d]
@startuml
autonumber
actor "httpClient" as CLIENT

activate CLIENT
CLIENT -> ":Platform" : asks to be authenticated in the Platform
activate ":Platform"
":Platform" - -> CLIENT : confirms httpClient authentication
deactivate ":Platform"

CLIENT -> ":Platform" : access Platform
activate ":Platform"

":Platform" - -> CLIENT : asks the admin if he wants to Create, Read, Edit or Delete 
deactivate ":Platform"

CLIENT -> ":Platform" : choses Create
activate ":Platform"
":Platform" - -> CLIENT : asks for Parking Space attributes \n(designacaoUnica, andar, preco, parqueEstacionamento)\n 
deactivate ":Platform"

CLIENT -> ":Platform" : inserts the asked info
activate ":Platform"
":Platform" - -> CLIENT : shows the info and asks for confirmation
deactivate ":Platform"

CLIENT -> ":Platform" : confirms
activate ":Platform"
":Platform" - -> CLIENT : successful operation
deactivate ":Platform"

deactivate CLIENT
@enduml

PlantUML version 1.2021.01beta3(Unknown compile time)
(GPL source distribution)
Java Runtime: Java(TM) SE Runtime Environment
JVM: Java HotSpot(TM) 64-Bit Server VM
Default Encoding: UTF-8
Language: en
Country: US
--></g></svg>