<?xml version="1.0" encoding="UTF-8" standalone="no"?><svg xmlns="http://www.w3.org/2000/svg" xmlns:xlink="http://www.w3.org/1999/xlink" contentScriptType="application/ecmascript" contentStyleType="text/css" height="455px" preserveAspectRatio="none" style="width:535px;height:455px;" version="1.1" viewBox="0 0 535 455" width="535px" zoomAndPan="magnify"><defs><filter height="300%" id="f1peos6nd8hlbm" width="300%" x="-1" y="-1"><feGaussianBlur result="blurOut" stdDeviation="2.0"/><feColorMatrix in="blurOut" result="blurOut2" type="matrix" values="0 0 0 0 0 0 0 0 0 0 0 0 0 0 0 0 0 0 .4 0"/><feOffset dx="4.0" dy="4.0" in="blurOut2" result="blurOut3"/><feBlend in="SourceGraphic" in2="blurOut3" mode="normal"/></filter></defs><g><rect fill="#FFFFFF" filter="url(#f1peos6nd8hlbm)" height="255.3281" style="stroke:#A80036;stroke-width:1.0;" width="10" x="53" y="98.2969"/><rect fill="#FFFFFF" filter="url(#f1peos6nd8hlbm)" height="29.1328" style="stroke:#A80036;stroke-width:1.0;" width="10" x="473" y="119.4297"/><rect fill="#FFFFFF" filter="url(#f1peos6nd8hlbm)" height="59.3984" style="stroke:#A80036;stroke-width:1.0;" width="10" x="473" y="177.6953"/><rect fill="#FFFFFF" filter="url(#f1peos6nd8hlbm)" height="29.1328" style="stroke:#A80036;stroke-width:1.0;" width="10" x="473" y="266.2266"/><rect fill="#FFFFFF" filter="url(#f1peos6nd8hlbm)" height="29.1328" style="stroke:#A80036;stroke-width:1.0;" width="10" x="473" y="324.4922"/><line style="stroke:#A80036;stroke-width:1.0;stroke-dasharray:5.0,5.0;" x1="58" x2="58" y1="88.2969" y2="371.625"/><line style="stroke:#A80036;stroke-width:1.0;stroke-dasharray:5.0,5.0;" x1="478" x2="478" y1="88.2969" y2="371.625"/><text fill="#000000" font-family="sans-serif" font-size="14" lengthAdjust="spacing" textLength="100" x="5" y="84.9951">Administrator</text><ellipse cx="58" cy="15" fill="#FEFECE" filter="url(#f1peos6nd8hlbm)" rx="8" ry="8" style="stroke:#A80036;stroke-width:2.0;"/><path d="M58,23 L58,50 M45,31 L71,31 M58,50 L45,65 M58,50 L71,65 " fill="none" filter="url(#f1peos6nd8hlbm)" style="stroke:#A80036;stroke-width:2.0;"/><text fill="#000000" font-family="sans-serif" font-size="14" lengthAdjust="spacing" textLength="100" x="5" y="383.6201">Administrator</text><ellipse cx="58" cy="396.9219" fill="#FEFECE" filter="url(#f1peos6nd8hlbm)" rx="8" ry="8" style="stroke:#A80036;stroke-width:2.0;"/><path d="M58,404.9219 L58,431.9219 M45,412.9219 L71,412.9219 M58,431.9219 L45,446.9219 M58,431.9219 L71,446.9219 " fill="none" filter="url(#f1peos6nd8hlbm)" style="stroke:#A80036;stroke-width:2.0;"/><rect fill="#FEFECE" filter="url(#f1peos6nd8hlbm)" height="30.2969" style="stroke:#A80036;stroke-width:1.5;" width="90" x="431" y="53"/><text fill="#000000" font-family="sans-serif" font-size="14" lengthAdjust="spacing" textLength="76" x="438" y="72.9951">:Plataform</text><rect fill="#FEFECE" filter="url(#f1peos6nd8hlbm)" height="30.2969" style="stroke:#A80036;stroke-width:1.5;" width="90" x="431" y="370.625"/><text fill="#000000" font-family="sans-serif" font-size="14" lengthAdjust="spacing" textLength="76" x="438" y="390.6201">:Plataform</text><rect fill="#FFFFFF" filter="url(#f1peos6nd8hlbm)" height="255.3281" style="stroke:#A80036;stroke-width:1.0;" width="10" x="53" y="98.2969"/><rect fill="#FFFFFF" filter="url(#f1peos6nd8hlbm)" height="29.1328" style="stroke:#A80036;stroke-width:1.0;" width="10" x="473" y="119.4297"/><rect fill="#FFFFFF" filter="url(#f1peos6nd8hlbm)" height="59.3984" style="stroke:#A80036;stroke-width:1.0;" width="10" x="473" y="177.6953"/><rect fill="#FFFFFF" filter="url(#f1peos6nd8hlbm)" height="29.1328" style="stroke:#A80036;stroke-width:1.0;" width="10" x="473" y="266.2266"/><rect fill="#FFFFFF" filter="url(#f1peos6nd8hlbm)" height="29.1328" style="stroke:#A80036;stroke-width:1.0;" width="10" x="473" y="324.4922"/><polygon fill="#A80036" points="461,115.4297,471,119.4297,461,123.4297,465,119.4297" style="stroke:#A80036;stroke-width:1.0;"/><line style="stroke:#A80036;stroke-width:1.0;" x1="63" x2="467" y1="119.4297" y2="119.4297"/><text fill="#000000" font-family="sans-serif" font-size="13" font-weight="bold" lengthAdjust="spacing" textLength="9" x="70" y="114.3638">1</text><text fill="#000000" font-family="sans-serif" font-size="13" lengthAdjust="spacing" textLength="103" x="83" y="114.3638">access Platform</text><polygon fill="#A80036" points="74,144.5625,64,148.5625,74,152.5625,70,148.5625" style="stroke:#A80036;stroke-width:1.0;"/><line style="stroke:#A80036;stroke-width:1.0;stroke-dasharray:2.0,2.0;" x1="68" x2="477" y1="148.5625" y2="148.5625"/><text fill="#000000" font-family="sans-serif" font-size="13" font-weight="bold" lengthAdjust="spacing" textLength="9" x="80" y="143.4966">2</text><text fill="#000000" font-family="sans-serif" font-size="13" lengthAdjust="spacing" textLength="373" x="93" y="143.4966">asks the admin if he wants to Create, Read, Edit or Delete</text><polygon fill="#A80036" points="461,173.6953,471,177.6953,461,181.6953,465,177.6953" style="stroke:#A80036;stroke-width:1.0;"/><line style="stroke:#A80036;stroke-width:1.0;" x1="63" x2="467" y1="177.6953" y2="177.6953"/><text fill="#000000" font-family="sans-serif" font-size="13" font-weight="bold" lengthAdjust="spacing" textLength="8" x="70" y="172.6294">3</text><text fill="#000000" font-family="sans-serif" font-size="13" lengthAdjust="spacing" textLength="92" x="82" y="172.6294">choses Create</text><polygon fill="#A80036" points="74,233.0938,64,237.0938,74,241.0938,70,237.0938" style="stroke:#A80036;stroke-width:1.0;"/><line style="stroke:#A80036;stroke-width:1.0;stroke-dasharray:2.0,2.0;" x1="68" x2="477" y1="237.0938" y2="237.0938"/><text fill="#000000" font-family="sans-serif" font-size="13" font-weight="bold" lengthAdjust="spacing" textLength="9" x="80" y="216.895">4</text><text fill="#000000" font-family="sans-serif" font-size="13" lengthAdjust="spacing" textLength="211" x="93" y="201.7622">asks for Parking Space attributes</text><text fill="#000000" font-family="sans-serif" font-size="13" lengthAdjust="spacing" textLength="364" x="93" y="216.895">(designacaoUnica, andar, preco, parqueEstacionamento)</text><text fill="#000000" font-family="sans-serif" font-size="13" lengthAdjust="spacing" textLength="0" x="97" y="232.0278"/><polygon fill="#A80036" points="461,262.2266,471,266.2266,461,270.2266,465,266.2266" style="stroke:#A80036;stroke-width:1.0;"/><line style="stroke:#A80036;stroke-width:1.0;" x1="63" x2="467" y1="266.2266" y2="266.2266"/><text fill="#000000" font-family="sans-serif" font-size="13" font-weight="bold" lengthAdjust="spacing" textLength="9" x="70" y="261.1606">5</text><text fill="#000000" font-family="sans-serif" font-size="13" lengthAdjust="spacing" textLength="138" x="83" y="261.1606">inserts the asked info</text><polygon fill="#A80036" points="74,291.3594,64,295.3594,74,299.3594,70,295.3594" style="stroke:#A80036;stroke-width:1.0;"/><line style="stroke:#A80036;stroke-width:1.0;stroke-dasharray:2.0,2.0;" x1="68" x2="477" y1="295.3594" y2="295.3594"/><text fill="#000000" font-family="sans-serif" font-size="13" font-weight="bold" lengthAdjust="spacing" textLength="9" x="80" y="290.2935">6</text><text fill="#000000" font-family="sans-serif" font-size="13" lengthAdjust="spacing" textLength="262" x="93" y="290.2935">shows the info and asks for confirmation</text><polygon fill="#A80036" points="461,320.4922,471,324.4922,461,328.4922,465,324.4922" style="stroke:#A80036;stroke-width:1.0;"/><line style="stroke:#A80036;stroke-width:1.0;" x1="63" x2="467" y1="324.4922" y2="324.4922"/><text fill="#000000" font-family="sans-serif" font-size="13" font-weight="bold" lengthAdjust="spacing" textLength="9" x="70" y="319.4263">7</text><text fill="#000000" font-family="sans-serif" font-size="13" lengthAdjust="spacing" textLength="56" x="83" y="319.4263">confirms</text><polygon fill="#A80036" points="69,349.625,59,353.625,69,357.625,65,353.625" style="stroke:#A80036;stroke-width:1.0;"/><line style="stroke:#A80036;stroke-width:1.0;stroke-dasharray:2.0,2.0;" x1="63" x2="477" y1="353.625" y2="353.625"/><text fill="#000000" font-family="sans-serif" font-size="13" font-weight="bold" lengthAdjust="spacing" textLength="9" x="75" y="348.5591">8</text><text fill="#000000" font-family="sans-serif" font-size="13" lengthAdjust="spacing" textLength="132" x="88" y="348.5591">successful operation</text><!--MD5=[32e153de7ce21ae348deef03a0c31513]
@startuml
autonumber
actor "Administrator" as ADMIN

activate ADMIN
ADMIN -> ":Plataform" : access Platform
activate ":Plataform"
":Plataform" - -> ADMIN : asks the admin if he wants to Create, Read, Edit or Delete 
deactivate ":Plataform"

ADMIN -> ":Plataform" : choses Create
activate ":Plataform"
":Plataform" - -> ADMIN : asks for Parking Space attributes \n(designacaoUnica, andar, preco, parqueEstacionamento)\n 
deactivate ":Plataform"

ADMIN -> ":Plataform" : inserts the asked info
activate ":Plataform"
":Plataform" - -> ADMIN : shows the info and asks for confirmation
deactivate ":Plataform"

ADMIN -> ":Plataform" : confirms
activate ":Plataform"
":Plataform" - -> ADMIN : successful operation
deactivate ":Plataform"

deactivate ADMIN
@enduml

PlantUML version 1.2021.01beta3(Unknown compile time)
(GPL source distribution)
Java Runtime: Java(TM) SE Runtime Environment
JVM: Java HotSpot(TM) 64-Bit Server VM
Default Encoding: UTF-8
Language: en
Country: US
--></g></svg>