<?xml version="1.0" encoding="UTF-8" standalone="no"?><svg xmlns="http://www.w3.org/2000/svg" xmlns:xlink="http://www.w3.org/1999/xlink" contentScriptType="application/ecmascript" contentStyleType="text/css" height="367px" preserveAspectRatio="none" style="width:537px;height:367px;" version="1.1" viewBox="0 0 537 367" width="537px" zoomAndPan="magnify"><defs><filter height="300%" id="f1witphzltx0go" width="300%" x="-1" y="-1"><feGaussianBlur result="blurOut" stdDeviation="2.0"/><feColorMatrix in="blurOut" result="blurOut2" type="matrix" values="0 0 0 0 0 0 0 0 0 0 0 0 0 0 0 0 0 0 .4 0"/><feOffset dx="4.0" dy="4.0" in="blurOut2" result="blurOut3"/><feBlend in="SourceGraphic" in2="blurOut3" mode="normal"/></filter></defs><g><rect fill="#FFFFFF" filter="url(#f1witphzltx0go)" height="166.7969" style="stroke:#A80036;stroke-width:1.0;" width="10" x="34.5" y="98.2969"/><rect fill="#FFFFFF" filter="url(#f1witphzltx0go)" height="29.1328" style="stroke:#A80036;stroke-width:1.0;" width="10" x="479.5" y="119.4297"/><rect fill="#FFFFFF" filter="url(#f1witphzltx0go)" height="29.1328" style="stroke:#A80036;stroke-width:1.0;" width="10" x="479.5" y="177.6953"/><rect fill="#FFFFFF" filter="url(#f1witphzltx0go)" height="29.1328" style="stroke:#A80036;stroke-width:1.0;" width="10" x="479.5" y="235.9609"/><line style="stroke:#A80036;stroke-width:1.0;stroke-dasharray:5.0,5.0;" x1="39" x2="39" y1="88.2969" y2="283.0938"/><line style="stroke:#A80036;stroke-width:1.0;stroke-dasharray:5.0,5.0;" x1="484.5" x2="484.5" y1="88.2969" y2="283.0938"/><text fill="#000000" font-family="sans-serif" font-size="14" lengthAdjust="spacing" textLength="63" x="5" y="84.9951">non-user</text><ellipse cx="39.5" cy="15" fill="#FEFECE" filter="url(#f1witphzltx0go)" rx="8" ry="8" style="stroke:#A80036;stroke-width:2.0;"/><path d="M39.5,23 L39.5,50 M26.5,31 L52.5,31 M39.5,50 L26.5,65 M39.5,50 L52.5,65 " fill="none" filter="url(#f1witphzltx0go)" style="stroke:#A80036;stroke-width:2.0;"/><text fill="#000000" font-family="sans-serif" font-size="14" lengthAdjust="spacing" textLength="63" x="5" y="295.0889">non-user</text><ellipse cx="39.5" cy="308.3906" fill="#FEFECE" filter="url(#f1witphzltx0go)" rx="8" ry="8" style="stroke:#A80036;stroke-width:2.0;"/><path d="M39.5,316.3906 L39.5,343.3906 M26.5,324.3906 L52.5,324.3906 M39.5,343.3906 L26.5,358.3906 M39.5,343.3906 L52.5,358.3906 " fill="none" filter="url(#f1witphzltx0go)" style="stroke:#A80036;stroke-width:2.0;"/><rect fill="#FEFECE" filter="url(#f1witphzltx0go)" height="30.2969" style="stroke:#A80036;stroke-width:1.5;" width="82" x="441.5" y="53"/><text fill="#000000" font-family="sans-serif" font-size="14" lengthAdjust="spacing" textLength="68" x="448.5" y="72.9951">:Platform</text><rect fill="#FEFECE" filter="url(#f1witphzltx0go)" height="30.2969" style="stroke:#A80036;stroke-width:1.5;" width="82" x="441.5" y="282.0938"/><text fill="#000000" font-family="sans-serif" font-size="14" lengthAdjust="spacing" textLength="68" x="448.5" y="302.0889">:Platform</text><rect fill="#FFFFFF" filter="url(#f1witphzltx0go)" height="166.7969" style="stroke:#A80036;stroke-width:1.0;" width="10" x="34.5" y="98.2969"/><rect fill="#FFFFFF" filter="url(#f1witphzltx0go)" height="29.1328" style="stroke:#A80036;stroke-width:1.0;" width="10" x="479.5" y="119.4297"/><rect fill="#FFFFFF" filter="url(#f1witphzltx0go)" height="29.1328" style="stroke:#A80036;stroke-width:1.0;" width="10" x="479.5" y="177.6953"/><rect fill="#FFFFFF" filter="url(#f1witphzltx0go)" height="29.1328" style="stroke:#A80036;stroke-width:1.0;" width="10" x="479.5" y="235.9609"/><polygon fill="#A80036" points="467.5,115.4297,477.5,119.4297,467.5,123.4297,471.5,119.4297" style="stroke:#A80036;stroke-width:1.0;"/><line style="stroke:#A80036;stroke-width:1.0;" x1="44.5" x2="473.5" y1="119.4297" y2="119.4297"/><text fill="#000000" font-family="sans-serif" font-size="13" font-weight="bold" lengthAdjust="spacing" textLength="9" x="51.5" y="114.3638">1</text><text fill="#000000" font-family="sans-serif" font-size="13" lengthAdjust="spacing" textLength="234" x="64.5" y="114.3638">asks to be registered in the Platform</text><polygon fill="#A80036" points="55.5,144.5625,45.5,148.5625,55.5,152.5625,51.5,148.5625" style="stroke:#A80036;stroke-width:1.0;"/><line style="stroke:#A80036;stroke-width:1.0;stroke-dasharray:2.0,2.0;" x1="49.5" x2="483.5" y1="148.5625" y2="148.5625"/><text fill="#000000" font-family="sans-serif" font-size="13" font-weight="bold" lengthAdjust="spacing" textLength="9" x="61.5" y="143.4966">2</text><text fill="#000000" font-family="sans-serif" font-size="13" lengthAdjust="spacing" textLength="187" x="74.5" y="143.4966">asks for Name, NIF and email</text><polygon fill="#A80036" points="467.5,173.6953,477.5,177.6953,467.5,181.6953,471.5,177.6953" style="stroke:#A80036;stroke-width:1.0;"/><line style="stroke:#A80036;stroke-width:1.0;" x1="44.5" x2="473.5" y1="177.6953" y2="177.6953"/><text fill="#000000" font-family="sans-serif" font-size="13" font-weight="bold" lengthAdjust="spacing" textLength="8" x="51.5" y="172.6294">3</text><text fill="#000000" font-family="sans-serif" font-size="13" lengthAdjust="spacing" textLength="170" x="63.5" y="172.6294">inserts the requested data</text><polygon fill="#A80036" points="55.5,202.8281,45.5,206.8281,55.5,210.8281,51.5,206.8281" style="stroke:#A80036;stroke-width:1.0;"/><line style="stroke:#A80036;stroke-width:1.0;stroke-dasharray:2.0,2.0;" x1="49.5" x2="483.5" y1="206.8281" y2="206.8281"/><text fill="#000000" font-family="sans-serif" font-size="13" font-weight="bold" lengthAdjust="spacing" textLength="9" x="61.5" y="201.7622">4</text><text fill="#000000" font-family="sans-serif" font-size="13" lengthAdjust="spacing" textLength="267" x="74.5" y="201.7622">shows the data and asks for confirmation</text><polygon fill="#A80036" points="467.5,231.9609,477.5,235.9609,467.5,239.9609,471.5,235.9609" style="stroke:#A80036;stroke-width:1.0;"/><line style="stroke:#A80036;stroke-width:1.0;" x1="44.5" x2="473.5" y1="235.9609" y2="235.9609"/><text fill="#000000" font-family="sans-serif" font-size="13" font-weight="bold" lengthAdjust="spacing" textLength="9" x="51.5" y="230.895">5</text><text fill="#000000" font-family="sans-serif" font-size="13" lengthAdjust="spacing" textLength="114" x="64.5" y="230.895">confirms the data</text><polygon fill="#A80036" points="50.5,261.0938,40.5,265.0938,50.5,269.0938,46.5,265.0938" style="stroke:#A80036;stroke-width:1.0;"/><line style="stroke:#A80036;stroke-width:1.0;stroke-dasharray:2.0,2.0;" x1="44.5" x2="483.5" y1="265.0938" y2="265.0938"/><text fill="#000000" font-family="sans-serif" font-size="13" font-weight="bold" lengthAdjust="spacing" textLength="9" x="56.5" y="260.0278">6</text><text fill="#000000" font-family="sans-serif" font-size="13" lengthAdjust="spacing" textLength="398" x="69.5" y="260.0278">saves the data and informs that the operation was successful</text><!--MD5=[0e7d72b44a89605fd19c4baa0144c42d]
@startuml
autonumber
actor "non-user" as NOUSER

activate NOUSER
NOUSER -> ":Platform" : asks to be registered in the Platform
activate ":Platform"
":Platform" - -> NOUSER : asks for Name, NIF and email
deactivate ":Platform"

NOUSER -> ":Platform" : inserts the requested data
activate ":Platform"

":Platform" - -> NOUSER : shows the data and asks for confirmation
deactivate ":Platform"

NOUSER -> ":Platform" : confirms the data
activate ":Platform"
":Platform" - -> NOUSER :  saves the data and informs that the operation was successful
deactivate ":Platform"

deactivate NOUSER
@enduml

PlantUML version 1.2021.01beta3(Unknown compile time)
(GPL source distribution)
Java Runtime: Java(TM) SE Runtime Environment
JVM: Java HotSpot(TM) 64-Bit Server VM
Default Encoding: UTF-8
Language: en
Country: US
--></g></svg>