<?xml version="1.0" encoding="UTF-8" standalone="no"?><svg xmlns="http://www.w3.org/2000/svg" xmlns:xlink="http://www.w3.org/1999/xlink" contentScriptType="application/ecmascript" contentStyleType="text/css" height="714px" preserveAspectRatio="none" style="width:1418px;height:714px;" version="1.1" viewBox="0 0 1418 714" width="1418px" zoomAndPan="magnify"><defs><filter height="300%" id="f13bbmvd001xsw" width="300%" x="-1" y="-1"><feGaussianBlur result="blurOut" stdDeviation="2.0"/><feColorMatrix in="blurOut" result="blurOut2" type="matrix" values="0 0 0 0 0 0 0 0 0 0 0 0 0 0 0 0 0 0 .4 0"/><feOffset dx="4.0" dy="4.0" in="blurOut2" result="blurOut3"/><feBlend in="SourceGraphic" in2="blurOut3" mode="normal"/></filter></defs><g><rect fill="#FFFFFF" filter="url(#f13bbmvd001xsw)" height="514.2578" style="stroke:#A80036;stroke-width:1.0;" width="10" x="73" y="98.2969"/><rect fill="#FFFFFF" filter="url(#f13bbmvd001xsw)" height="29.1328" style="stroke:#A80036;stroke-width:1.0;" width="10" x="452" y="119.4297"/><rect fill="#FFFFFF" filter="url(#f13bbmvd001xsw)" height="234.0625" style="stroke:#A80036;stroke-width:1.0;" width="10" x="452" y="177.6953"/><rect fill="#FFFFFF" filter="url(#f13bbmvd001xsw)" height="171.6641" style="stroke:#A80036;stroke-width:1.0;" width="10" x="452" y="440.8906"/><rect fill="#FFFFFF" filter="url(#f13bbmvd001xsw)" height="74.2656" style="stroke:#A80036;stroke-width:1.0;" width="10" x="692" y="221.9609"/><rect fill="#FFFFFF" filter="url(#f13bbmvd001xsw)" height="106.3984" style="stroke:#A80036;stroke-width:1.0;" width="10" x="692" y="470.0234"/><rect fill="#FFFFFF" filter="url(#f13bbmvd001xsw)" height="145.5313" style="stroke:#A80036;stroke-width:1.0;" width="10" x="932" y="266.2266"/><rect fill="#FFFFFF" filter="url(#f13bbmvd001xsw)" height="77.2656" style="stroke:#A80036;stroke-width:1.0;" width="10" x="932" y="499.1563"/><rect fill="#FFFFFF" filter="url(#f13bbmvd001xsw)" height="272.0625" style="stroke:#A80036;stroke-width:1.0;" width="10" x="1247" y="340.4922"/><line style="stroke:#A80036;stroke-width:1.0;stroke-dasharray:5.0,5.0;" x1="78" x2="78" y1="88.2969" y2="630.5547"/><line style="stroke:#A80036;stroke-width:1.0;stroke-dasharray:5.0,5.0;" x1="457" x2="457" y1="88.2969" y2="630.5547"/><line style="stroke:#A80036;stroke-width:1.0;stroke-dasharray:5.0,5.0;" x1="696.5" x2="696.5" y1="88.2969" y2="630.5547"/><line style="stroke:#A80036;stroke-width:1.0;stroke-dasharray:5.0,5.0;" x1="937" x2="937" y1="88.2969" y2="630.5547"/><line style="stroke:#A80036;stroke-width:1.0;stroke-dasharray:5.0,5.0;" x1="1252" x2="1252" y1="88.2969" y2="630.5547"/><text fill="#000000" font-family="sans-serif" font-size="14" lengthAdjust="spacing" textLength="140" x="5" y="84.9951">non registered user</text><ellipse cx="78" cy="15" fill="#FEFECE" filter="url(#f13bbmvd001xsw)" rx="8" ry="8" style="stroke:#A80036;stroke-width:2.0;"/><path d="M78,23 L78,50 M65,31 L91,31 M78,50 L65,65 M78,50 L91,65 " fill="none" filter="url(#f13bbmvd001xsw)" style="stroke:#A80036;stroke-width:2.0;"/><text fill="#000000" font-family="sans-serif" font-size="14" lengthAdjust="spacing" textLength="140" x="5" y="642.5498">non registered user</text><ellipse cx="78" cy="655.8516" fill="#FEFECE" filter="url(#f13bbmvd001xsw)" rx="8" ry="8" style="stroke:#A80036;stroke-width:2.0;"/><path d="M78,663.8516 L78,690.8516 M65,671.8516 L91,671.8516 M78,690.8516 L65,705.8516 M78,690.8516 L91,705.8516 " fill="none" filter="url(#f13bbmvd001xsw)" style="stroke:#A80036;stroke-width:2.0;"/><rect fill="#FEFECE" filter="url(#f13bbmvd001xsw)" height="46.5938" style="stroke:#A80036;stroke-width:1.5;" width="80" x="415" y="36.7031"/><text fill="#000000" font-family="sans-serif" font-size="14" lengthAdjust="spacing" textLength="66" x="422" y="56.6982">:Register</text><text fill="#000000" font-family="sans-serif" font-size="14" lengthAdjust="spacing" textLength="44" x="433" y="72.9951">UserUI</text><rect fill="#FEFECE" filter="url(#f13bbmvd001xsw)" height="46.5938" style="stroke:#A80036;stroke-width:1.5;" width="80" x="415" y="629.5547"/><text fill="#000000" font-family="sans-serif" font-size="14" lengthAdjust="spacing" textLength="66" x="422" y="649.5498">:Register</text><text fill="#000000" font-family="sans-serif" font-size="14" lengthAdjust="spacing" textLength="44" x="433" y="665.8467">UserUI</text><rect fill="#FEFECE" filter="url(#f13bbmvd001xsw)" height="46.5938" style="stroke:#A80036;stroke-width:1.5;" width="111" x="639.5" y="36.7031"/><text fill="#000000" font-family="sans-serif" font-size="14" lengthAdjust="spacing" textLength="97" x="646.5" y="56.6982">:RegisterUser</text><text fill="#000000" font-family="sans-serif" font-size="14" lengthAdjust="spacing" textLength="73" x="658.5" y="72.9951">Controller</text><rect fill="#FEFECE" filter="url(#f13bbmvd001xsw)" height="46.5938" style="stroke:#A80036;stroke-width:1.5;" width="111" x="639.5" y="629.5547"/><text fill="#000000" font-family="sans-serif" font-size="14" lengthAdjust="spacing" textLength="97" x="646.5" y="649.5498">:RegisterUser</text><text fill="#000000" font-family="sans-serif" font-size="14" lengthAdjust="spacing" textLength="73" x="658.5" y="665.8467">Controller</text><rect fill="#FEFECE" filter="url(#f13bbmvd001xsw)" height="30.2969" style="stroke:#A80036;stroke-width:1.5;" width="82" x="894" y="53"/><text fill="#000000" font-family="sans-serif" font-size="14" lengthAdjust="spacing" textLength="68" x="901" y="72.9951">:Platform</text><rect fill="#FEFECE" filter="url(#f13bbmvd001xsw)" height="30.2969" style="stroke:#A80036;stroke-width:1.5;" width="82" x="894" y="629.5547"/><text fill="#000000" font-family="sans-serif" font-size="14" lengthAdjust="spacing" textLength="68" x="901" y="649.5498">:Platform</text><rect fill="#FEFECE" filter="url(#f13bbmvd001xsw)" height="30.2969" style="stroke:#A80036;stroke-width:1.5;" width="50" x="1225" y="53"/><text fill="#000000" font-family="sans-serif" font-size="14" lengthAdjust="spacing" textLength="36" x="1232" y="72.9951">:User</text><rect fill="#FEFECE" filter="url(#f13bbmvd001xsw)" height="30.2969" style="stroke:#A80036;stroke-width:1.5;" width="50" x="1225" y="629.5547"/><text fill="#000000" font-family="sans-serif" font-size="14" lengthAdjust="spacing" textLength="36" x="1232" y="649.5498">:User</text><rect fill="#FFFFFF" filter="url(#f13bbmvd001xsw)" height="514.2578" style="stroke:#A80036;stroke-width:1.0;" width="10" x="73" y="98.2969"/><rect fill="#FFFFFF" filter="url(#f13bbmvd001xsw)" height="29.1328" style="stroke:#A80036;stroke-width:1.0;" width="10" x="452" y="119.4297"/><rect fill="#FFFFFF" filter="url(#f13bbmvd001xsw)" height="234.0625" style="stroke:#A80036;stroke-width:1.0;" width="10" x="452" y="177.6953"/><rect fill="#FFFFFF" filter="url(#f13bbmvd001xsw)" height="171.6641" style="stroke:#A80036;stroke-width:1.0;" width="10" x="452" y="440.8906"/><rect fill="#FFFFFF" filter="url(#f13bbmvd001xsw)" height="74.2656" style="stroke:#A80036;stroke-width:1.0;" width="10" x="692" y="221.9609"/><rect fill="#FFFFFF" filter="url(#f13bbmvd001xsw)" height="106.3984" style="stroke:#A80036;stroke-width:1.0;" width="10" x="692" y="470.0234"/><rect fill="#FFFFFF" filter="url(#f13bbmvd001xsw)" height="145.5313" style="stroke:#A80036;stroke-width:1.0;" width="10" x="932" y="266.2266"/><rect fill="#FFFFFF" filter="url(#f13bbmvd001xsw)" height="77.2656" style="stroke:#A80036;stroke-width:1.0;" width="10" x="932" y="499.1563"/><rect fill="#FFFFFF" filter="url(#f13bbmvd001xsw)" height="272.0625" style="stroke:#A80036;stroke-width:1.0;" width="10" x="1247" y="340.4922"/><polygon fill="#A80036" points="440,115.4297,450,119.4297,440,123.4297,444,119.4297" style="stroke:#A80036;stroke-width:1.0;"/><line style="stroke:#A80036;stroke-width:1.0;" x1="83" x2="446" y1="119.4297" y2="119.4297"/><text fill="#000000" font-family="sans-serif" font-size="13" font-weight="bold" lengthAdjust="spacing" textLength="9" x="90" y="114.3638">1</text><text fill="#000000" font-family="sans-serif" font-size="13" lengthAdjust="spacing" textLength="172" x="103" y="114.3638">starts the User registration</text><polygon fill="#A80036" points="94,144.5625,84,148.5625,94,152.5625,90,148.5625" style="stroke:#A80036;stroke-width:1.0;"/><line style="stroke:#A80036;stroke-width:1.0;stroke-dasharray:2.0,2.0;" x1="88" x2="456" y1="148.5625" y2="148.5625"/><text fill="#000000" font-family="sans-serif" font-size="13" font-weight="bold" lengthAdjust="spacing" textLength="9" x="100" y="143.4966">2</text><text fill="#000000" font-family="sans-serif" font-size="13" lengthAdjust="spacing" textLength="332" x="113" y="143.4966">asks to fill the required data (name, nif, email, pwd)</text><polygon fill="#A80036" points="440,173.6953,450,177.6953,440,181.6953,444,177.6953" style="stroke:#A80036;stroke-width:1.0;"/><line style="stroke:#A80036;stroke-width:1.0;" x1="83" x2="446" y1="177.6953" y2="177.6953"/><text fill="#000000" font-family="sans-serif" font-size="13" font-weight="bold" lengthAdjust="spacing" textLength="8" x="90" y="172.6294">3</text><text fill="#000000" font-family="sans-serif" font-size="13" lengthAdjust="spacing" textLength="154" x="102" y="172.6294">inputs the required data</text><polygon fill="#A80036" points="680,217.9609,690,221.9609,680,225.9609,684,221.9609" style="stroke:#A80036;stroke-width:1.0;"/><line style="stroke:#A80036;stroke-width:1.0;" x1="462" x2="686" y1="221.9609" y2="221.9609"/><text fill="#000000" font-family="sans-serif" font-size="13" font-weight="bold" lengthAdjust="spacing" textLength="9" x="469" y="209.3286">4</text><text fill="#000000" font-family="sans-serif" font-size="13" lengthAdjust="spacing" textLength="56" x="482" y="201.7622">newUser</text><text fill="#000000" font-family="sans-serif" font-size="13" lengthAdjust="spacing" textLength="198" x="482" y="216.895">(userID, name, nif, email, pwd)</text><polygon fill="#A80036" points="920,262.2266,930,266.2266,920,270.2266,924,266.2266" style="stroke:#A80036;stroke-width:1.0;"/><line style="stroke:#A80036;stroke-width:1.0;" x1="702" x2="926" y1="266.2266" y2="266.2266"/><text fill="#000000" font-family="sans-serif" font-size="13" font-weight="bold" lengthAdjust="spacing" textLength="9" x="709" y="253.5942">5</text><text fill="#000000" font-family="sans-serif" font-size="13" lengthAdjust="spacing" textLength="102" x="722" y="246.0278">user = newUser</text><text fill="#000000" font-family="sans-serif" font-size="13" lengthAdjust="spacing" textLength="198" x="722" y="261.1606">(userID, name, nif, email, pwd)</text><polygon fill="#A80036" points="1235,336.4922,1245,340.4922,1235,344.4922,1239,340.4922" style="stroke:#A80036;stroke-width:1.0;"/><line style="stroke:#A80036;stroke-width:1.0;" x1="942" x2="1241" y1="340.4922" y2="340.4922"/><text fill="#000000" font-family="sans-serif" font-size="13" font-weight="bold" lengthAdjust="spacing" textLength="9" x="949" y="327.8599">6</text><text fill="#000000" font-family="sans-serif" font-size="13" lengthAdjust="spacing" textLength="41" x="962" y="320.2935">create</text><text fill="#000000" font-family="sans-serif" font-size="13" lengthAdjust="spacing" textLength="198" x="962" y="335.4263">(userID, name, nif, email, pwd)</text><line style="stroke:#A80036;stroke-width:1.0;" x1="942" x2="984" y1="369.625" y2="369.625"/><line style="stroke:#A80036;stroke-width:1.0;" x1="984" x2="984" y1="369.625" y2="382.625"/><line style="stroke:#A80036;stroke-width:1.0;" x1="943" x2="984" y1="382.625" y2="382.625"/><polygon fill="#A80036" points="953,378.625,943,382.625,953,386.625,949,382.625" style="stroke:#A80036;stroke-width:1.0;"/><text fill="#000000" font-family="sans-serif" font-size="13" font-weight="bold" lengthAdjust="spacing" textLength="9" x="949" y="364.5591">7</text><text fill="#000000" font-family="sans-serif" font-size="13" lengthAdjust="spacing" textLength="278" x="962" y="364.5591">validateUser(userID, name, nif, email, pwd)</text><polygon fill="#A80036" points="94,407.7578,84,411.7578,94,415.7578,90,411.7578" style="stroke:#A80036;stroke-width:1.0;"/><line style="stroke:#A80036;stroke-width:1.0;stroke-dasharray:2.0,2.0;" x1="88" x2="456" y1="411.7578" y2="411.7578"/><text fill="#000000" font-family="sans-serif" font-size="13" font-weight="bold" lengthAdjust="spacing" textLength="9" x="100" y="406.6919">8</text><text fill="#000000" font-family="sans-serif" font-size="13" lengthAdjust="spacing" textLength="136" x="113" y="406.6919">asks for confirmation</text><polygon fill="#A80036" points="440,436.8906,450,440.8906,440,444.8906,444,440.8906" style="stroke:#A80036;stroke-width:1.0;"/><line style="stroke:#A80036;stroke-width:1.0;" x1="83" x2="446" y1="440.8906" y2="440.8906"/><text fill="#000000" font-family="sans-serif" font-size="13" font-weight="bold" lengthAdjust="spacing" textLength="9" x="90" y="435.8247">9</text><text fill="#000000" font-family="sans-serif" font-size="13" lengthAdjust="spacing" textLength="114" x="103" y="435.8247">confirms the data</text><polygon fill="#A80036" points="680,466.0234,690,470.0234,680,474.0234,684,470.0234" style="stroke:#A80036;stroke-width:1.0;"/><line style="stroke:#A80036;stroke-width:1.0;" x1="462" x2="686" y1="470.0234" y2="470.0234"/><text fill="#000000" font-family="sans-serif" font-size="13" font-weight="bold" lengthAdjust="spacing" textLength="19" x="469" y="464.9575">10</text><text fill="#000000" font-family="sans-serif" font-size="13" lengthAdjust="spacing" textLength="88" x="492" y="464.9575">registerUser()</text><polygon fill="#A80036" points="920,495.1563,930,499.1563,920,503.1563,924,499.1563" style="stroke:#A80036;stroke-width:1.0;"/><line style="stroke:#A80036;stroke-width:1.0;" x1="702" x2="926" y1="499.1563" y2="499.1563"/><text fill="#000000" font-family="sans-serif" font-size="13" font-weight="bold" lengthAdjust="spacing" textLength="18" x="709" y="494.0903">11</text><text fill="#000000" font-family="sans-serif" font-size="13" lengthAdjust="spacing" textLength="116" x="731" y="494.0903">registerUser(user)</text><line style="stroke:#A80036;stroke-width:1.0;" x1="1257" x2="1299" y1="528.2891" y2="528.2891"/><line style="stroke:#A80036;stroke-width:1.0;" x1="1299" x2="1299" y1="528.2891" y2="541.2891"/><line style="stroke:#A80036;stroke-width:1.0;" x1="1258" x2="1299" y1="541.2891" y2="541.2891"/><polygon fill="#A80036" points="1268,537.2891,1258,541.2891,1268,545.2891,1264,541.2891" style="stroke:#A80036;stroke-width:1.0;"/><text fill="#000000" font-family="sans-serif" font-size="13" font-weight="bold" lengthAdjust="spacing" textLength="18" x="1264" y="523.2231">12</text><text fill="#000000" font-family="sans-serif" font-size="13" lengthAdjust="spacing" textLength="125" x="1286" y="523.2231">validatesUser(user)</text><line style="stroke:#A80036;stroke-width:1.0;" x1="942" x2="984" y1="575.4219" y2="575.4219"/><line style="stroke:#A80036;stroke-width:1.0;" x1="984" x2="984" y1="575.4219" y2="588.4219"/><line style="stroke:#A80036;stroke-width:1.0;" x1="937" x2="984" y1="588.4219" y2="588.4219"/><polygon fill="#A80036" points="947,584.4219,937,588.4219,947,592.4219,943,588.4219" style="stroke:#A80036;stroke-width:1.0;"/><text fill="#000000" font-family="sans-serif" font-size="13" font-weight="bold" lengthAdjust="spacing" textLength="17" x="949" y="570.356">13</text><text fill="#000000" font-family="sans-serif" font-size="13" lengthAdjust="spacing" textLength="91" x="970" y="570.356">addUser(user)</text><polygon fill="#A80036" points="89,608.5547,79,612.5547,89,616.5547,85,612.5547" style="stroke:#A80036;stroke-width:1.0;"/><line style="stroke:#A80036;stroke-width:1.0;stroke-dasharray:2.0,2.0;" x1="83" x2="456" y1="612.5547" y2="612.5547"/><text fill="#000000" font-family="sans-serif" font-size="13" font-weight="bold" lengthAdjust="spacing" textLength="18" x="95" y="607.4888">14</text><text fill="#000000" font-family="sans-serif" font-size="13" lengthAdjust="spacing" textLength="187" x="117" y="607.4888">the operation was successful</text><!--MD5=[0a87b816c1cfdd475324374b49d40d88]
@startuml
autonumber

actor "non registered user" as UNR
participant ":Register\nUserUI" as UI
participant ":RegisterUser\nController" as CTRL
participant ":Platform" as PLAT
participant ":User" as USR

activate UNR
UNR -> UI : starts the User registration
activate UI
UI - -> UNR : asks to fill the required data (name, nif, email, pwd)
deactivate UI

UNR -> UI : inputs the required data
activate UI

UI -> CTRL : newUser \n(userID, name, nif, email, pwd)
activate CTRL

CTRL -> PLAT: user = newUser \n(userID, name, nif, email, pwd)
activate PLAT
deactivate CTRL
PLAT -> USR: create \n(userID, name, nif, email, pwd)
activate USR

PLAT -> PLAT : validateUser(userID, name, nif, email, pwd)



UI - -> UNR : asks for confirmation
deactivate PLAT
deactivate UI

UNR -> UI : confirms the data
activate UI

UI -> CTRL: registerUser()
activate CTRL
CTRL -> PLAT: registerUser(user)
activate PLAT

USR -> USR: validatesUser(user)

PLAT -> PLAT: addUser(user)


deactivate PLAT
deactivate CTRL
UI - -> UNR : the operation was successful
deactivate UI
deactivate USR
deactivate UNR
@enduml

PlantUML version 1.2021.01(Tue Feb 02 07:55:08 UTC 2021)
(GPL source distribution)
Java Runtime: Java(TM) SE Runtime Environment
JVM: Java HotSpot(TM) 64-Bit Server VM
Default Encoding: UTF-8
Language: en
Country: US
--></g></svg>