<?xml version="1.0" encoding="UTF-8" standalone="no"?><svg xmlns="http://www.w3.org/2000/svg" xmlns:xlink="http://www.w3.org/1999/xlink" contentScriptType="application/ecmascript" contentStyleType="text/css" height="397px" preserveAspectRatio="none" style="width:531px;height:397px;" version="1.1" viewBox="0 0 531 397" width="531px" zoomAndPan="magnify"><defs><filter height="300%" id="fy7vyeyojk745" width="300%" x="-1" y="-1"><feGaussianBlur result="blurOut" stdDeviation="2.0"/><feColorMatrix in="blurOut" result="blurOut2" type="matrix" values="0 0 0 0 0 0 0 0 0 0 0 0 0 0 0 0 0 0 .4 0"/><feOffset dx="4.0" dy="4.0" in="blurOut2" result="blurOut3"/><feBlend in="SourceGraphic" in2="blurOut3" mode="normal"/></filter></defs><g><rect fill="#FFFFFF" filter="url(#fy7vyeyojk745)" height="197.0625" style="stroke:#A80036;stroke-width:1.0;" width="10" x="54" y="98.2969"/><rect fill="#FFFFFF" filter="url(#fy7vyeyojk745)" height="59.3984" style="stroke:#A80036;stroke-width:1.0;" width="10" x="465" y="119.4297"/><rect fill="#FFFFFF" filter="url(#fy7vyeyojk745)" height="29.1328" style="stroke:#A80036;stroke-width:1.0;" width="10" x="465" y="207.9609"/><rect fill="#FFFFFF" filter="url(#fy7vyeyojk745)" height="29.1328" style="stroke:#A80036;stroke-width:1.0;" width="10" x="465" y="266.2266"/><line style="stroke:#A80036;stroke-width:1.0;stroke-dasharray:5.0,5.0;" x1="59" x2="59" y1="88.2969" y2="313.3594"/><line style="stroke:#A80036;stroke-width:1.0;stroke-dasharray:5.0,5.0;" x1="470" x2="470" y1="88.2969" y2="313.3594"/><text fill="#000000" font-family="sans-serif" font-size="14" lengthAdjust="spacing" textLength="102" x="5" y="84.9951">Administrador</text><ellipse cx="59" cy="15" fill="#FEFECE" filter="url(#fy7vyeyojk745)" rx="8" ry="8" style="stroke:#A80036;stroke-width:2.0;"/><path d="M59,23 L59,50 M46,31 L72,31 M59,50 L46,65 M59,50 L72,65 " fill="none" filter="url(#fy7vyeyojk745)" style="stroke:#A80036;stroke-width:2.0;"/><text fill="#000000" font-family="sans-serif" font-size="14" lengthAdjust="spacing" textLength="102" x="5" y="325.3545">Administrador</text><ellipse cx="59" cy="338.6563" fill="#FEFECE" filter="url(#fy7vyeyojk745)" rx="8" ry="8" style="stroke:#A80036;stroke-width:2.0;"/><path d="M59,346.6563 L59,373.6563 M46,354.6563 L72,354.6563 M59,373.6563 L46,388.6563 M59,373.6563 L72,388.6563 " fill="none" filter="url(#fy7vyeyojk745)" style="stroke:#A80036;stroke-width:2.0;"/><rect fill="#FEFECE" filter="url(#fy7vyeyojk745)" height="30.2969" style="stroke:#A80036;stroke-width:1.5;" width="98" x="419" y="53"/><text fill="#000000" font-family="sans-serif" font-size="14" lengthAdjust="spacing" textLength="84" x="426" y="72.9951">:Plataforma</text><rect fill="#FEFECE" filter="url(#fy7vyeyojk745)" height="30.2969" style="stroke:#A80036;stroke-width:1.5;" width="98" x="419" y="312.3594"/><text fill="#000000" font-family="sans-serif" font-size="14" lengthAdjust="spacing" textLength="84" x="426" y="332.3545">:Plataforma</text><rect fill="#FFFFFF" filter="url(#fy7vyeyojk745)" height="197.0625" style="stroke:#A80036;stroke-width:1.0;" width="10" x="54" y="98.2969"/><rect fill="#FFFFFF" filter="url(#fy7vyeyojk745)" height="59.3984" style="stroke:#A80036;stroke-width:1.0;" width="10" x="465" y="119.4297"/><rect fill="#FFFFFF" filter="url(#fy7vyeyojk745)" height="29.1328" style="stroke:#A80036;stroke-width:1.0;" width="10" x="465" y="207.9609"/><rect fill="#FFFFFF" filter="url(#fy7vyeyojk745)" height="29.1328" style="stroke:#A80036;stroke-width:1.0;" width="10" x="465" y="266.2266"/><polygon fill="#A80036" points="453,115.4297,463,119.4297,453,123.4297,457,119.4297" style="stroke:#A80036;stroke-width:1.0;"/><line style="stroke:#A80036;stroke-width:1.0;" x1="64" x2="459" y1="119.4297" y2="119.4297"/><text fill="#000000" font-family="sans-serif" font-size="13" font-weight="bold" lengthAdjust="spacing" textLength="9" x="71" y="114.3638">1</text><text fill="#000000" font-family="sans-serif" font-size="13" lengthAdjust="spacing" textLength="193" x="84" y="114.3638">registar lugar estacionamento</text><polygon fill="#A80036" points="75,174.8281,65,178.8281,75,182.8281,71,178.8281" style="stroke:#A80036;stroke-width:1.0;"/><line style="stroke:#A80036;stroke-width:1.0;stroke-dasharray:2.0,2.0;" x1="69" x2="469" y1="178.8281" y2="178.8281"/><text fill="#000000" font-family="sans-serif" font-size="13" font-weight="bold" lengthAdjust="spacing" textLength="9" x="81" y="158.6294">2</text><text fill="#000000" font-family="sans-serif" font-size="13" lengthAdjust="spacing" textLength="169" x="94" y="143.4966">solicita dados organização</text><text fill="#000000" font-family="sans-serif" font-size="13" lengthAdjust="spacing" textLength="364" x="94" y="158.6294">(designacaoUnica, andar, preco, parqueEstacionamento)</text><text fill="#000000" font-family="sans-serif" font-size="13" lengthAdjust="spacing" textLength="0" x="98" y="173.7622"/><polygon fill="#A80036" points="453,203.9609,463,207.9609,453,211.9609,457,207.9609" style="stroke:#A80036;stroke-width:1.0;"/><line style="stroke:#A80036;stroke-width:1.0;" x1="64" x2="459" y1="207.9609" y2="207.9609"/><text fill="#000000" font-family="sans-serif" font-size="13" font-weight="bold" lengthAdjust="spacing" textLength="8" x="71" y="202.895">3</text><text fill="#000000" font-family="sans-serif" font-size="13" lengthAdjust="spacing" textLength="185" x="83" y="202.895">introduz os dados solicitados</text><polygon fill="#A80036" points="75,233.0938,65,237.0938,75,241.0938,71,237.0938" style="stroke:#A80036;stroke-width:1.0;"/><line style="stroke:#A80036;stroke-width:1.0;stroke-dasharray:2.0,2.0;" x1="69" x2="469" y1="237.0938" y2="237.0938"/><text fill="#000000" font-family="sans-serif" font-size="13" font-weight="bold" lengthAdjust="spacing" textLength="9" x="81" y="232.0278">4</text><text fill="#000000" font-family="sans-serif" font-size="13" lengthAdjust="spacing" textLength="252" x="94" y="232.0278">apresenta dados e solicita confirmação</text><polygon fill="#A80036" points="453,262.2266,463,266.2266,453,270.2266,457,266.2266" style="stroke:#A80036;stroke-width:1.0;"/><line style="stroke:#A80036;stroke-width:1.0;" x1="64" x2="459" y1="266.2266" y2="266.2266"/><text fill="#000000" font-family="sans-serif" font-size="13" font-weight="bold" lengthAdjust="spacing" textLength="9" x="71" y="261.1606">5</text><text fill="#000000" font-family="sans-serif" font-size="13" lengthAdjust="spacing" textLength="57" x="84" y="261.1606">confirma</text><polygon fill="#A80036" points="70,291.3594,60,295.3594,70,299.3594,66,295.3594" style="stroke:#A80036;stroke-width:1.0;"/><line style="stroke:#A80036;stroke-width:1.0;stroke-dasharray:2.0,2.0;" x1="64" x2="469" y1="295.3594" y2="295.3594"/><text fill="#000000" font-family="sans-serif" font-size="13" font-weight="bold" lengthAdjust="spacing" textLength="9" x="76" y="290.2935">6</text><text fill="#000000" font-family="sans-serif" font-size="13" lengthAdjust="spacing" textLength="154" x="89" y="290.2935">operação bem sucedida</text><!--MD5=[3d32855403dd4bb8ae924a2d46df6855]
@startuml
autonumber
actor "Administrador" as ADMIN

activate ADMIN
ADMIN -> ":Plataforma" : registar lugar estacionamento
activate ":Plataforma"
":Plataforma" - -> ADMIN : solicita dados organização \n(designacaoUnica, andar, preco, parqueEstacionamento)\n 
deactivate ":Plataforma"

ADMIN -> ":Plataforma" : introduz os dados solicitados
activate ":Plataforma"
":Plataforma" - -> ADMIN : apresenta dados e solicita confirmação
deactivate ":Plataforma"

ADMIN -> ":Plataforma" : confirma
activate ":Plataforma"
":Plataforma" - -> ADMIN : operação bem sucedida
deactivate ":Plataforma"

deactivate ADMIN
@enduml

PlantUML version 1.2021.01beta3(Unknown compile time)
(GPL source distribution)
Java Runtime: Java(TM) SE Runtime Environment
JVM: Java HotSpot(TM) 64-Bit Server VM
Default Encoding: UTF-8
Language: en
Country: US
--></g></svg>