<?xml version="1.0" encoding="UTF-8" standalone="no"?><svg xmlns="http://www.w3.org/2000/svg" xmlns:xlink="http://www.w3.org/1999/xlink" contentScriptType="application/ecmascript" contentStyleType="text/css" height="732px" preserveAspectRatio="none" style="width:1068px;height:732px;" version="1.1" viewBox="0 0 1068 732" width="1068px" zoomAndPan="magnify"><defs><filter height="300%" id="fq62le19o16vf" width="300%" x="-1" y="-1"><feGaussianBlur result="blurOut" stdDeviation="2.0"/><feColorMatrix in="blurOut" result="blurOut2" type="matrix" values="0 0 0 0 0 0 0 0 0 0 0 0 0 0 0 0 0 0 .4 0"/><feOffset dx="4.0" dy="4.0" in="blurOut2" result="blurOut3"/><feBlend in="SourceGraphic" in2="blurOut3" mode="normal"/></filter></defs><g><!--MD5=[45aeaa341fef25f20606e62afa73950f]
class CentralAPI--><rect codeLine="5" fill="#FEFECE" filter="url(#fq62le19o16vf)" height="40" id="CentralAPI" style="stroke:#A80036;stroke-width:1.5;" width="91" x="736.8787" y="7"/><ellipse cx="751.8787" cy="23" fill="#ADD1B2" rx="11" ry="11" style="stroke:#A80036;stroke-width:1.0;"/><path d="M754.2225,18.6719 C753.285,18.2344 752.6912,18.0938 751.8162,18.0938 C749.1912,18.0938 747.1912,20.1719 747.1912,22.8906 L747.1912,24.0156 C747.1912,26.5938 749.3006,28.4844 752.1912,28.4844 C753.41,28.4844 754.5662,28.1875 755.3162,27.6406 C755.8943,27.2344 756.2225,26.7813 756.2225,26.3906 C756.2225,25.9375 755.8318,25.5469 755.3631,25.5469 C755.1443,25.5469 754.9412,25.625 754.7537,25.8125 C754.3006,26.2969 754.3006,26.2969 754.1131,26.3906 C753.6912,26.6563 753.0037,26.7813 752.2381,26.7813 C750.1912,26.7813 748.8943,25.6875 748.8943,23.9844 L748.8943,22.8906 C748.8943,21.1094 750.1443,19.7969 751.8787,19.7969 C752.4568,19.7969 753.0662,19.9531 753.535,20.2031 C754.0193,20.4844 754.1912,20.7031 754.285,21.1094 C754.3475,21.5156 754.3787,21.6406 754.5193,21.7656 C754.66,21.9063 754.8943,22.0156 755.1131,22.0156 C755.3787,22.0156 755.6443,21.875 755.8162,21.6563 C755.9256,21.5 755.9568,21.3125 755.9568,20.8906 L755.9568,19.4688 C755.9568,19.0313 755.9412,18.9063 755.8475,18.75 C755.6912,18.4844 755.41,18.3438 755.1131,18.3438 C754.8162,18.3438 754.6131,18.4375 754.3943,18.75 L754.2225,18.6719 Z " fill="#000000"/><text fill="#000000" font-family="sans-serif" font-size="12" lengthAdjust="spacing" textLength="59" x="765.8787" y="27.1543">CentralAPI</text><line style="stroke:#A80036;stroke-width:1.5;" x1="737.8787" x2="826.8787" y1="39" y2="39"/><!--MD5=[76221a0f507a13ec9fe4c44bbda3ba0c]
class AuthenticationServer--><rect codeLine="8" fill="#FEFECE" filter="url(#fq62le19o16vf)" height="40" id="AuthenticationServer" style="stroke:#A80036;stroke-width:1.5;" width="157" x="638.8787" y="395"/><ellipse cx="653.8787" cy="411" fill="#ADD1B2" rx="11" ry="11" style="stroke:#A80036;stroke-width:1.0;"/><path d="M656.2225,406.6719 C655.285,406.2344 654.6912,406.0938 653.8162,406.0938 C651.1912,406.0938 649.1912,408.1719 649.1912,410.8906 L649.1912,412.0156 C649.1912,414.5938 651.3006,416.4844 654.1912,416.4844 C655.41,416.4844 656.5662,416.1875 657.3162,415.6406 C657.8943,415.2344 658.2225,414.7813 658.2225,414.3906 C658.2225,413.9375 657.8318,413.5469 657.3631,413.5469 C657.1443,413.5469 656.9412,413.625 656.7537,413.8125 C656.3006,414.2969 656.3006,414.2969 656.1131,414.3906 C655.6912,414.6563 655.0037,414.7813 654.2381,414.7813 C652.1912,414.7813 650.8943,413.6875 650.8943,411.9844 L650.8943,410.8906 C650.8943,409.1094 652.1443,407.7969 653.8787,407.7969 C654.4568,407.7969 655.0662,407.9531 655.535,408.2031 C656.0193,408.4844 656.1912,408.7031 656.285,409.1094 C656.3475,409.5156 656.3787,409.6406 656.5193,409.7656 C656.66,409.9063 656.8943,410.0156 657.1131,410.0156 C657.3787,410.0156 657.6443,409.875 657.8162,409.6563 C657.9256,409.5 657.9568,409.3125 657.9568,408.8906 L657.9568,407.4688 C657.9568,407.0313 657.9412,406.9063 657.8475,406.75 C657.6912,406.4844 657.41,406.3438 657.1131,406.3438 C656.8162,406.3438 656.6131,406.4375 656.3943,406.75 L656.2225,406.6719 Z " fill="#000000"/><text fill="#000000" font-family="sans-serif" font-size="12" lengthAdjust="spacing" textLength="125" x="667.8787" y="415.1543">AuthenticationServer</text><line style="stroke:#A80036;stroke-width:1.5;" x1="639.8787" x2="794.8787" y1="427" y2="427"/><!--MD5=[764fca796ce7f635542948d8fc39db5e]
class Payment--><rect codeLine="11" fill="#FEFECE" filter="url(#fq62le19o16vf)" height="91.2188" id="Payment" style="stroke:#A80036;stroke-width:1.5;" width="140" x="465.3787" y="601.5"/><ellipse cx="506.4787" cy="617.5" fill="#ADD1B2" rx="11" ry="11" style="stroke:#A80036;stroke-width:1.0;"/><path d="M508.8225,613.1719 C507.885,612.7344 507.2912,612.5938 506.4162,612.5938 C503.7912,612.5938 501.7912,614.6719 501.7912,617.3906 L501.7912,618.5156 C501.7912,621.0938 503.9006,622.9844 506.7912,622.9844 C508.01,622.9844 509.1662,622.6875 509.9162,622.1406 C510.4943,621.7344 510.8225,621.2813 510.8225,620.8906 C510.8225,620.4375 510.4318,620.0469 509.9631,620.0469 C509.7443,620.0469 509.5412,620.125 509.3537,620.3125 C508.9006,620.7969 508.9006,620.7969 508.7131,620.8906 C508.2912,621.1563 507.6037,621.2813 506.8381,621.2813 C504.7912,621.2813 503.4943,620.1875 503.4943,618.4844 L503.4943,617.3906 C503.4943,615.6094 504.7443,614.2969 506.4787,614.2969 C507.0568,614.2969 507.6662,614.4531 508.135,614.7031 C508.6193,614.9844 508.7912,615.2031 508.885,615.6094 C508.9475,616.0156 508.9787,616.1406 509.1193,616.2656 C509.26,616.4063 509.4943,616.5156 509.7131,616.5156 C509.9787,616.5156 510.2443,616.375 510.4162,616.1563 C510.5256,616 510.5568,615.8125 510.5568,615.3906 L510.5568,613.9688 C510.5568,613.5313 510.5412,613.4063 510.4475,613.25 C510.2912,612.9844 510.01,612.8438 509.7131,612.8438 C509.4162,612.8438 509.2131,612.9375 508.9943,613.25 L508.8225,613.1719 Z " fill="#000000"/><text fill="#000000" font-family="sans-serif" font-size="12" lengthAdjust="spacing" textLength="50" x="526.2787" y="621.6543">Payment</text><line style="stroke:#A80036;stroke-width:1.5;" x1="466.3787" x2="604.3787" y1="633.5" y2="633.5"/><text fill="#000000" font-family="sans-serif" font-size="11" lengthAdjust="spacing" textLength="104" x="471.3787" y="647.7104">-String paymentID</text><text fill="#000000" font-family="sans-serif" font-size="11" lengthAdjust="spacing" textLength="106" x="471.3787" y="660.5151">-Decimal finalPrice</text><text fill="#000000" font-family="sans-serif" font-size="11" lengthAdjust="spacing" textLength="128" x="471.3787" y="673.3198">-DateTime timeStamp</text><text fill="#000000" font-family="sans-serif" font-size="11" lengthAdjust="spacing" textLength="78" x="471.3787" y="686.1245">-String userID</text><!--MD5=[96372855b446814cbc904f692f47fbed]
class QRcode--><rect codeLine="18" fill="#FEFECE" filter="url(#fq62le19o16vf)" height="40" id="QRcode" style="stroke:#A80036;stroke-width:1.5;" width="80" x="27.3787" y="627"/><ellipse cx="42.3787" cy="643" fill="#ADD1B2" rx="11" ry="11" style="stroke:#A80036;stroke-width:1.0;"/><path d="M44.7224,638.6719 C43.7849,638.2344 43.1912,638.0938 42.3162,638.0938 C39.6912,638.0938 37.6912,640.1719 37.6912,642.8906 L37.6912,644.0156 C37.6912,646.5938 39.8006,648.4844 42.6912,648.4844 C43.9099,648.4844 45.0662,648.1875 45.8162,647.6406 C46.3943,647.2344 46.7224,646.7813 46.7224,646.3906 C46.7224,645.9375 46.3318,645.5469 45.8631,645.5469 C45.6443,645.5469 45.4412,645.625 45.2537,645.8125 C44.8006,646.2969 44.8006,646.2969 44.6131,646.3906 C44.1912,646.6563 43.5037,646.7813 42.7381,646.7813 C40.6912,646.7813 39.3943,645.6875 39.3943,643.9844 L39.3943,642.8906 C39.3943,641.1094 40.6443,639.7969 42.3787,639.7969 C42.9568,639.7969 43.5662,639.9531 44.0349,640.2031 C44.5193,640.4844 44.6912,640.7031 44.7849,641.1094 C44.8474,641.5156 44.8787,641.6406 45.0193,641.7656 C45.1599,641.9063 45.3943,642.0156 45.6131,642.0156 C45.8787,642.0156 46.1443,641.875 46.3162,641.6563 C46.4256,641.5 46.4568,641.3125 46.4568,640.8906 L46.4568,639.4688 C46.4568,639.0313 46.4412,638.9063 46.3474,638.75 C46.1912,638.4844 45.9099,638.3438 45.6131,638.3438 C45.3162,638.3438 45.1131,638.4375 44.8943,638.75 L44.7224,638.6719 Z " fill="#000000"/><text fill="#000000" font-family="sans-serif" font-size="12" lengthAdjust="spacing" textLength="48" x="56.3787" y="647.1543">QRcode</text><line style="stroke:#A80036;stroke-width:1.5;" x1="28.3787" x2="106.3787" y1="659" y2="659"/><!--MD5=[3fd616f346a44cd59a91eb10b19e157c]
class User--><rect codeLine="21" fill="#FEFECE" filter="url(#fq62le19o16vf)" height="91.2188" id="User" style="stroke:#A80036;stroke-width:1.5;" width="90" x="362.3787" y="143.5"/><ellipse cx="390.4287" cy="159.5" fill="#ADD1B2" rx="11" ry="11" style="stroke:#A80036;stroke-width:1.0;"/><path d="M392.7725,155.1719 C391.835,154.7344 391.2412,154.5938 390.3662,154.5938 C387.7412,154.5938 385.7412,156.6719 385.7412,159.3906 L385.7412,160.5156 C385.7412,163.0938 387.8506,164.9844 390.7412,164.9844 C391.96,164.9844 393.1162,164.6875 393.8662,164.1406 C394.4443,163.7344 394.7725,163.2813 394.7725,162.8906 C394.7725,162.4375 394.3818,162.0469 393.9131,162.0469 C393.6943,162.0469 393.4912,162.125 393.3037,162.3125 C392.8506,162.7969 392.8506,162.7969 392.6631,162.8906 C392.2412,163.1563 391.5537,163.2813 390.7881,163.2813 C388.7412,163.2813 387.4443,162.1875 387.4443,160.4844 L387.4443,159.3906 C387.4443,157.6094 388.6943,156.2969 390.4287,156.2969 C391.0068,156.2969 391.6162,156.4531 392.085,156.7031 C392.5693,156.9844 392.7412,157.2031 392.835,157.6094 C392.8975,158.0156 392.9287,158.1406 393.0693,158.2656 C393.21,158.4063 393.4443,158.5156 393.6631,158.5156 C393.9287,158.5156 394.1943,158.375 394.3662,158.1563 C394.4756,158 394.5068,157.8125 394.5068,157.3906 L394.5068,155.9688 C394.5068,155.5313 394.4912,155.4063 394.3975,155.25 C394.2412,154.9844 393.96,154.8438 393.6631,154.8438 C393.3662,154.8438 393.1631,154.9375 392.9443,155.25 L392.7725,155.1719 Z " fill="#000000"/><text fill="#000000" font-family="sans-serif" font-size="12" lengthAdjust="spacing" textLength="29" x="407.3287" y="163.6543">User</text><line style="stroke:#A80036;stroke-width:1.5;" x1="363.3787" x2="451.3787" y1="175.5" y2="175.5"/><text fill="#000000" font-family="sans-serif" font-size="11" lengthAdjust="spacing" textLength="78" x="368.3787" y="189.7104">-String userID</text><text fill="#000000" font-family="sans-serif" font-size="11" lengthAdjust="spacing" textLength="74" x="368.3787" y="202.5151">-String name</text><text fill="#000000" font-family="sans-serif" font-size="11" lengthAdjust="spacing" textLength="55" x="368.3787" y="215.3198">-String nif</text><text fill="#000000" font-family="sans-serif" font-size="11" lengthAdjust="spacing" textLength="73" x="368.3787" y="228.1245">-String email</text><!--MD5=[9f070bf9f108c27faa2eb76515c78fb3]
class Wallet--><rect codeLine="28" fill="#FEFECE" filter="url(#fq62le19o16vf)" height="91.2188" id="Wallet" style="stroke:#A80036;stroke-width:1.5;" width="136" x="467.3787" y="369.5"/><ellipse cx="512.6287" cy="385.5" fill="#ADD1B2" rx="11" ry="11" style="stroke:#A80036;stroke-width:1.0;"/><path d="M514.9725,381.1719 C514.035,380.7344 513.4412,380.5938 512.5662,380.5938 C509.9412,380.5938 507.9412,382.6719 507.9412,385.3906 L507.9412,386.5156 C507.9412,389.0938 510.0506,390.9844 512.9412,390.9844 C514.16,390.9844 515.3162,390.6875 516.0662,390.1406 C516.6443,389.7344 516.9725,389.2813 516.9725,388.8906 C516.9725,388.4375 516.5818,388.0469 516.1131,388.0469 C515.8943,388.0469 515.6912,388.125 515.5037,388.3125 C515.0506,388.7969 515.0506,388.7969 514.8631,388.8906 C514.4412,389.1563 513.7537,389.2813 512.9881,389.2813 C510.9412,389.2813 509.6443,388.1875 509.6443,386.4844 L509.6443,385.3906 C509.6443,383.6094 510.8943,382.2969 512.6287,382.2969 C513.2068,382.2969 513.8162,382.4531 514.285,382.7031 C514.7693,382.9844 514.9412,383.2031 515.035,383.6094 C515.0975,384.0156 515.1287,384.1406 515.2693,384.2656 C515.41,384.4063 515.6443,384.5156 515.8631,384.5156 C516.1287,384.5156 516.3943,384.375 516.5662,384.1563 C516.6756,384 516.7068,383.8125 516.7068,383.3906 L516.7068,381.9688 C516.7068,381.5313 516.6912,381.4063 516.5975,381.25 C516.4412,380.9844 516.16,380.8438 515.8631,380.8438 C515.5662,380.8438 515.3631,380.9375 515.1443,381.25 L514.9725,381.1719 Z " fill="#000000"/><text fill="#000000" font-family="sans-serif" font-size="12" lengthAdjust="spacing" textLength="37" x="533.1287" y="389.6543">Wallet</text><line style="stroke:#A80036;stroke-width:1.5;" x1="468.3787" x2="602.3787" y1="401.5" y2="401.5"/><text fill="#000000" font-family="sans-serif" font-size="11" lengthAdjust="spacing" textLength="87" x="473.3787" y="415.7104">-String walletID</text><text fill="#000000" font-family="sans-serif" font-size="11" lengthAdjust="spacing" textLength="124" x="473.3787" y="428.5151">-Decimal totalAmount</text><text fill="#000000" font-family="sans-serif" font-size="11" lengthAdjust="spacing" textLength="90" x="473.3787" y="441.3198">-String currency</text><text fill="#000000" font-family="sans-serif" font-size="11" lengthAdjust="spacing" textLength="78" x="473.3787" y="454.1245">-String userID</text><!--MD5=[3278e667f7f3d8d17b01b80e0cc50874]
class ParkingLotAPI--><rect codeLine="35" fill="#FEFECE" filter="url(#fq62le19o16vf)" height="129.6328" id="ParkingLotAPI" style="stroke:#A80036;stroke-width:1.5;" width="152" x="902.3787" y="124"/><ellipse cx="936.2787" cy="140" fill="#ADD1B2" rx="11" ry="11" style="stroke:#A80036;stroke-width:1.0;"/><path d="M938.6225,135.6719 C937.685,135.2344 937.0912,135.0938 936.2162,135.0938 C933.5912,135.0938 931.5912,137.1719 931.5912,139.8906 L931.5912,141.0156 C931.5912,143.5938 933.7006,145.4844 936.5912,145.4844 C937.81,145.4844 938.9662,145.1875 939.7162,144.6406 C940.2943,144.2344 940.6225,143.7813 940.6225,143.3906 C940.6225,142.9375 940.2318,142.5469 939.7631,142.5469 C939.5443,142.5469 939.3412,142.625 939.1537,142.8125 C938.7006,143.2969 938.7006,143.2969 938.5131,143.3906 C938.0912,143.6563 937.4037,143.7813 936.6381,143.7813 C934.5912,143.7813 933.2943,142.6875 933.2943,140.9844 L933.2943,139.8906 C933.2943,138.1094 934.5443,136.7969 936.2787,136.7969 C936.8568,136.7969 937.4662,136.9531 937.935,137.2031 C938.4193,137.4844 938.5912,137.7031 938.685,138.1094 C938.7475,138.5156 938.7787,138.6406 938.9193,138.7656 C939.06,138.9063 939.2943,139.0156 939.5131,139.0156 C939.7787,139.0156 940.0443,138.875 940.2162,138.6563 C940.3256,138.5 940.3568,138.3125 940.3568,137.8906 L940.3568,136.4688 C940.3568,136.0313 940.3412,135.9063 940.2475,135.75 C940.0912,135.4844 939.81,135.3438 939.5131,135.3438 C939.2162,135.3438 939.0131,135.4375 938.7943,135.75 L938.6225,135.6719 Z " fill="#000000"/><text fill="#000000" font-family="sans-serif" font-size="12" lengthAdjust="spacing" textLength="78" x="954.4787" y="144.1543">ParkingLotAPI</text><line style="stroke:#A80036;stroke-width:1.5;" x1="903.3787" x2="1053.3787" y1="156" y2="156"/><text fill="#000000" font-family="sans-serif" font-size="11" lengthAdjust="spacing" textLength="119" x="908.3787" y="170.2104">-Integer parkingLotID</text><text fill="#000000" font-family="sans-serif" font-size="11" lengthAdjust="spacing" textLength="74" x="908.3787" y="183.0151">-String name</text><text fill="#000000" font-family="sans-serif" font-size="11" lengthAdjust="spacing" textLength="130" x="908.3787" y="195.8198">-String companyOwner</text><text fill="#000000" font-family="sans-serif" font-size="11" lengthAdjust="spacing" textLength="85" x="908.3787" y="208.6245">-String location</text><text fill="#000000" font-family="sans-serif" font-size="11" lengthAdjust="spacing" textLength="96" x="908.3787" y="221.4292">-Integer capacity</text><text fill="#000000" font-family="sans-serif" font-size="11" lengthAdjust="spacing" textLength="140" x="908.3787" y="234.2339">-DateTime openingTime</text><text fill="#000000" font-family="sans-serif" font-size="11" lengthAdjust="spacing" textLength="133" x="908.3787" y="247.0386">-DateTime closingTime</text><!--MD5=[e8d1d02626a1df80ab81ee14c5101fbd]
class ParkingSpot--><rect codeLine="45" fill="#FEFECE" filter="url(#fq62le19o16vf)" height="116.8281" id="ParkingSpot" style="stroke:#A80036;stroke-width:1.5;" width="132" x="904.3787" y="356.5"/><ellipse cx="932.4287" cy="372.5" fill="#ADD1B2" rx="11" ry="11" style="stroke:#A80036;stroke-width:1.0;"/><path d="M934.7724,368.1719 C933.8349,367.7344 933.2412,367.5938 932.3662,367.5938 C929.7412,367.5938 927.7412,369.6719 927.7412,372.3906 L927.7412,373.5156 C927.7412,376.0938 929.8506,377.9844 932.7412,377.9844 C933.9599,377.9844 935.1162,377.6875 935.8662,377.1406 C936.4443,376.7344 936.7724,376.2813 936.7724,375.8906 C936.7724,375.4375 936.3818,375.0469 935.9131,375.0469 C935.6943,375.0469 935.4912,375.125 935.3037,375.3125 C934.8506,375.7969 934.8506,375.7969 934.6631,375.8906 C934.2412,376.1563 933.5537,376.2813 932.7881,376.2813 C930.7412,376.2813 929.4443,375.1875 929.4443,373.4844 L929.4443,372.3906 C929.4443,370.6094 930.6943,369.2969 932.4287,369.2969 C933.0068,369.2969 933.6162,369.4531 934.0849,369.7031 C934.5693,369.9844 934.7412,370.2031 934.8349,370.6094 C934.8974,371.0156 934.9287,371.1406 935.0693,371.2656 C935.2099,371.4063 935.4443,371.5156 935.6631,371.5156 C935.9287,371.5156 936.1943,371.375 936.3662,371.1563 C936.4756,371 936.5068,370.8125 936.5068,370.3906 L936.5068,368.9688 C936.5068,368.5313 936.4912,368.4063 936.3974,368.25 C936.2412,367.9844 935.9599,367.8438 935.6631,367.8438 C935.3662,367.8438 935.1631,367.9375 934.9443,368.25 L934.7724,368.1719 Z " fill="#000000"/><text fill="#000000" font-family="sans-serif" font-size="12" lengthAdjust="spacing" textLength="71" x="949.3287" y="376.6543">ParkingSpot</text><line style="stroke:#A80036;stroke-width:1.5;" x1="905.3787" x2="1035.3787" y1="388.5" y2="388.5"/><text fill="#000000" font-family="sans-serif" font-size="11" lengthAdjust="spacing" textLength="120" x="910.3787" y="402.7104">-String parkingSpotID</text><text fill="#000000" font-family="sans-serif" font-size="11" lengthAdjust="spacing" textLength="109" x="910.3787" y="415.5151">-Decimal priceHour</text><text fill="#000000" font-family="sans-serif" font-size="11" lengthAdjust="spacing" textLength="72" x="910.3787" y="428.3198">-String floor*</text><text fill="#000000" font-family="sans-serif" font-size="11" lengthAdjust="spacing" textLength="87" x="910.3787" y="441.1245">-Bool isPrivate*</text><text fill="#000000" font-family="sans-serif" font-size="11" lengthAdjust="spacing" textLength="97" x="910.3787" y="453.9292">-Bool isCovered*</text><text fill="#000000" font-family="sans-serif" font-size="11" lengthAdjust="spacing" textLength="119" x="910.3787" y="466.7339">-Integer parkingLotID</text><!--MD5=[9c46470aa33a0c75e6d1dfdefc2f9c22]
class Reservation--><rect codeLine="54" fill="#FEFECE" filter="url(#fq62le19o16vf)" height="142.4375" id="Reservation" style="stroke:#A80036;stroke-width:1.5;" width="132" x="676.3787" y="576"/><ellipse cx="704.4287" cy="592" fill="#ADD1B2" rx="11" ry="11" style="stroke:#A80036;stroke-width:1.0;"/><path d="M706.7724,587.6719 C705.8349,587.2344 705.2412,587.0938 704.3662,587.0938 C701.7412,587.0938 699.7412,589.1719 699.7412,591.8906 L699.7412,593.0156 C699.7412,595.5938 701.8506,597.4844 704.7412,597.4844 C705.9599,597.4844 707.1162,597.1875 707.8662,596.6406 C708.4443,596.2344 708.7724,595.7813 708.7724,595.3906 C708.7724,594.9375 708.3818,594.5469 707.9131,594.5469 C707.6943,594.5469 707.4912,594.625 707.3037,594.8125 C706.8506,595.2969 706.8506,595.2969 706.6631,595.3906 C706.2412,595.6563 705.5537,595.7813 704.7881,595.7813 C702.7412,595.7813 701.4443,594.6875 701.4443,592.9844 L701.4443,591.8906 C701.4443,590.1094 702.6943,588.7969 704.4287,588.7969 C705.0068,588.7969 705.6162,588.9531 706.0849,589.2031 C706.5693,589.4844 706.7412,589.7031 706.8349,590.1094 C706.8974,590.5156 706.9287,590.6406 707.0693,590.7656 C707.2099,590.9063 707.4443,591.0156 707.6631,591.0156 C707.9287,591.0156 708.1943,590.875 708.3662,590.6563 C708.4756,590.5 708.5068,590.3125 708.5068,589.8906 L708.5068,588.4688 C708.5068,588.0313 708.4912,587.9063 708.3974,587.75 C708.2412,587.4844 707.9599,587.3438 707.6631,587.3438 C707.3662,587.3438 707.1631,587.4375 706.9443,587.75 L706.7724,587.6719 Z " fill="#000000"/><text fill="#000000" font-family="sans-serif" font-size="12" lengthAdjust="spacing" textLength="71" x="721.3287" y="596.1543">Reservation</text><line style="stroke:#A80036;stroke-width:1.5;" x1="677.3787" x2="807.3787" y1="608" y2="608"/><text fill="#000000" font-family="sans-serif" font-size="11" lengthAdjust="spacing" textLength="118" x="682.3787" y="622.2104">-String reservationID</text><text fill="#000000" font-family="sans-serif" font-size="11" lengthAdjust="spacing" textLength="119" x="682.3787" y="635.0151">-Integer parkingLotID</text><text fill="#000000" font-family="sans-serif" font-size="11" lengthAdjust="spacing" textLength="99" x="682.3787" y="647.8198">-Bool isCancelled</text><text fill="#000000" font-family="sans-serif" font-size="11" lengthAdjust="spacing" textLength="119" x="682.3787" y="660.6245">-DateTime startTime</text><text fill="#000000" font-family="sans-serif" font-size="11" lengthAdjust="spacing" textLength="80" x="682.3787" y="673.4292">-Integer hours</text><text fill="#000000" font-family="sans-serif" font-size="11" lengthAdjust="spacing" textLength="106" x="682.3787" y="686.2339">-Decimal finalPrice</text><text fill="#000000" font-family="sans-serif" font-size="11" lengthAdjust="spacing" textLength="116" x="682.3787" y="699.0386">-DateTime endTime</text><text fill="#000000" font-family="sans-serif" font-size="11" lengthAdjust="spacing" textLength="120" x="682.3787" y="711.8433">-String parkingSpotID</text><!--MD5=[fb8abcba997ae1230b9c9724df09fbba]
class CentralReservation--><rect codeLine="65" fill="#FEFECE" filter="url(#fq62le19o16vf)" height="168.0469" id="CentralReservation" style="stroke:#A80036;stroke-width:1.5;" width="172" x="260.3787" y="331"/><ellipse cx="287.5287" cy="347" fill="#ADD1B2" rx="11" ry="11" style="stroke:#A80036;stroke-width:1.0;"/><path d="M289.8724,342.6719 C288.9349,342.2344 288.3412,342.0938 287.4662,342.0938 C284.8412,342.0938 282.8412,344.1719 282.8412,346.8906 L282.8412,348.0156 C282.8412,350.5938 284.9506,352.4844 287.8412,352.4844 C289.0599,352.4844 290.2162,352.1875 290.9662,351.6406 C291.5443,351.2344 291.8724,350.7813 291.8724,350.3906 C291.8724,349.9375 291.4818,349.5469 291.0131,349.5469 C290.7943,349.5469 290.5912,349.625 290.4037,349.8125 C289.9506,350.2969 289.9506,350.2969 289.7631,350.3906 C289.3412,350.6563 288.6537,350.7813 287.8881,350.7813 C285.8412,350.7813 284.5443,349.6875 284.5443,347.9844 L284.5443,346.8906 C284.5443,345.1094 285.7943,343.7969 287.5287,343.7969 C288.1068,343.7969 288.7162,343.9531 289.1849,344.2031 C289.6693,344.4844 289.8412,344.7031 289.9349,345.1094 C289.9974,345.5156 290.0287,345.6406 290.1693,345.7656 C290.3099,345.9063 290.5443,346.0156 290.7631,346.0156 C291.0287,346.0156 291.2943,345.875 291.4662,345.6563 C291.5756,345.5 291.6068,345.3125 291.6068,344.8906 L291.6068,343.4688 C291.6068,343.0313 291.5912,342.9063 291.4974,342.75 C291.3412,342.4844 291.0599,342.3438 290.7631,342.3438 C290.4662,342.3438 290.2631,342.4375 290.0443,342.75 L289.8724,342.6719 Z " fill="#000000"/><text fill="#000000" font-family="sans-serif" font-size="12" lengthAdjust="spacing" textLength="113" x="304.2287" y="351.1543">CentralReservation</text><line style="stroke:#A80036;stroke-width:1.5;" x1="261.3787" x2="431.3787" y1="363" y2="363"/><text fill="#000000" font-family="sans-serif" font-size="11" lengthAdjust="spacing" textLength="160" x="266.3787" y="377.2104">-String centralReservationID</text><text fill="#000000" font-family="sans-serif" font-size="11" lengthAdjust="spacing" textLength="118" x="266.3787" y="390.0151">-String reservationID</text><text fill="#000000" font-family="sans-serif" font-size="11" lengthAdjust="spacing" textLength="119" x="266.3787" y="402.8198">-Integer parkingLotID</text><text fill="#000000" font-family="sans-serif" font-size="11" lengthAdjust="spacing" textLength="99" x="266.3787" y="415.6245">-Bool isCancelled</text><text fill="#000000" font-family="sans-serif" font-size="11" lengthAdjust="spacing" textLength="119" x="266.3787" y="428.4292">-DateTime startTime</text><text fill="#000000" font-family="sans-serif" font-size="11" lengthAdjust="spacing" textLength="80" x="266.3787" y="441.2339">-Integer hours</text><text fill="#000000" font-family="sans-serif" font-size="11" lengthAdjust="spacing" textLength="106" x="266.3787" y="454.0386">-Decimal finalPrice</text><text fill="#000000" font-family="sans-serif" font-size="11" lengthAdjust="spacing" textLength="116" x="266.3787" y="466.8433">-DateTime endTime</text><text fill="#000000" font-family="sans-serif" font-size="11" lengthAdjust="spacing" textLength="120" x="266.3787" y="479.6479">-String parkingSpotID</text><text fill="#000000" font-family="sans-serif" font-size="11" lengthAdjust="spacing" textLength="78" x="266.3787" y="492.4526">-String userID</text><!--MD5=[73af141fbddd6c75d0486fea917d5e23]
class SubLet--><rect codeLine="78" fill="#FEFECE" filter="url(#fq62le19o16vf)" height="142.4375" id="SubLet" style="stroke:#A80036;stroke-width:1.5;" width="130" x="194.3787" y="576"/><ellipse cx="235.0287" cy="592" fill="#ADD1B2" rx="11" ry="11" style="stroke:#A80036;stroke-width:1.0;"/><path d="M237.3725,587.6719 C236.435,587.2344 235.8412,587.0938 234.9662,587.0938 C232.3412,587.0938 230.3412,589.1719 230.3412,591.8906 L230.3412,593.0156 C230.3412,595.5938 232.4506,597.4844 235.3412,597.4844 C236.56,597.4844 237.7162,597.1875 238.4662,596.6406 C239.0443,596.2344 239.3725,595.7813 239.3725,595.3906 C239.3725,594.9375 238.9818,594.5469 238.5131,594.5469 C238.2943,594.5469 238.0912,594.625 237.9037,594.8125 C237.4506,595.2969 237.4506,595.2969 237.2631,595.3906 C236.8412,595.6563 236.1537,595.7813 235.3881,595.7813 C233.3412,595.7813 232.0443,594.6875 232.0443,592.9844 L232.0443,591.8906 C232.0443,590.1094 233.2943,588.7969 235.0287,588.7969 C235.6068,588.7969 236.2162,588.9531 236.685,589.2031 C237.1693,589.4844 237.3412,589.7031 237.435,590.1094 C237.4975,590.5156 237.5287,590.6406 237.6693,590.7656 C237.81,590.9063 238.0443,591.0156 238.2631,591.0156 C238.5287,591.0156 238.7943,590.875 238.9662,590.6563 C239.0756,590.5 239.1068,590.3125 239.1068,589.8906 L239.1068,588.4688 C239.1068,588.0313 239.0912,587.9063 238.9975,587.75 C238.8412,587.4844 238.56,587.3438 238.2631,587.3438 C237.9662,587.3438 237.7631,587.4375 237.5443,587.75 L237.3725,587.6719 Z " fill="#000000"/><text fill="#000000" font-family="sans-serif" font-size="12" lengthAdjust="spacing" textLength="41" x="254.7287" y="596.1543">SubLet</text><line style="stroke:#A80036;stroke-width:1.5;" x1="195.3787" x2="323.3787" y1="608" y2="608"/><text fill="#000000" font-family="sans-serif" font-size="11" lengthAdjust="spacing" textLength="89" x="200.3787" y="622.2104">-string subLetID</text><text fill="#000000" font-family="sans-serif" font-size="11" lengthAdjust="spacing" textLength="118" x="200.3787" y="635.0151">-String reservationID</text><text fill="#000000" font-family="sans-serif" font-size="11" lengthAdjust="spacing" textLength="107" x="200.3787" y="647.8198">-String mainUserID</text><text fill="#000000" font-family="sans-serif" font-size="11" lengthAdjust="spacing" textLength="111" x="200.3787" y="660.6245">-decimal subUserID</text><text fill="#000000" font-family="sans-serif" font-size="11" lengthAdjust="spacing" textLength="97" x="200.3787" y="673.4292">-Decimal letPrice</text><text fill="#000000" font-family="sans-serif" font-size="11" lengthAdjust="spacing" textLength="118" x="200.3787" y="686.2339">-DateTime startDate</text><text fill="#000000" font-family="sans-serif" font-size="11" lengthAdjust="spacing" textLength="115" x="200.3787" y="699.0386">-DateTime endDate</text><text fill="#000000" font-family="sans-serif" font-size="11" lengthAdjust="spacing" textLength="99" x="200.3787" y="711.8433">-Bool isCancelled</text><!--MD5=[26f0febd34c91b660955df8321dabfdc]
link CentralAPI to AuthenticationServer--><path codeLine="90" d="M772.2677,47.253 C762.8157,66.218 749.1707,96.293 742.3787,124 C717.9547,223.634 716.5457,347.607 717.0087,394.668 " fill="none" id="CentralAPI-AuthenticationServer" style="stroke:#A80036;stroke-width:1.0;"/><polygon fill="#000000" points="746.5933,194.0043,750.9166,185.5332,745.1117,184.6099,746.5933,194.0043" style="stroke:#000000;stroke-width:1.0;"/><text fill="#000000" font-family="sans-serif" font-size="13" lengthAdjust="spacing" textLength="66" x="756.3787" y="193.5669">consumes</text><text fill="#000000" font-family="sans-serif" font-size="13" lengthAdjust="spacing" textLength="8" x="760.299" y="67.1441">1</text><text fill="#000000" font-family="sans-serif" font-size="13" lengthAdjust="spacing" textLength="23" x="690.6703" y="383.9258">1..*</text><!--MD5=[534cb6648375a4bfb2a3ca2f4af4d3e9]
link CentralAPI to User--><path codeLine="91" d="M736.6077,44.242 C711.3137,53.437 679.4237,65.392 651.3787,77 C581.0727,106.1 501.0437,143.306 452.3887,166.395 " fill="none" id="CentralAPI-User" style="stroke:#A80036;stroke-width:1.0;"/><polygon fill="#000000" points="651.785,87.5407,661.2556,86.6693,658.9346,81.269,651.785,87.5407" style="stroke:#000000;stroke-width:1.0;"/><text fill="#000000" font-family="sans-serif" font-size="13" lengthAdjust="spacing" textLength="23" x="665.3787" y="90.0669">has</text><text fill="#000000" font-family="sans-serif" font-size="13" lengthAdjust="spacing" textLength="8" x="720.9865" y="42.8108">1</text><text fill="#000000" font-family="sans-serif" font-size="13" lengthAdjust="spacing" textLength="23" x="460.3354" y="159.2223">1..*</text><!--MD5=[5330a8e1a812e04c3de296319145ed8d]
link CentralAPI to ParkingLotAPI--><path codeLine="92" d="M825.8707,47.1 C842.1397,55.204 860.3137,65.456 875.3787,77 C893.1157,90.592 910.4297,107.395 925.6457,123.778 " fill="none" id="CentralAPI-ParkingLotAPI" style="stroke:#A80036;stroke-width:1.0;"/><polygon fill="#000000" points="903.3432,88.6132,897.9622,80.7713,894.3805,85.4318,903.3432,88.6132" style="stroke:#000000;stroke-width:1.0;"/><text fill="#000000" font-family="sans-serif" font-size="13" lengthAdjust="spacing" textLength="23" x="908.3787" y="90.0669">has</text><text fill="#000000" font-family="sans-serif" font-size="13" lengthAdjust="spacing" textLength="8" x="828.9778" y="66.9481">1</text><text fill="#000000" font-family="sans-serif" font-size="13" lengthAdjust="spacing" textLength="27" x="891.4015" y="112.9183">1...*</text><!--MD5=[c85ffd4e5621576317ebedcd2c909b31]
link CentralAPI to Payment--><path codeLine="93" d="M794.5437,47.311 C805.5937,66.076 821.0957,95.793 827.3787,124 C843.4277,196.052 821.7117,486.28 813.3787,499 C771.2257,563.343 726.4637,540.205 658.3787,576 C641.0897,585.09 622.6757,595.285 605.5047,605.022 " fill="none" id="CentralAPI-Payment" style="stroke:#A80036;stroke-width:1.0;"/><polygon fill="#000000" points="835.7736,297.3018,841.4606,289.6789,835.8939,287.792,835.7736,297.3018" style="stroke:#000000;stroke-width:1.0;"/><text fill="#000000" font-family="sans-serif" font-size="13" lengthAdjust="spacing" textLength="23" x="846.3787" y="297.0669">has</text><text fill="#000000" font-family="sans-serif" font-size="13" lengthAdjust="spacing" textLength="8" x="788.8401" y="67.2184">1</text><text fill="#000000" font-family="sans-serif" font-size="13" lengthAdjust="spacing" textLength="27" x="613.4753" y="597.3689">1...*</text><!--MD5=[4378c9598307a6ae5946a797f1fa6f5d]
link ParkingLotAPI to ParkingSpot--><path codeLine="95" d="M976.0867,254.189 C974.9367,286.38 973.5547,325.058 972.4397,356.3 " fill="none" id="ParkingLotAPI-ParkingSpot" style="stroke:#A80036;stroke-width:1.0;"/><polygon fill="#000000" points="980.2002,297.5632,983.4601,288.6288,977.586,288.419,980.2002,297.5632" style="stroke:#000000;stroke-width:1.0;"/><text fill="#000000" font-family="sans-serif" font-size="13" lengthAdjust="spacing" textLength="23" x="989.3787" y="297.0669">has</text><text fill="#000000" font-family="sans-serif" font-size="13" lengthAdjust="spacing" textLength="8" x="967.4378" y="273.7777">1</text><text fill="#000000" font-family="sans-serif" font-size="13" lengthAdjust="spacing" textLength="27" x="944.0456" y="345.3173">1...*</text><!--MD5=[4dccc96e3e6c8a65718bd66cc267c1de]
link ParkingSpot to Reservation--><path codeLine="97" d="M933.7717,473.585 C917.3627,497.275 896.8747,524.209 875.3787,546 C855.2937,566.361 830.8527,585.929 808.4287,602.272 " fill="none" id="ParkingSpot-Reservation" style="stroke:#A80036;stroke-width:1.0;"/><polygon fill="#000000" points="891.89,541.1482,900.3064,536.7193,896.0958,532.6181,891.89,541.1482" style="stroke:#000000;stroke-width:1.0;"/><text fill="#000000" font-family="sans-serif" font-size="13" lengthAdjust="spacing" textLength="23" x="904.3787" y="542.0669">has</text><text fill="#000000" font-family="sans-serif" font-size="13" lengthAdjust="spacing" textLength="8" x="921.0765" y="493.3106">1</text><text fill="#000000" font-family="sans-serif" font-size="13" lengthAdjust="spacing" textLength="27" x="816.2594" y="594.1827">1...*</text><!--MD5=[9d91442b118d490fb05fc4fe813f703b]
link CentralReservation to Payment--><path codeLine="99" d="M414.6117,499.035 C442.9497,533.52 474.7097,572.17 498.5447,601.176 " fill="none" id="CentralReservation-Payment" style="stroke:#A80036;stroke-width:1.0;"/><polygon fill="#000000" points="460.5531,541.4295,457.0812,532.5753,452.5399,536.307,460.5531,541.4295" style="stroke:#000000;stroke-width:1.0;"/><text fill="#000000" font-family="sans-serif" font-size="13" lengthAdjust="spacing" textLength="30" x="466.3787" y="542.0669">uses</text><text fill="#000000" font-family="sans-serif" font-size="13" lengthAdjust="spacing" textLength="8" x="412.1317" y="518.9719">1</text><text fill="#000000" font-family="sans-serif" font-size="13" lengthAdjust="spacing" textLength="27" x="464.1519" y="590.4046">1...*</text><!--MD5=[ba0c0c7b826696b88dcd539663bdf030]
link CentralReservation to SubLet--><path codeLine="100" d="M314.9697,499.035 C305.4297,524.255 295.0477,551.703 285.8657,575.977 " fill="none" id="CentralReservation-SubLet" style="stroke:#A80036;stroke-width:1.0;"/><polygon fill="#000000" points="306.6097,542.243,312.5587,534.8227,307.061,532.7432,306.6097,542.243" style="stroke:#000000;stroke-width:1.0;"/><text fill="#000000" font-family="sans-serif" font-size="13" lengthAdjust="spacing" textLength="59" x="317.3787" y="542.0669">can have</text><text fill="#000000" font-family="sans-serif" font-size="13" lengthAdjust="spacing" textLength="8" x="303.9267" y="518.9719">1</text><text fill="#000000" font-family="sans-serif" font-size="13" lengthAdjust="spacing" textLength="27" x="260.205" y="564.9305">1...*</text><!--MD5=[4ba3d1b88a58eeb81cf0d14a9cb649dc]
link CentralReservation to QRcode--><path codeLine="101" d="M260.0117,487.198 C201.1177,535.749 127.3695,596.545 90.5445,626.9027 " fill="none" id="CentralReservation-QRcode" style="stroke:#A80036;stroke-width:1.0;"/><polygon fill="#000000" points="208.5207,540.7469,217.3694,537.261,213.6305,532.7256,208.5207,540.7469" style="stroke:#000000;stroke-width:1.0;"/><text fill="#000000" font-family="sans-serif" font-size="13" lengthAdjust="spacing" textLength="23" x="221.3787" y="542.0669">has</text><text fill="#000000" font-family="sans-serif" font-size="13" lengthAdjust="spacing" textLength="8" x="244.2458" y="489.8286">1</text><text fill="#000000" font-family="sans-serif" font-size="13" lengthAdjust="spacing" textLength="8" x="88.1745" y="615.8828">1</text><!--MD5=[a1a57288958f2c61f40a3e2e4bcadb5d]
link CentralReservation to Reservation--><path codeLine="102" d="M432.3897,489.95 C437.9737,493.275 443.6557,496.33 449.3787,499 C511.7787,528.116 539.1887,499.437 601.3787,529 C628.0957,541.701 654.0097,560.614 676.1777,579.551 " fill="none" id="CentralReservation-Reservation" style="stroke:#A80036;stroke-width:1.0;"/><polygon fill="#000000" points="638.0718,539.2913,630.5958,533.4124,628.5681,538.9295,638.0718,539.2913" style="stroke:#000000;stroke-width:1.0;"/><text fill="#000000" font-family="sans-serif" font-size="13" lengthAdjust="spacing" textLength="69" x="642.3787" y="542.0669">represents</text><text fill="#000000" font-family="sans-serif" font-size="13" lengthAdjust="spacing" textLength="8" x="440.4063" y="493.028">1</text><text fill="#000000" font-family="sans-serif" font-size="13" lengthAdjust="spacing" textLength="8" x="660.4995" y="568.4037">1</text><!--MD5=[020e123c329132fb266d5dca2d5fb08d]
link QRcode to User--><path codeLine="104" d="M60.8788,626.8928 C44.2914,574.372 6,425.46 69.3787,331 C135.8897,231.871 286.6437,202.304 362.2987,193.584 " fill="none" id="QRcode-User" style="stroke:#A80036;stroke-width:1.0;"/><polygon fill="#000000" points="77.2339,410.9618,69.6561,416.7088,74.4814,420.0654,77.2339,410.9618" style="stroke:#000000;stroke-width:1.0;"/><text fill="#000000" font-family="sans-serif" font-size="13" lengthAdjust="spacing" textLength="87" x="83.3787" y="419.5669">sent by email</text><text fill="#000000" font-family="sans-serif" font-size="13" lengthAdjust="spacing" textLength="23" x="32.5913" y="615.8698">1..*</text><text fill="#000000" font-family="sans-serif" font-size="13" lengthAdjust="spacing" textLength="8" x="346.4766" y="190.1793">1</text><!--MD5=[bfbfc56e1ef1b13098746eff9ca40749]
link Wallet to Payment--><path codeLine="106" d="M535.3787,460.619 C535.3787,501.116 535.3787,560.533 535.3787,601.113 " fill="none" id="Wallet-Payment" style="stroke:#A80036;stroke-width:1.0;"/><polygon fill="#000000" points="540.3787,542.5664,543.3176,533.5213,537.4398,533.5213,540.3787,542.5664" style="stroke:#000000;stroke-width:1.0;"/><text fill="#000000" font-family="sans-serif" font-size="13" lengthAdjust="spacing" textLength="43" x="549.3787" y="542.0669">makes</text><text fill="#000000" font-family="sans-serif" font-size="13" lengthAdjust="spacing" textLength="8" x="526.7662" y="480.8132">1</text><text fill="#000000" font-family="sans-serif" font-size="13" lengthAdjust="spacing" textLength="27" x="506.3959" y="590.3324">1...*</text><!--MD5=[993a1ed30139d6bc9fd462e29443e622]
link User to User--><path codeLine="108" d="M452.6117,170.043 C471.4277,168.736 487.3787,175.055 487.3787,189 C487.3787,202.945 471.4277,209.264 452.6117,207.957 " fill="none" id="User-User" style="stroke:#A80036;stroke-width:1.0;"/><polygon fill="#000000" points="492.0322,194.0544,495.5909,185.2347,489.7271,184.8274,492.0322,194.0544" style="stroke:#000000;stroke-width:1.0;"/><text fill="#000000" font-family="sans-serif" font-size="13" lengthAdjust="spacing" textLength="46" x="506.3787" y="193.5669">sublets</text><text fill="#000000" font-family="sans-serif" font-size="13" lengthAdjust="spacing" textLength="8" x="460.4582" y="180.2771">1</text><text fill="#000000" font-family="sans-serif" font-size="13" lengthAdjust="spacing" textLength="23" x="460.2352" y="206.5577">1..*</text><!--MD5=[438065722335a144b512313feb973302]
link User to SubLet--><path codeLine="109" d="M361.9897,206.623 C312.9447,227.332 237.3887,267.879 204.3787,331 C160.0837,415.698 182.5217,454.269 209.3787,546 C212.2967,555.966 216.1787,566.134 220.4947,575.985 " fill="none" id="User-SubLet" style="stroke:#A80036;stroke-width:1.0;"/><polygon fill="#000000" points="207.5901,419.7355,213.5702,412.3403,208.0813,410.2377,207.5901,419.7355" style="stroke:#000000;stroke-width:1.0;"/><text fill="#000000" font-family="sans-serif" font-size="13" lengthAdjust="spacing" textLength="23" x="218.3787" y="419.5669">has</text><text fill="#000000" font-family="sans-serif" font-size="13" lengthAdjust="spacing" textLength="8" x="346.427" y="222.5303">1</text><text fill="#000000" font-family="sans-serif" font-size="13" lengthAdjust="spacing" textLength="23" x="192.2989" y="564.9393">1..*</text><!--MD5=[f3aec6e8e28a9d08c7133ba4315b186b]
link User to AuthenticationServer--><path codeLine="110" d="M452.5297,217.618 C496.4147,244.984 564.4397,288.804 620.3787,331 C647.6277,351.555 677.1947,377.415 696.4307,394.76 " fill="none" id="User-AuthenticationServer" style="stroke:#A80036;stroke-width:1.0;"/><polygon fill="#000000" points="584.4243,295.5047,578.8328,287.8114,575.3787,292.5672,584.4243,295.5047" style="stroke:#000000;stroke-width:1.0;"/><text fill="#000000" font-family="sans-serif" font-size="13" lengthAdjust="spacing" textLength="88" x="589.3787" y="297.0669">authenticates</text><text fill="#000000" font-family="sans-serif" font-size="13" lengthAdjust="spacing" textLength="8" x="460.3631" y="235.4344">1</text><text fill="#000000" font-family="sans-serif" font-size="13" lengthAdjust="spacing" textLength="23" x="664.3047" y="384.0437">1..*</text><!--MD5=[0d1e0cbc68f03eb6cef8e35198aaaed9]
link User to CentralReservation--><path codeLine="111" d="M381.0297,234.562 C373.1537,249.772 365.3117,267.193 360.3787,284 C355.9997,298.92 352.9617,315.164 350.8607,330.954 " fill="none" id="User-CentralReservation" style="stroke:#A80036;stroke-width:1.0;"/><polygon fill="#000000" points="363.8852,297.3382,369.3917,289.5838,363.7822,287.8281,363.8852,297.3382" style="stroke:#000000;stroke-width:1.0;"/><text fill="#000000" font-family="sans-serif" font-size="13" lengthAdjust="spacing" textLength="43" x="374.3787" y="297.0669">makes</text><text fill="#000000" font-family="sans-serif" font-size="13" lengthAdjust="spacing" textLength="8" x="368.3825" y="254.7474">1</text><text fill="#000000" font-family="sans-serif" font-size="13" lengthAdjust="spacing" textLength="23" x="327.2357" y="319.8714">1..*</text><!--MD5=[c6100b592e29ab2a9436cfea8d37588a]
link User to Wallet--><path codeLine="112" d="M432.8207,234.523 C455.1297,273.565 487.4057,330.048 509.7667,369.178 " fill="none" id="User-Wallet" style="stroke:#A80036;stroke-width:1.0;"/><polygon fill="#000000" points="475.8594,296.9076,473.9235,287.5962,468.8201,290.5124,475.8594,296.9076" style="stroke:#000000;stroke-width:1.0;"/><text fill="#000000" font-family="sans-serif" font-size="13" lengthAdjust="spacing" textLength="23" x="482.3787" y="297.0669">has</text><text fill="#000000" font-family="sans-serif" font-size="13" lengthAdjust="spacing" textLength="8" x="428.104" y="254.7025">1</text><text fill="#000000" font-family="sans-serif" font-size="13" lengthAdjust="spacing" textLength="8" x="497.4174" y="358.4069">1</text><!--MD5=[00d0ff1e8ac4449f64e2bdd9046eb631]
@startuml
skinparam classAttributeIconSize 0
hide methods
top to bottom direction

class CentralAPI{
}

class AuthenticationServer{
}

class Payment{
  -String paymentID
  -Decimal finalPrice
  -DateTime timeStamp
  -String userID
}

class QRcode{
}

class User {
  -String userID
  -String name	
  -String nif
  -String email
}

class Wallet {
  -String walletID
  -Decimal totalAmount
  -String currency
  -String userID
}

class ParkingLotAPI{
  -Integer parkingLotID
  -String name
  -String companyOwner
  -String location
  -Integer capacity
  -DateTime openingTime
  -DateTime closingTime
}

class ParkingSpot {
  -String parkingSpotID
  -Decimal priceHour
  -String floor*
  -Bool isPrivate*
  -Bool isCovered*
  -Integer parkingLotID
}

class Reservation {
  -String reservationID
  -Integer parkingLotID
  -Bool isCancelled  
  -DateTime startTime
  -Integer hours
  -Decimal finalPrice
  -DateTime endTime
  -String parkingSpotID
}

class CentralReservation {
  -String centralReservationID
  -String reservationID
  -Integer parkingLotID
  -Bool isCancelled  
  -DateTime startTime
  -Integer hours
  -Decimal finalPrice
  -DateTime endTime
  -String parkingSpotID
  -String userID
}

class SubLet {
  -string subLetID
  -String reservationID
  -String mainUserID
  -decimal subUserID
  -Decimal letPrice
  -DateTime startDate
  -DateTime endDate
  -Bool isCancelled
}


CentralAPI "1" - - "1..*" AuthenticationServer : consumes >
CentralAPI "1" - - "1..*" User : has >
CentralAPI "1" - - "1...*" ParkingLotAPI : has >
CentralAPI "1" - - "1...*" Payment : has >

ParkingLotAPI "1" - - "1...*" ParkingSpot : has >

ParkingSpot "1" - - "1...*" Reservation : has >

CentralReservation "1" - - "1...*" Payment : uses >
CentralReservation "1" - - "1...*" SubLet : can have >
CentralReservation "1" - - "1" QRcode : has >
CentralReservation "1" - - "1" Reservation : represents >

QRcode "1..*" - - "1" User : sent by email >

Wallet "1" - - "1...*" Payment : makes >

User "1" - - "1..*" User: sublets >
User "1" - - "1..*" SubLet: has >
User "1" - - "1..*" AuthenticationServer : authenticates >
User "1" - - "1..*" CentralReservation : makes >
User "1" - - "1" Wallet : has >
@enduml

PlantUML version 1.2021.2beta6(Unknown compile time)
(GPL source distribution)
Java Runtime: Java(TM) SE Runtime Environment
JVM: Java HotSpot(TM) 64-Bit Server VM
Default Encoding: UTF-8
Language: en
Country: US
--></g></svg>