<?xml version="1.0" encoding="UTF-8" standalone="no"?><svg xmlns="http://www.w3.org/2000/svg" xmlns:xlink="http://www.w3.org/1999/xlink" contentScriptType="application/ecmascript" contentStyleType="text/css" height="367px" preserveAspectRatio="none" style="width:483px;height:367px;" version="1.1" viewBox="0 0 483 367" width="483px" zoomAndPan="magnify"><defs><filter height="300%" id="fidsdz84y09l1" width="300%" x="-1" y="-1"><feGaussianBlur result="blurOut" stdDeviation="2.0"/><feColorMatrix in="blurOut" result="blurOut2" type="matrix" values="0 0 0 0 0 0 0 0 0 0 0 0 0 0 0 0 0 0 .4 0"/><feOffset dx="4.0" dy="4.0" in="blurOut2" result="blurOut3"/><feBlend in="SourceGraphic" in2="blurOut3" mode="normal"/></filter></defs><g><rect fill="#FFFFFF" filter="url(#fidsdz84y09l1)" height="166.7969" style="stroke:#A80036;stroke-width:1.0;" width="10" x="18" y="98.2969"/><rect fill="#FFFFFF" filter="url(#fidsdz84y09l1)" height="29.1328" style="stroke:#A80036;stroke-width:1.0;" width="10" x="425" y="119.4297"/><rect fill="#FFFFFF" filter="url(#fidsdz84y09l1)" height="29.1328" style="stroke:#A80036;stroke-width:1.0;" width="10" x="425" y="177.6953"/><rect fill="#FFFFFF" filter="url(#fidsdz84y09l1)" height="29.1328" style="stroke:#A80036;stroke-width:1.0;" width="10" x="425" y="235.9609"/><line style="stroke:#A80036;stroke-width:1.0;stroke-dasharray:5.0,5.0;" x1="23" x2="23" y1="88.2969" y2="283.0938"/><line style="stroke:#A80036;stroke-width:1.0;stroke-dasharray:5.0,5.0;" x1="430" x2="430" y1="88.2969" y2="283.0938"/><text fill="#000000" font-family="sans-serif" font-size="14" lengthAdjust="spacing" textLength="30" x="5" y="84.9951">user</text><ellipse cx="23" cy="15" fill="#FEFECE" filter="url(#fidsdz84y09l1)" rx="8" ry="8" style="stroke:#A80036;stroke-width:2.0;"/><path d="M23,23 L23,50 M10,31 L36,31 M23,50 L10,65 M23,50 L36,65 " fill="none" filter="url(#fidsdz84y09l1)" style="stroke:#A80036;stroke-width:2.0;"/><text fill="#000000" font-family="sans-serif" font-size="14" lengthAdjust="spacing" textLength="30" x="5" y="295.0889">user</text><ellipse cx="23" cy="308.3906" fill="#FEFECE" filter="url(#fidsdz84y09l1)" rx="8" ry="8" style="stroke:#A80036;stroke-width:2.0;"/><path d="M23,316.3906 L23,343.3906 M10,324.3906 L36,324.3906 M23,343.3906 L10,358.3906 M23,343.3906 L36,358.3906 " fill="none" filter="url(#fidsdz84y09l1)" style="stroke:#A80036;stroke-width:2.0;"/><rect fill="#FEFECE" filter="url(#fidsdz84y09l1)" height="30.2969" style="stroke:#A80036;stroke-width:1.5;" width="82" x="387" y="53"/><text fill="#000000" font-family="sans-serif" font-size="14" lengthAdjust="spacing" textLength="68" x="394" y="72.9951">:Platform</text><rect fill="#FEFECE" filter="url(#fidsdz84y09l1)" height="30.2969" style="stroke:#A80036;stroke-width:1.5;" width="82" x="387" y="282.0938"/><text fill="#000000" font-family="sans-serif" font-size="14" lengthAdjust="spacing" textLength="68" x="394" y="302.0889">:Platform</text><rect fill="#FFFFFF" filter="url(#fidsdz84y09l1)" height="166.7969" style="stroke:#A80036;stroke-width:1.0;" width="10" x="18" y="98.2969"/><rect fill="#FFFFFF" filter="url(#fidsdz84y09l1)" height="29.1328" style="stroke:#A80036;stroke-width:1.0;" width="10" x="425" y="119.4297"/><rect fill="#FFFFFF" filter="url(#fidsdz84y09l1)" height="29.1328" style="stroke:#A80036;stroke-width:1.0;" width="10" x="425" y="177.6953"/><rect fill="#FFFFFF" filter="url(#fidsdz84y09l1)" height="29.1328" style="stroke:#A80036;stroke-width:1.0;" width="10" x="425" y="235.9609"/><polygon fill="#A80036" points="413,115.4297,423,119.4297,413,123.4297,417,119.4297" style="stroke:#A80036;stroke-width:1.0;"/><line style="stroke:#A80036;stroke-width:1.0;" x1="28" x2="419" y1="119.4297" y2="119.4297"/><text fill="#000000" font-family="sans-serif" font-size="13" font-weight="bold" lengthAdjust="spacing" textLength="9" x="35" y="114.3638">1</text><text fill="#000000" font-family="sans-serif" font-size="13" lengthAdjust="spacing" textLength="241" x="48" y="114.3638">informs the platform he wants to pay</text><polygon fill="#A80036" points="39,144.5625,29,148.5625,39,152.5625,35,148.5625" style="stroke:#A80036;stroke-width:1.0;"/><line style="stroke:#A80036;stroke-width:1.0;stroke-dasharray:2.0,2.0;" x1="33" x2="429" y1="148.5625" y2="148.5625"/><text fill="#000000" font-family="sans-serif" font-size="13" font-weight="bold" lengthAdjust="spacing" textLength="9" x="45" y="143.4966">2</text><text fill="#000000" font-family="sans-serif" font-size="13" lengthAdjust="spacing" textLength="360" x="58" y="143.4966">shows him the full price and asks how he intends to pay</text><polygon fill="#A80036" points="413,173.6953,423,177.6953,413,181.6953,417,177.6953" style="stroke:#A80036;stroke-width:1.0;"/><line style="stroke:#A80036;stroke-width:1.0;" x1="28" x2="419" y1="177.6953" y2="177.6953"/><text fill="#000000" font-family="sans-serif" font-size="13" font-weight="bold" lengthAdjust="spacing" textLength="8" x="35" y="172.6294">3</text><text fill="#000000" font-family="sans-serif" font-size="13" lengthAdjust="spacing" textLength="173" x="47" y="172.6294">choses a payment method</text><polygon fill="#A80036" points="39,202.8281,29,206.8281,39,210.8281,35,206.8281" style="stroke:#A80036;stroke-width:1.0;"/><line style="stroke:#A80036;stroke-width:1.0;stroke-dasharray:2.0,2.0;" x1="33" x2="429" y1="206.8281" y2="206.8281"/><text fill="#000000" font-family="sans-serif" font-size="13" font-weight="bold" lengthAdjust="spacing" textLength="9" x="45" y="201.7622">4</text><text fill="#000000" font-family="sans-serif" font-size="13" lengthAdjust="spacing" textLength="358" x="58" y="201.7622">confirms the payment method and asks for user details</text><polygon fill="#A80036" points="413,231.9609,423,235.9609,413,239.9609,417,235.9609" style="stroke:#A80036;stroke-width:1.0;"/><line style="stroke:#A80036;stroke-width:1.0;" x1="28" x2="419" y1="235.9609" y2="235.9609"/><text fill="#000000" font-family="sans-serif" font-size="13" font-weight="bold" lengthAdjust="spacing" textLength="9" x="35" y="230.895">5</text><text fill="#000000" font-family="sans-serif" font-size="13" lengthAdjust="spacing" textLength="98" x="48" y="230.895">inserts his data</text><polygon fill="#A80036" points="34,261.0938,24,265.0938,34,269.0938,30,265.0938" style="stroke:#A80036;stroke-width:1.0;"/><line style="stroke:#A80036;stroke-width:1.0;stroke-dasharray:2.0,2.0;" x1="28" x2="429" y1="265.0938" y2="265.0938"/><text fill="#000000" font-family="sans-serif" font-size="13" font-weight="bold" lengthAdjust="spacing" textLength="9" x="40" y="260.0278">6</text><text fill="#000000" font-family="sans-serif" font-size="13" lengthAdjust="spacing" textLength="358" x="53" y="260.0278">confirms the payment and the success of the operation</text><!--MD5=[48f7b6ed5ef435a0d25dff73d3439c04]
@startuml
autonumber
actor "user" as USER

activate USER
USER -> ":Platform" : informs the platform he wants to pay
activate ":Platform"
":Platform" - -> USER : shows him the full price and asks how he intends to pay
deactivate ":Platform"

USER -> ":Platform" : choses a payment method
activate ":Platform"
":Platform" - -> USER : confirms the payment method and asks for user details
deactivate ":Platform"

USER -> ":Platform" : inserts his data
activate ":Platform"
":Platform" - -> USER :  confirms the payment and the success of the operation
deactivate ":Platform"

deactivate USER
@enduml

PlantUML version 1.2021.01beta3(Unknown compile time)
(GPL source distribution)
Java Runtime: Java(TM) SE Runtime Environment
JVM: Java HotSpot(TM) 64-Bit Server VM
Default Encoding: UTF-8
Language: en
Country: US
--></g></svg>