<?xml version="1.0" encoding="UTF-8" standalone="no"?>
<svg xmlns="http://www.w3.org/2000/svg" xmlns:xlink="http://www.w3.org/1999/xlink" contentScriptType="application/ecmascript" contentStyleType="text/css" height="483px" preserveAspectRatio="none" style="width:531px;height:483px;" version="1.1" viewBox="0 0 531 483" width="531px" zoomAndPan="magnify"><defs><filter height="300%" id="fyptk4hbwd9oy" width="300%" x="-1" y="-1"><feGaussianBlur result="blurOut" stdDeviation="2.0"/><feColorMatrix in="blurOut" result="blurOut2" type="matrix" values="0 0 0 0 0 0 0 0 0 0 0 0 0 0 0 0 0 0 .4 0"/><feOffset dx="4.0" dy="4.0" in="blurOut2" result="blurOut3"/><feBlend in="SourceGraphic" in2="blurOut3" mode="normal"/></filter></defs><g><rect fill="#FFFFFF" filter="url(#fyptk4hbwd9oy)" height="283.3281" style="stroke:#A80036;stroke-width:1.0;" width="10" x="18" y="98.2969"/><rect fill="#FFFFFF" filter="url(#fyptk4hbwd9oy)" height="29.1328" style="stroke:#A80036;stroke-width:1.0;" width="10" x="473" y="119.4297"/><rect fill="#FFFFFF" filter="url(#fyptk4hbwd9oy)" height="29.1328" style="stroke:#A80036;stroke-width:1.0;" width="10" x="473" y="177.6953"/><rect fill="#FFFFFF" filter="url(#fyptk4hbwd9oy)" height="29.1328" style="stroke:#A80036;stroke-width:1.0;" width="10" x="473" y="235.9609"/><rect fill="#FFFFFF" filter="url(#fyptk4hbwd9oy)" height="29.1328" style="stroke:#A80036;stroke-width:1.0;" width="10" x="473" y="294.2266"/><rect fill="#FFFFFF" filter="url(#fyptk4hbwd9oy)" height="29.1328" style="stroke:#A80036;stroke-width:1.0;" width="10" x="473" y="352.4922"/><line style="stroke:#A80036;stroke-width:1.0;stroke-dasharray:5.0,5.0;" x1="23" x2="23" y1="88.2969" y2="399.625"/><line style="stroke:#A80036;stroke-width:1.0;stroke-dasharray:5.0,5.0;" x1="478" x2="478" y1="88.2969" y2="399.625"/><text fill="#000000" font-family="sans-serif" font-size="14" lengthAdjust="spacing" textLength="30" x="5" y="84.9951">user</text><ellipse cx="23" cy="15" fill="#FEFECE" filter="url(#fyptk4hbwd9oy)" rx="8" ry="8" style="stroke:#A80036;stroke-width:2.0;"/><path d="M23,23 L23,50 M10,31 L36,31 M23,50 L10,65 M23,50 L36,65 " fill="none" filter="url(#fyptk4hbwd9oy)" style="stroke:#A80036;stroke-width:2.0;"/><text fill="#000000" font-family="sans-serif" font-size="14" lengthAdjust="spacing" textLength="30" x="5" y="411.6201">user</text><ellipse cx="23" cy="424.9219" fill="#FEFECE" filter="url(#fyptk4hbwd9oy)" rx="8" ry="8" style="stroke:#A80036;stroke-width:2.0;"/><path d="M23,432.9219 L23,459.9219 M10,440.9219 L36,440.9219 M23,459.9219 L10,474.9219 M23,459.9219 L36,474.9219 " fill="none" filter="url(#fyptk4hbwd9oy)" style="stroke:#A80036;stroke-width:2.0;"/><rect fill="#FEFECE" filter="url(#fyptk4hbwd9oy)" height="30.2969" style="stroke:#A80036;stroke-width:1.5;" width="82" x="435" y="53"/><text fill="#000000" font-family="sans-serif" font-size="14" lengthAdjust="spacing" textLength="68" x="442" y="72.9951">:Platform</text><rect fill="#FEFECE" filter="url(#fyptk4hbwd9oy)" height="30.2969" style="stroke:#A80036;stroke-width:1.5;" width="82" x="435" y="398.625"/><text fill="#000000" font-family="sans-serif" font-size="14" lengthAdjust="spacing" textLength="68" x="442" y="418.6201">:Platform</text><rect fill="#FFFFFF" filter="url(#fyptk4hbwd9oy)" height="283.3281" style="stroke:#A80036;stroke-width:1.0;" width="10" x="18" y="98.2969"/><rect fill="#FFFFFF" filter="url(#fyptk4hbwd9oy)" height="29.1328" style="stroke:#A80036;stroke-width:1.0;" width="10" x="473" y="119.4297"/><rect fill="#FFFFFF" filter="url(#fyptk4hbwd9oy)" height="29.1328" style="stroke:#A80036;stroke-width:1.0;" width="10" x="473" y="177.6953"/><rect fill="#FFFFFF" filter="url(#fyptk4hbwd9oy)" height="29.1328" style="stroke:#A80036;stroke-width:1.0;" width="10" x="473" y="235.9609"/><rect fill="#FFFFFF" filter="url(#fyptk4hbwd9oy)" height="29.1328" style="stroke:#A80036;stroke-width:1.0;" width="10" x="473" y="294.2266"/><rect fill="#FFFFFF" filter="url(#fyptk4hbwd9oy)" height="29.1328" style="stroke:#A80036;stroke-width:1.0;" width="10" x="473" y="352.4922"/><polygon fill="#A80036" points="461,115.4297,471,119.4297,461,123.4297,465,119.4297" style="stroke:#A80036;stroke-width:1.0;"/><line style="stroke:#A80036;stroke-width:1.0;" x1="28" x2="467" y1="119.4297" y2="119.4297"/><text fill="#000000" font-family="sans-serif" font-size="13" font-weight="bold" lengthAdjust="spacing" textLength="9" x="35" y="114.3638">1</text><text fill="#000000" font-family="sans-serif" font-size="13" lengthAdjust="spacing" textLength="258" x="48" y="114.3638">asks to be authenticated in the Platform</text><polygon fill="#A80036" points="39,144.5625,29,148.5625,39,152.5625,35,148.5625" style="stroke:#A80036;stroke-width:1.0;"/><line style="stroke:#A80036;stroke-width:1.0;stroke-dasharray:2.0,2.0;" x1="33" x2="477" y1="148.5625" y2="148.5625"/><text fill="#000000" font-family="sans-serif" font-size="13" font-weight="bold" lengthAdjust="spacing" textLength="9" x="45" y="143.4966">2</text><text fill="#000000" font-family="sans-serif" font-size="13" lengthAdjust="spacing" textLength="184" x="58" y="143.4966">confirms user authentication</text><polygon fill="#A80036" points="461,173.6953,471,177.6953,461,181.6953,465,177.6953" style="stroke:#A80036;stroke-width:1.0;"/><line style="stroke:#A80036;stroke-width:1.0;" x1="28" x2="467" y1="177.6953" y2="177.6953"/><text fill="#000000" font-family="sans-serif" font-size="13" font-weight="bold" lengthAdjust="spacing" textLength="8" x="35" y="172.6294">3</text><text fill="#000000" font-family="sans-serif" font-size="13" lengthAdjust="spacing" textLength="265" x="47" y="172.6294">access platform to check user dashboard</text><polygon fill="#A80036" points="39,202.8281,29,206.8281,39,210.8281,35,206.8281" style="stroke:#A80036;stroke-width:1.0;"/><line style="stroke:#A80036;stroke-width:1.0;stroke-dasharray:2.0,2.0;" x1="33" x2="477" y1="206.8281" y2="206.8281"/><text fill="#000000" font-family="sans-serif" font-size="13" font-weight="bold" lengthAdjust="spacing" textLength="9" x="45" y="201.7622">4</text><text fill="#000000" font-family="sans-serif" font-size="13" lengthAdjust="spacing" textLength="310" x="58" y="201.7622">asks the user if he wants to Read, Edit or Delete</text><polygon fill="#A80036" points="461,231.9609,471,235.9609,461,239.9609,465,235.9609" style="stroke:#A80036;stroke-width:1.0;"/><line style="stroke:#A80036;stroke-width:1.0;" x1="28" x2="467" y1="235.9609" y2="235.9609"/><text fill="#000000" font-family="sans-serif" font-size="13" font-weight="bold" lengthAdjust="spacing" textLength="9" x="35" y="230.895">5</text><text fill="#000000" font-family="sans-serif" font-size="13" lengthAdjust="spacing" textLength="262" x="48" y="230.895">chooses to read, edit or delete his profile</text><polygon fill="#A80036" points="39,261.0938,29,265.0938,39,269.0938,35,265.0938" style="stroke:#A80036;stroke-width:1.0;"/><line style="stroke:#A80036;stroke-width:1.0;stroke-dasharray:2.0,2.0;" x1="33" x2="477" y1="265.0938" y2="265.0938"/><text fill="#000000" font-family="sans-serif" font-size="13" font-weight="bold" lengthAdjust="spacing" textLength="9" x="45" y="260.0278">6</text><text fill="#000000" font-family="sans-serif" font-size="13" lengthAdjust="spacing" textLength="345" x="58" y="260.0278">asks the user about his details (Name, NIF, and email)</text><polygon fill="#A80036" points="461,290.2266,471,294.2266,461,298.2266,465,294.2266" style="stroke:#A80036;stroke-width:1.0;"/><line style="stroke:#A80036;stroke-width:1.0;" x1="28" x2="467" y1="294.2266" y2="294.2266"/><text fill="#000000" font-family="sans-serif" font-size="13" font-weight="bold" lengthAdjust="spacing" textLength="9" x="35" y="289.1606">7</text><text fill="#000000" font-family="sans-serif" font-size="13" lengthAdjust="spacing" textLength="154" x="48" y="289.1606">inserts the request data</text><polygon fill="#A80036" points="39,319.3594,29,323.3594,39,327.3594,35,323.3594" style="stroke:#A80036;stroke-width:1.0;"/><line style="stroke:#A80036;stroke-width:1.0;stroke-dasharray:2.0,2.0;" x1="33" x2="477" y1="323.3594" y2="323.3594"/><text fill="#000000" font-family="sans-serif" font-size="13" font-weight="bold" lengthAdjust="spacing" textLength="9" x="45" y="318.2935">8</text><text fill="#000000" font-family="sans-serif" font-size="13" lengthAdjust="spacing" textLength="282" x="58" y="318.2935">shows the data and asking him to confirm it</text><polygon fill="#A80036" points="461,348.4922,471,352.4922,461,356.4922,465,352.4922" style="stroke:#A80036;stroke-width:1.0;"/><line style="stroke:#A80036;stroke-width:1.0;" x1="28" x2="467" y1="352.4922" y2="352.4922"/><text fill="#000000" font-family="sans-serif" font-size="13" font-weight="bold" lengthAdjust="spacing" textLength="9" x="35" y="347.4263">9</text><text fill="#000000" font-family="sans-serif" font-size="13" lengthAdjust="spacing" textLength="68" x="48" y="347.4263">confirms it</text><polygon fill="#A80036" points="34,377.625,24,381.625,34,385.625,30,381.625" style="stroke:#A80036;stroke-width:1.0;"/><line style="stroke:#A80036;stroke-width:1.0;stroke-dasharray:2.0,2.0;" x1="28" x2="477" y1="381.625" y2="381.625"/><text fill="#000000" font-family="sans-serif" font-size="13" font-weight="bold" lengthAdjust="spacing" textLength="19" x="40" y="376.5591">10</text><text fill="#000000" font-family="sans-serif" font-size="13" lengthAdjust="spacing" textLength="398" x="63" y="376.5591">saves the data and informs that the operation was successful</text><!--MD5=[171920589d7d6f357a897dc8959780ac]
@startuml
autonumber
actor "user" as USER

activate USER
USER -> ":Platform" : asks to be authenticated in the Platform
activate ":Platform"
":Platform" - -> USER : confirms user authentication
deactivate ":Platform"

USER -> ":Platform" : access platform to check user dashboard
activate ":Platform"
":Platform" - -> USER : asks the user if he wants to Read, Edit or Delete
deactivate ":Platform"

USER -> ":Platform" : chooses to read, edit or delete his profile
activate ":Platform"
":Platform" - -> USER : asks the user about his details (Name, NIF, and email)
deactivate ":Platform"

USER -> ":Platform" : inserts the request data
activate ":Platform"
":Platform" - -> USER : shows the data and asking him to confirm it
deactivate ":Platform"


USER -> ":Platform" : confirms it
activate ":Platform"
":Platform" - -> USER :  saves the data and informs that the operation was successful
deactivate ":Platform"

deactivate USER
@enduml

PlantUML version 1.2021.01beta7(Unknown compile time)
(GPL source distribution)
Java Runtime: Java(TM) SE Runtime Environment
JVM: Java HotSpot(TM) 64-Bit Server VM
Default Encoding: UTF-8
Language: en
Country: US
--></g></svg>