<?xml version="1.0" encoding="UTF-8" standalone="no"?>
<svg xmlns="http://www.w3.org/2000/svg" xmlns:xlink="http://www.w3.org/1999/xlink" contentScriptType="application/ecmascript" contentStyleType="text/css" height="1122px" preserveAspectRatio="none" style="width:990px;height:1122px;" version="1.1" viewBox="0 0 990 1122" width="990px" zoomAndPan="magnify"><defs><filter height="300%" id="fkcc4rqhdtkvy" width="300%" x="-1" y="-1"><feGaussianBlur result="blurOut" stdDeviation="2.0"/><feColorMatrix in="blurOut" result="blurOut2" type="matrix" values="0 0 0 0 0 0 0 0 0 0 0 0 0 0 0 0 0 0 .4 0"/><feOffset dx="4.0" dy="4.0" in="blurOut2" result="blurOut3"/><feBlend in="SourceGraphic" in2="blurOut3" mode="normal"/></filter></defs><g><!--MD5=[99b8db98afdc2c8404e39242ef4c1e65]
class Platform--><rect codeLine="5" fill="#FEFECE" filter="url(#fkcc4rqhdtkvy)" height="40" id="Platform" style="stroke:#A80036;stroke-width:1.5;" width="80" x="172.9579" y="7"/><ellipse cx="187.9579" cy="23" fill="#ADD1B2" rx="11" ry="11" style="stroke:#A80036;stroke-width:1.0;"/><path d="M190.3017,18.6719 C189.3642,18.2344 188.7704,18.0938 187.8954,18.0938 C185.2704,18.0938 183.2704,20.1719 183.2704,22.8906 L183.2704,24.0156 C183.2704,26.5938 185.3798,28.4844 188.2704,28.4844 C189.4892,28.4844 190.6454,28.1875 191.3954,27.6406 C191.9735,27.2344 192.3017,26.7813 192.3017,26.3906 C192.3017,25.9375 191.911,25.5469 191.4423,25.5469 C191.2235,25.5469 191.0204,25.625 190.8329,25.8125 C190.3798,26.2969 190.3798,26.2969 190.1923,26.3906 C189.7704,26.6563 189.0829,26.7813 188.3173,26.7813 C186.2704,26.7813 184.9735,25.6875 184.9735,23.9844 L184.9735,22.8906 C184.9735,21.1094 186.2235,19.7969 187.9579,19.7969 C188.536,19.7969 189.1454,19.9531 189.6142,20.2031 C190.0985,20.4844 190.2704,20.7031 190.3642,21.1094 C190.4267,21.5156 190.4579,21.6406 190.5985,21.7656 C190.7392,21.9063 190.9735,22.0156 191.1923,22.0156 C191.4579,22.0156 191.7235,21.875 191.8954,21.6563 C192.0048,21.5 192.036,21.3125 192.036,20.8906 L192.036,19.4688 C192.036,19.0313 192.0204,18.9063 191.9267,18.75 C191.7704,18.4844 191.4892,18.3438 191.1923,18.3438 C190.8954,18.3438 190.6923,18.4375 190.4735,18.75 L190.3017,18.6719 Z " fill="#000000"/><text fill="#000000" font-family="sans-serif" font-size="12" lengthAdjust="spacing" textLength="48" x="201.9579" y="27.1543">Platform</text><line style="stroke:#A80036;stroke-width:1.5;" x1="173.9579" x2="251.9579" y1="39" y2="39"/><!--MD5=[45aeaa341fef25f20606e62afa73950f]
class CentralAPI--><rect codeLine="9" fill="#FEFECE" filter="url(#fkcc4rqhdtkvy)" height="52.8047" id="CentralAPI" style="stroke:#A80036;stroke-width:1.5;" width="91" x="428.458" y="124"/><ellipse cx="443.458" cy="140" fill="#ADD1B2" rx="11" ry="11" style="stroke:#A80036;stroke-width:1.0;"/><path d="M445.8018,135.6719 C444.8643,135.2344 444.2705,135.0938 443.3955,135.0938 C440.7705,135.0938 438.7705,137.1719 438.7705,139.8906 L438.7705,141.0156 C438.7705,143.5938 440.8799,145.4844 443.7705,145.4844 C444.9893,145.4844 446.1455,145.1875 446.8955,144.6406 C447.4736,144.2344 447.8018,143.7813 447.8018,143.3906 C447.8018,142.9375 447.4111,142.5469 446.9424,142.5469 C446.7236,142.5469 446.5205,142.625 446.333,142.8125 C445.8799,143.2969 445.8799,143.2969 445.6924,143.3906 C445.2705,143.6563 444.583,143.7813 443.8174,143.7813 C441.7705,143.7813 440.4736,142.6875 440.4736,140.9844 L440.4736,139.8906 C440.4736,138.1094 441.7236,136.7969 443.458,136.7969 C444.0361,136.7969 444.6455,136.9531 445.1143,137.2031 C445.5986,137.4844 445.7705,137.7031 445.8643,138.1094 C445.9268,138.5156 445.958,138.6406 446.0986,138.7656 C446.2393,138.9063 446.4736,139.0156 446.6924,139.0156 C446.958,139.0156 447.2236,138.875 447.3955,138.6563 C447.5049,138.5 447.5361,138.3125 447.5361,137.8906 L447.5361,136.4688 C447.5361,136.0313 447.5205,135.9063 447.4268,135.75 C447.2705,135.4844 446.9893,135.3438 446.6924,135.3438 C446.3955,135.3438 446.1924,135.4375 445.9736,135.75 L445.8018,135.6719 Z " fill="#000000"/><text fill="#000000" font-family="sans-serif" font-size="12" lengthAdjust="spacing" textLength="59" x="457.458" y="144.1543">CentralAPI</text><line style="stroke:#A80036;stroke-width:1.5;" x1="429.458" x2="518.458" y1="156" y2="156"/><text fill="#000000" font-family="sans-serif" font-size="11" lengthAdjust="spacing" textLength="67" x="434.458" y="170.2104">-List ParkAPI</text><!--MD5=[1082e5a79ce2eb21d0bc0571cb719e1c]
class AuthenticationAPI--><rect codeLine="13" fill="#FEFECE" filter="url(#fkcc4rqhdtkvy)" height="40" id="AuthenticationAPI" style="stroke:#A80036;stroke-width:1.5;" width="133" x="167.4579" y="693.5"/><ellipse cx="182.4579" cy="709.5" fill="#ADD1B2" rx="11" ry="11" style="stroke:#A80036;stroke-width:1.0;"/><path d="M184.8017,705.1719 C183.8642,704.7344 183.2704,704.5938 182.3954,704.5938 C179.7704,704.5938 177.7704,706.6719 177.7704,709.3906 L177.7704,710.5156 C177.7704,713.0938 179.8798,714.9844 182.7704,714.9844 C183.9892,714.9844 185.1454,714.6875 185.8954,714.1406 C186.4735,713.7344 186.8017,713.2813 186.8017,712.8906 C186.8017,712.4375 186.411,712.0469 185.9423,712.0469 C185.7235,712.0469 185.5204,712.125 185.3329,712.3125 C184.8798,712.7969 184.8798,712.7969 184.6923,712.8906 C184.2704,713.1563 183.5829,713.2813 182.8173,713.2813 C180.7704,713.2813 179.4735,712.1875 179.4735,710.4844 L179.4735,709.3906 C179.4735,707.6094 180.7235,706.2969 182.4579,706.2969 C183.036,706.2969 183.6454,706.4531 184.1142,706.7031 C184.5985,706.9844 184.7704,707.2031 184.8642,707.6094 C184.9267,708.0156 184.9579,708.1406 185.0985,708.2656 C185.2392,708.4063 185.4735,708.5156 185.6923,708.5156 C185.9579,708.5156 186.2235,708.375 186.3954,708.1563 C186.5048,708 186.536,707.8125 186.536,707.3906 L186.536,705.9688 C186.536,705.5313 186.5204,705.4063 186.4267,705.25 C186.2704,704.9844 185.9892,704.8438 185.6923,704.8438 C185.3954,704.8438 185.1923,704.9375 184.9735,705.25 L184.8017,705.1719 Z " fill="#000000"/><text fill="#000000" font-family="sans-serif" font-size="12" lengthAdjust="spacing" textLength="101" x="196.4579" y="713.6543">AuthenticationAPI</text><line style="stroke:#A80036;stroke-width:1.5;" x1="168.4579" x2="299.4579" y1="725.5" y2="725.5"/><!--MD5=[b9b2b358c4596a7c3c612fa1a577c109]
class PaymentAPI--><rect codeLine="16" fill="#FEFECE" filter="url(#fkcc4rqhdtkvy)" height="40" id="PaymentAPI" style="stroke:#A80036;stroke-width:1.5;" width="99" x="528.458" y="1068"/><ellipse cx="543.458" cy="1084" fill="#ADD1B2" rx="11" ry="11" style="stroke:#A80036;stroke-width:1.0;"/><path d="M545.8018,1079.6719 C544.8643,1079.2344 544.2705,1079.0938 543.3955,1079.0938 C540.7705,1079.0938 538.7705,1081.1719 538.7705,1083.8906 L538.7705,1085.0156 C538.7705,1087.5938 540.8799,1089.4844 543.7705,1089.4844 C544.9893,1089.4844 546.1455,1089.1875 546.8955,1088.6406 C547.4736,1088.2344 547.8018,1087.7813 547.8018,1087.3906 C547.8018,1086.9375 547.4111,1086.5469 546.9424,1086.5469 C546.7236,1086.5469 546.5205,1086.625 546.333,1086.8125 C545.8799,1087.2969 545.8799,1087.2969 545.6924,1087.3906 C545.2705,1087.6563 544.583,1087.7813 543.8174,1087.7813 C541.7705,1087.7813 540.4736,1086.6875 540.4736,1084.9844 L540.4736,1083.8906 C540.4736,1082.1094 541.7236,1080.7969 543.458,1080.7969 C544.0361,1080.7969 544.6455,1080.9531 545.1143,1081.2031 C545.5986,1081.4844 545.7705,1081.7031 545.8643,1082.1094 C545.9268,1082.5156 545.958,1082.6406 546.0986,1082.7656 C546.2393,1082.9063 546.4736,1083.0156 546.6924,1083.0156 C546.958,1083.0156 547.2236,1082.875 547.3955,1082.6563 C547.5049,1082.5 547.5361,1082.3125 547.5361,1081.8906 L547.5361,1080.4688 C547.5361,1080.0313 547.5205,1079.9063 547.4268,1079.75 C547.2705,1079.4844 546.9893,1079.3438 546.6924,1079.3438 C546.3955,1079.3438 546.1924,1079.4375 545.9736,1079.75 L545.8018,1079.6719 Z " fill="#000000"/><text fill="#000000" font-family="sans-serif" font-size="12" lengthAdjust="spacing" textLength="67" x="557.458" y="1088.1543">PaymentAPI</text><line style="stroke:#A80036;stroke-width:1.5;" x1="529.458" x2="626.458" y1="1100" y2="1100"/><!--MD5=[7cca23c7038e5b786a40cb26544f2e56]
class QRcodeAPI--><rect codeLine="19" fill="#FEFECE" filter="url(#fkcc4rqhdtkvy)" height="40" id="QRcodeAPI" style="stroke:#A80036;stroke-width:1.5;" width="97" x="709.458" y="900"/><ellipse cx="724.458" cy="916" fill="#ADD1B2" rx="11" ry="11" style="stroke:#A80036;stroke-width:1.0;"/><path d="M726.8018,911.6719 C725.8643,911.2344 725.2705,911.0938 724.3955,911.0938 C721.7705,911.0938 719.7705,913.1719 719.7705,915.8906 L719.7705,917.0156 C719.7705,919.5938 721.8799,921.4844 724.7705,921.4844 C725.9893,921.4844 727.1455,921.1875 727.8955,920.6406 C728.4736,920.2344 728.8018,919.7813 728.8018,919.3906 C728.8018,918.9375 728.4111,918.5469 727.9424,918.5469 C727.7236,918.5469 727.5205,918.625 727.333,918.8125 C726.8799,919.2969 726.8799,919.2969 726.6924,919.3906 C726.2705,919.6563 725.583,919.7813 724.8174,919.7813 C722.7705,919.7813 721.4736,918.6875 721.4736,916.9844 L721.4736,915.8906 C721.4736,914.1094 722.7236,912.7969 724.458,912.7969 C725.0361,912.7969 725.6455,912.9531 726.1143,913.2031 C726.5986,913.4844 726.7705,913.7031 726.8643,914.1094 C726.9268,914.5156 726.958,914.6406 727.0986,914.7656 C727.2393,914.9063 727.4736,915.0156 727.6924,915.0156 C727.958,915.0156 728.2236,914.875 728.3955,914.6563 C728.5049,914.5 728.5361,914.3125 728.5361,913.8906 L728.5361,912.4688 C728.5361,912.0313 728.5205,911.9063 728.4268,911.75 C728.2705,911.4844 727.9893,911.3438 727.6924,911.3438 C727.3955,911.3438 727.1924,911.4375 726.9736,911.75 L726.8018,911.6719 Z " fill="#000000"/><text fill="#000000" font-family="sans-serif" font-size="12" lengthAdjust="spacing" textLength="65" x="738.458" y="920.1543">QRcodeAPI</text><line style="stroke:#A80036;stroke-width:1.5;" x1="710.458" x2="805.458" y1="932" y2="932"/><!--MD5=[db6d18d8099558415abc41d00477ab92]
class Admin--><rect codeLine="23" fill="#FEFECE" filter="url(#fkcc4rqhdtkvy)" height="78.4141" id="Admin" style="stroke:#A80036;stroke-width:1.5;" width="84" x="730.958" y="480.5"/><ellipse cx="752.708" cy="496.5" fill="#ADD1B2" rx="11" ry="11" style="stroke:#A80036;stroke-width:1.0;"/><path d="M755.0518,492.1719 C754.1143,491.7344 753.5205,491.5938 752.6455,491.5938 C750.0205,491.5938 748.0205,493.6719 748.0205,496.3906 L748.0205,497.5156 C748.0205,500.0938 750.1299,501.9844 753.0205,501.9844 C754.2393,501.9844 755.3955,501.6875 756.1455,501.1406 C756.7236,500.7344 757.0518,500.2813 757.0518,499.8906 C757.0518,499.4375 756.6611,499.0469 756.1924,499.0469 C755.9736,499.0469 755.7705,499.125 755.583,499.3125 C755.1299,499.7969 755.1299,499.7969 754.9424,499.8906 C754.5205,500.1563 753.833,500.2813 753.0674,500.2813 C751.0205,500.2813 749.7236,499.1875 749.7236,497.4844 L749.7236,496.3906 C749.7236,494.6094 750.9736,493.2969 752.708,493.2969 C753.2861,493.2969 753.8955,493.4531 754.3643,493.7031 C754.8486,493.9844 755.0205,494.2031 755.1143,494.6094 C755.1768,495.0156 755.208,495.1406 755.3486,495.2656 C755.4893,495.4063 755.7236,495.5156 755.9424,495.5156 C756.208,495.5156 756.4736,495.375 756.6455,495.1563 C756.7549,495 756.7861,494.8125 756.7861,494.3906 L756.7861,492.9688 C756.7861,492.5313 756.7705,492.4063 756.6768,492.25 C756.5205,491.9844 756.2393,491.8438 755.9424,491.8438 C755.6455,491.8438 755.4424,491.9375 755.2236,492.25 L755.0518,492.1719 Z " fill="#000000"/><text fill="#000000" font-family="sans-serif" font-size="12" lengthAdjust="spacing" textLength="37" x="768.208" y="500.6543">Admin</text><line style="stroke:#A80036;stroke-width:1.5;" x1="731.958" x2="813.958" y1="512.5" y2="512.5"/><text fill="#000000" font-family="sans-serif" font-size="11" lengthAdjust="spacing" textLength="61" x="736.958" y="526.7104">-Integer ID</text><text fill="#000000" font-family="sans-serif" font-size="11" lengthAdjust="spacing" textLength="71" x="736.958" y="539.5151">-string email</text><text fill="#000000" font-family="sans-serif" font-size="11" lengthAdjust="spacing" textLength="72" x="736.958" y="552.3198">-string name</text><!--MD5=[3fd616f346a44cd59a91eb10b19e157c]
class User--><rect codeLine="29" fill="#FEFECE" filter="url(#fkcc4rqhdtkvy)" height="104.0234" id="User" style="stroke:#A80036;stroke-width:1.5;" width="99" x="340.458" y="467.5"/><ellipse cx="372.558" cy="483.5" fill="#ADD1B2" rx="11" ry="11" style="stroke:#A80036;stroke-width:1.0;"/><path d="M374.9018,479.1719 C373.9643,478.7344 373.3705,478.5938 372.4955,478.5938 C369.8705,478.5938 367.8705,480.6719 367.8705,483.3906 L367.8705,484.5156 C367.8705,487.0938 369.9799,488.9844 372.8705,488.9844 C374.0893,488.9844 375.2455,488.6875 375.9955,488.1406 C376.5736,487.7344 376.9018,487.2813 376.9018,486.8906 C376.9018,486.4375 376.5111,486.0469 376.0424,486.0469 C375.8236,486.0469 375.6205,486.125 375.433,486.3125 C374.9799,486.7969 374.9799,486.7969 374.7924,486.8906 C374.3705,487.1563 373.683,487.2813 372.9174,487.2813 C370.8705,487.2813 369.5736,486.1875 369.5736,484.4844 L369.5736,483.3906 C369.5736,481.6094 370.8236,480.2969 372.558,480.2969 C373.1361,480.2969 373.7455,480.4531 374.2143,480.7031 C374.6986,480.9844 374.8705,481.2031 374.9643,481.6094 C375.0268,482.0156 375.058,482.1406 375.1986,482.2656 C375.3393,482.4063 375.5736,482.5156 375.7924,482.5156 C376.058,482.5156 376.3236,482.375 376.4955,482.1563 C376.6049,482 376.6361,481.8125 376.6361,481.3906 L376.6361,479.9688 C376.6361,479.5313 376.6205,479.4063 376.5268,479.25 C376.3705,478.9844 376.0893,478.8438 375.7924,478.8438 C375.4955,478.8438 375.2924,478.9375 375.0736,479.25 L374.9018,479.1719 Z " fill="#000000"/><text fill="#000000" font-family="sans-serif" font-size="12" lengthAdjust="spacing" textLength="29" x="390.358" y="487.6543">User</text><line style="stroke:#A80036;stroke-width:1.5;" x1="341.458" x2="438.458" y1="499.5" y2="499.5"/><text fill="#000000" font-family="sans-serif" font-size="11" lengthAdjust="spacing" textLength="78" x="346.458" y="513.7104">-String userID</text><text fill="#000000" font-family="sans-serif" font-size="11" lengthAdjust="spacing" textLength="74" x="346.458" y="526.5151">-String name</text><text fill="#000000" font-family="sans-serif" font-size="11" lengthAdjust="spacing" textLength="55" x="346.458" y="539.3198">-String nif</text><text fill="#000000" font-family="sans-serif" font-size="11" lengthAdjust="spacing" textLength="73" x="346.458" y="552.1245">-String email</text><text fill="#000000" font-family="sans-serif" font-size="11" lengthAdjust="spacing" textLength="87" x="346.458" y="564.9292">-Decimal credit</text><!--MD5=[8836a49f4083a7550430b1f83332c96a]
class ParkingLot--><rect codeLine="37" fill="#FEFECE" filter="url(#fkcc4rqhdtkvy)" height="129.6328" id="ParkingLot" style="stroke:#A80036;stroke-width:1.5;" width="152" x="492.958" y="254"/><ellipse cx="534.508" cy="270" fill="#ADD1B2" rx="11" ry="11" style="stroke:#A80036;stroke-width:1.0;"/><path d="M536.8518,265.6719 C535.9143,265.2344 535.3205,265.0938 534.4455,265.0938 C531.8205,265.0938 529.8205,267.1719 529.8205,269.8906 L529.8205,271.0156 C529.8205,273.5938 531.9299,275.4844 534.8205,275.4844 C536.0393,275.4844 537.1955,275.1875 537.9455,274.6406 C538.5236,274.2344 538.8518,273.7813 538.8518,273.3906 C538.8518,272.9375 538.4611,272.5469 537.9924,272.5469 C537.7736,272.5469 537.5705,272.625 537.383,272.8125 C536.9299,273.2969 536.9299,273.2969 536.7424,273.3906 C536.3205,273.6563 535.633,273.7813 534.8674,273.7813 C532.8205,273.7813 531.5236,272.6875 531.5236,270.9844 L531.5236,269.8906 C531.5236,268.1094 532.7736,266.7969 534.508,266.7969 C535.0861,266.7969 535.6955,266.9531 536.1643,267.2031 C536.6486,267.4844 536.8205,267.7031 536.9143,268.1094 C536.9768,268.5156 537.008,268.6406 537.1486,268.7656 C537.2893,268.9063 537.5236,269.0156 537.7424,269.0156 C538.008,269.0156 538.2736,268.875 538.4455,268.6563 C538.5549,268.5 538.5861,268.3125 538.5861,267.8906 L538.5861,266.4688 C538.5861,266.0313 538.5705,265.9063 538.4768,265.75 C538.3205,265.4844 538.0393,265.3438 537.7424,265.3438 C537.4455,265.3438 537.2424,265.4375 537.0236,265.75 L536.8518,265.6719 Z " fill="#000000"/><text fill="#000000" font-family="sans-serif" font-size="12" lengthAdjust="spacing" textLength="61" x="554.408" y="274.1543">ParkingLot</text><line style="stroke:#A80036;stroke-width:1.5;" x1="493.958" x2="643.958" y1="286" y2="286"/><text fill="#000000" font-family="sans-serif" font-size="11" lengthAdjust="spacing" textLength="119" x="498.958" y="300.2104">-Integer parkingLotID</text><text fill="#000000" font-family="sans-serif" font-size="11" lengthAdjust="spacing" textLength="74" x="498.958" y="313.0151">-String name</text><text fill="#000000" font-family="sans-serif" font-size="11" lengthAdjust="spacing" textLength="130" x="498.958" y="325.8198">-String companyOwner</text><text fill="#000000" font-family="sans-serif" font-size="11" lengthAdjust="spacing" textLength="85" x="498.958" y="338.6245">-String location</text><text fill="#000000" font-family="sans-serif" font-size="11" lengthAdjust="spacing" textLength="96" x="498.958" y="351.4292">-Integer capacity</text><text fill="#000000" font-family="sans-serif" font-size="11" lengthAdjust="spacing" textLength="140" x="498.958" y="364.2339">-DateTime openingTime</text><text fill="#000000" font-family="sans-serif" font-size="11" lengthAdjust="spacing" textLength="133" x="498.958" y="377.0386">-DateTime closingTime</text><!--MD5=[e8d1d02626a1df80ab81ee14c5101fbd]
class ParkingSpot--><rect codeLine="47" fill="#FEFECE" filter="url(#fkcc4rqhdtkvy)" height="116.8281" id="ParkingSpot" style="stroke:#A80036;stroke-width:1.5;" width="132" x="563.958" y="461"/><ellipse cx="592.008" cy="477" fill="#ADD1B2" rx="11" ry="11" style="stroke:#A80036;stroke-width:1.0;"/><path d="M594.3517,472.6719 C593.4142,472.2344 592.8205,472.0938 591.9455,472.0938 C589.3205,472.0938 587.3205,474.1719 587.3205,476.8906 L587.3205,478.0156 C587.3205,480.5938 589.4299,482.4844 592.3205,482.4844 C593.5392,482.4844 594.6955,482.1875 595.4455,481.6406 C596.0236,481.2344 596.3517,480.7813 596.3517,480.3906 C596.3517,479.9375 595.9611,479.5469 595.4924,479.5469 C595.2736,479.5469 595.0705,479.625 594.883,479.8125 C594.4299,480.2969 594.4299,480.2969 594.2424,480.3906 C593.8205,480.6563 593.133,480.7813 592.3674,480.7813 C590.3205,480.7813 589.0236,479.6875 589.0236,477.9844 L589.0236,476.8906 C589.0236,475.1094 590.2736,473.7969 592.008,473.7969 C592.5861,473.7969 593.1955,473.9531 593.6642,474.2031 C594.1486,474.4844 594.3205,474.7031 594.4142,475.1094 C594.4767,475.5156 594.508,475.6406 594.6486,475.7656 C594.7892,475.9063 595.0236,476.0156 595.2424,476.0156 C595.508,476.0156 595.7736,475.875 595.9455,475.6563 C596.0549,475.5 596.0861,475.3125 596.0861,474.8906 L596.0861,473.4688 C596.0861,473.0313 596.0705,472.9063 595.9767,472.75 C595.8205,472.4844 595.5392,472.3438 595.2424,472.3438 C594.9455,472.3438 594.7424,472.4375 594.5236,472.75 L594.3517,472.6719 Z " fill="#000000"/><text fill="#000000" font-family="sans-serif" font-size="12" lengthAdjust="spacing" textLength="71" x="608.908" y="481.1543">ParkingSpot</text><line style="stroke:#A80036;stroke-width:1.5;" x1="564.958" x2="694.958" y1="493" y2="493"/><text fill="#000000" font-family="sans-serif" font-size="11" lengthAdjust="spacing" textLength="120" x="569.958" y="507.2104">-String parkingSpotID</text><text fill="#000000" font-family="sans-serif" font-size="11" lengthAdjust="spacing" textLength="109" x="569.958" y="520.0151">-Decimal priceHour</text><text fill="#000000" font-family="sans-serif" font-size="11" lengthAdjust="spacing" textLength="72" x="569.958" y="532.8198">-String floor*</text><text fill="#000000" font-family="sans-serif" font-size="11" lengthAdjust="spacing" textLength="87" x="569.958" y="545.6245">-Bool isPrivate*</text><text fill="#000000" font-family="sans-serif" font-size="11" lengthAdjust="spacing" textLength="97" x="569.958" y="558.4292">-Bool isCovered*</text><text fill="#000000" font-family="sans-serif" font-size="11" lengthAdjust="spacing" textLength="119" x="569.958" y="571.2339">-Integer parkingLotID</text><!--MD5=[9c46470aa33a0c75e6d1dfdefc2f9c22]
class Reservation--><rect codeLine="56" fill="#FEFECE" filter="url(#fkcc4rqhdtkvy)" height="116.8281" id="Reservation" style="stroke:#A80036;stroke-width:1.5;" width="132" x="545.958" y="655"/><ellipse cx="574.008" cy="671" fill="#ADD1B2" rx="11" ry="11" style="stroke:#A80036;stroke-width:1.0;"/><path d="M576.3517,666.6719 C575.4142,666.2344 574.8205,666.0938 573.9455,666.0938 C571.3205,666.0938 569.3205,668.1719 569.3205,670.8906 L569.3205,672.0156 C569.3205,674.5938 571.4299,676.4844 574.3205,676.4844 C575.5392,676.4844 576.6955,676.1875 577.4455,675.6406 C578.0236,675.2344 578.3517,674.7813 578.3517,674.3906 C578.3517,673.9375 577.9611,673.5469 577.4924,673.5469 C577.2736,673.5469 577.0705,673.625 576.883,673.8125 C576.4299,674.2969 576.4299,674.2969 576.2424,674.3906 C575.8205,674.6563 575.133,674.7813 574.3674,674.7813 C572.3205,674.7813 571.0236,673.6875 571.0236,671.9844 L571.0236,670.8906 C571.0236,669.1094 572.2736,667.7969 574.008,667.7969 C574.5861,667.7969 575.1955,667.9531 575.6642,668.2031 C576.1486,668.4844 576.3205,668.7031 576.4142,669.1094 C576.4767,669.5156 576.508,669.6406 576.6486,669.7656 C576.7892,669.9063 577.0236,670.0156 577.2424,670.0156 C577.508,670.0156 577.7736,669.875 577.9455,669.6563 C578.0549,669.5 578.0861,669.3125 578.0861,668.8906 L578.0861,667.4688 C578.0861,667.0313 578.0705,666.9063 577.9767,666.75 C577.8205,666.4844 577.5392,666.3438 577.2424,666.3438 C576.9455,666.3438 576.7424,666.4375 576.5236,666.75 L576.3517,666.6719 Z " fill="#000000"/><text fill="#000000" font-family="sans-serif" font-size="12" lengthAdjust="spacing" textLength="71" x="590.908" y="675.1543">Reservation</text><line style="stroke:#A80036;stroke-width:1.5;" x1="546.958" x2="676.958" y1="687" y2="687"/><text fill="#000000" font-family="sans-serif" font-size="11" lengthAdjust="spacing" textLength="118" x="551.958" y="701.2104">-String reservationID</text><text fill="#000000" font-family="sans-serif" font-size="11" lengthAdjust="spacing" textLength="119" x="551.958" y="714.0151">-DateTime startTime</text><text fill="#000000" font-family="sans-serif" font-size="11" lengthAdjust="spacing" textLength="80" x="551.958" y="726.8198">-Integer hours</text><text fill="#000000" font-family="sans-serif" font-size="11" lengthAdjust="spacing" textLength="106" x="551.958" y="739.6245">-Decimal finalPrice</text><text fill="#000000" font-family="sans-serif" font-size="11" lengthAdjust="spacing" textLength="116" x="551.958" y="752.4292">-DateTime endTime</text><text fill="#000000" font-family="sans-serif" font-size="11" lengthAdjust="spacing" textLength="120" x="551.958" y="765.2339">-String parkingSpotID</text><!--MD5=[73af141fbddd6c75d0486fea917d5e23]
class SubLet--><rect codeLine="65" fill="#FEFECE" filter="url(#fkcc4rqhdtkvy)" height="142.4375" id="SubLet" style="stroke:#A80036;stroke-width:1.5;" width="131" x="427.458" y="849"/><ellipse cx="468.558" cy="865" fill="#ADD1B2" rx="11" ry="11" style="stroke:#A80036;stroke-width:1.0;"/><path d="M470.9018,860.6719 C469.9643,860.2344 469.3705,860.0938 468.4955,860.0938 C465.8705,860.0938 463.8705,862.1719 463.8705,864.8906 L463.8705,866.0156 C463.8705,868.5938 465.9799,870.4844 468.8705,870.4844 C470.0893,870.4844 471.2455,870.1875 471.9955,869.6406 C472.5736,869.2344 472.9018,868.7813 472.9018,868.3906 C472.9018,867.9375 472.5111,867.5469 472.0424,867.5469 C471.8236,867.5469 471.6205,867.625 471.433,867.8125 C470.9799,868.2969 470.9799,868.2969 470.7924,868.3906 C470.3705,868.6563 469.683,868.7813 468.9174,868.7813 C466.8705,868.7813 465.5736,867.6875 465.5736,865.9844 L465.5736,864.8906 C465.5736,863.1094 466.8236,861.7969 468.558,861.7969 C469.1361,861.7969 469.7455,861.9531 470.2143,862.2031 C470.6986,862.4844 470.8705,862.7031 470.9643,863.1094 C471.0268,863.5156 471.058,863.6406 471.1986,863.7656 C471.3393,863.9063 471.5736,864.0156 471.7924,864.0156 C472.058,864.0156 472.3236,863.875 472.4955,863.6563 C472.6049,863.5 472.6361,863.3125 472.6361,862.8906 L472.6361,861.4688 C472.6361,861.0313 472.6205,860.9063 472.5268,860.75 C472.3705,860.4844 472.0893,860.3438 471.7924,860.3438 C471.4955,860.3438 471.2924,860.4375 471.0736,860.75 L470.9018,860.6719 Z " fill="#000000"/><text fill="#000000" font-family="sans-serif" font-size="12" lengthAdjust="spacing" textLength="41" x="488.358" y="869.1543">SubLet</text><line style="stroke:#A80036;stroke-width:1.5;" x1="428.458" x2="557.458" y1="881" y2="881"/><text fill="#000000" font-family="sans-serif" font-size="11" lengthAdjust="spacing" textLength="89" x="433.458" y="895.2104">-string subLetID</text><text fill="#000000" font-family="sans-serif" font-size="11" lengthAdjust="spacing" textLength="116" x="433.458" y="908.0151">-string reservationID</text><text fill="#000000" font-family="sans-serif" font-size="11" lengthAdjust="spacing" textLength="96" x="433.458" y="920.8198">-integer letHours</text><text fill="#000000" font-family="sans-serif" font-size="11" lengthAdjust="spacing" textLength="95" x="433.458" y="933.6245">-decimal letPrice</text><text fill="#000000" font-family="sans-serif" font-size="11" lengthAdjust="spacing" textLength="76" x="433.458" y="946.4292">-string userID</text><text fill="#000000" font-family="sans-serif" font-size="11" lengthAdjust="spacing" textLength="82" x="433.458" y="959.2339">-string userID*</text><text fill="#000000" font-family="sans-serif" font-size="11" lengthAdjust="spacing" textLength="119" x="433.458" y="972.0386">-DateTime startTime</text><text fill="#000000" font-family="sans-serif" font-size="11" lengthAdjust="spacing" textLength="116" x="433.458" y="984.8433">-DateTime endTime</text><!--MD5=[c28f3a27f05f6e4cd4e15e0769de5f8b]
link Platform to CentralAPI--><path codeLine="76" d="M253.167,46.72 C300.498,68.75 378.909,105.25 428.433,128.308 " fill="none" id="Platform-CentralAPI" style="stroke:#A80036;stroke-width:1.0;"/><polygon fill="#000000" points="361.4909,87.6765,354.5311,81.1949,352.0505,86.5237,361.4909,87.6765" style="stroke:#000000;stroke-width:1.0;"/><text fill="#000000" font-family="sans-serif" font-size="13" lengthAdjust="spacing" textLength="58" x="365.958" y="90.0669">connects</text><text fill="#000000" font-family="sans-serif" font-size="13" lengthAdjust="spacing" textLength="8" x="256.256" y="67.1434">1</text><text fill="#000000" font-family="sans-serif" font-size="13" lengthAdjust="spacing" textLength="8" x="412.54" y="120.6689">1</text><!--MD5=[4f37ba3d10b9c221c70d2e84278ddd82]
link CentralAPI to AuthenticationAPI--><path codeLine="78" d="M454.843,177.111 C439.87,197.544 418.823,227.099 401.958,254 C310.535,399.824 282.687,440.074 244.958,608 C238.36,637.368 235.697,672.29 234.638,693.407 " fill="none" id="CentralAPI-AuthenticationAPI" style="stroke:#A80036;stroke-width:1.0;"/><polygon fill="#000000" points="309.9964,427.1656,316.2483,419.9986,310.8416,417.6926,309.9964,427.1656" style="stroke:#000000;stroke-width:1.0;"/><text fill="#000000" font-family="sans-serif" font-size="13" lengthAdjust="spacing" textLength="66" x="320.958" y="427.0669">consumes</text><text fill="#000000" font-family="sans-serif" font-size="13" lengthAdjust="spacing" textLength="8" x="441.7866" y="196.6756">1</text><text fill="#000000" font-family="sans-serif" font-size="13" lengthAdjust="spacing" textLength="23" x="208.4597" y="682.388">1..*</text><!--MD5=[534cb6648375a4bfb2a3ca2f4af4d3e9]
link CentralAPI to User--><path codeLine="79" d="M463.285,177.23 C455.121,197.729 444.089,227.315 436.958,254 C417.451,326.994 403.811,413.525 396.425,467.229 " fill="none" id="CentralAPI-User" style="stroke:#A80036;stroke-width:1.0;"/><polygon fill="#000000" points="440.8347,323.9386,445.7306,315.785,440.003,314.4645,440.8347,323.9386" style="stroke:#000000;stroke-width:1.0;"/><text fill="#000000" font-family="sans-serif" font-size="13" lengthAdjust="spacing" textLength="23" x="450.958" y="323.5669">has</text><text fill="#000000" font-family="sans-serif" font-size="13" lengthAdjust="spacing" textLength="8" x="452.0753" y="196.8206">1</text><text fill="#000000" font-family="sans-serif" font-size="13" lengthAdjust="spacing" textLength="23" x="372.7487" y="456.2715">1..*</text><!--MD5=[1bbad24c7a375925995cd82632d00bc9]
link CentralAPI to ParkingLot--><path codeLine="80" d="M488.593,177.151 C500.252,197.584 517.092,227.098 532.347,253.835 " fill="none" id="CentralAPI-ParkingLot" style="stroke:#A80036;stroke-width:1.0;"/><polygon fill="#000000" points="520.4359,219.9092,518.506,210.5965,513.4007,213.5095,520.4359,219.9092" style="stroke:#000000;stroke-width:1.0;"/><text fill="#000000" font-family="sans-serif" font-size="13" lengthAdjust="spacing" textLength="23" x="526.958" y="220.0669">has</text><text fill="#000000" font-family="sans-serif" font-size="13" lengthAdjust="spacing" textLength="8" x="482.9194" y="196.7243">1</text><text fill="#000000" font-family="sans-serif" font-size="13" lengthAdjust="spacing" textLength="27" x="499.8661" y="242.9815">1...*</text><!--MD5=[abe209d831a44ba556f3cc970731f6fd]
link CentralAPI to Admin--><path codeLine="81" d="M519.766,167.07 C561.406,183.206 622.237,212.002 661.958,254 C723.724,319.307 753.572,424.013 765.806,480.093 " fill="none" id="CentralAPI-Admin" style="stroke:#A80036;stroke-width:1.0;"/><polygon fill="#000000" points="745.0478,322.9974,741.7689,314.07,737.1477,317.7023,745.0478,322.9974" style="stroke:#000000;stroke-width:1.0;"/><text fill="#000000" font-family="sans-serif" font-size="13" lengthAdjust="spacing" textLength="75" x="750.958" y="323.5669">is managed</text><text fill="#000000" font-family="sans-serif" font-size="13" lengthAdjust="spacing" textLength="8" x="527.3929" y="182.8477">1</text><text fill="#000000" font-family="sans-serif" font-size="13" lengthAdjust="spacing" textLength="27" x="735.3855" y="469.3676">1...*</text><!--MD5=[bc318b7b2235170839f8a61959d157b6]
link CentralAPI to PaymentAPI--><path codeLine="82" d="M519.462,159.159 C629.871,179.025 902.958,236.41 902.958,318 C902.958,318 902.958,318 902.958,921 C902.958,1043.1218 718.714,1075.4512 627.672,1083.9718 " fill="none" id="CentralAPI-PaymentAPI" style="stroke:#A80036;stroke-width:1.0;"/><polygon fill="#000000" points="908.5391,621.5325,910.4069,612.2072,904.5689,612.8903,908.5391,621.5325" style="stroke:#000000;stroke-width:1.0;"/><text fill="#000000" font-family="sans-serif" font-size="13" lengthAdjust="spacing" textLength="66" x="916.958" y="621.0669">consumes</text><text fill="#000000" font-family="sans-serif" font-size="13" lengthAdjust="spacing" textLength="8" x="527.3517" y="156.4368">1</text><text fill="#000000" font-family="sans-serif" font-size="13" lengthAdjust="spacing" textLength="27" x="635.3762" y="1079.6418">1...*</text><!--MD5=[958e8d4713a2a8f6658c9252c39bef85]
link ParkingLot to Admin--><path codeLine="84" d="M603.275,384.111 C614.548,400.965 628.272,418.035 643.958,431 C670.047,452.565 685.808,442.205 713.958,461 C722.284,466.56 730.469,473.378 737.966,480.351 " fill="none" id="ParkingLot-Admin" style="stroke:#A80036;stroke-width:1.0;"/><polygon fill="#000000" points="653.0262,425.4732,647.3753,417.8235,643.9582,422.606,653.0262,425.4732" style="stroke:#000000;stroke-width:1.0;"/><text fill="#000000" font-family="sans-serif" font-size="13" lengthAdjust="spacing" textLength="75" x="657.958" y="427.0669">is managed</text><text fill="#000000" font-family="sans-serif" font-size="13" lengthAdjust="spacing" textLength="8" x="598.4014" y="403.6917">1</text><text fill="#000000" font-family="sans-serif" font-size="13" lengthAdjust="spacing" textLength="23" x="706.9752" y="469.3759">1..*</text><!--MD5=[5e93dd975e469842cc64e7a48c49d475]
link ParkingLot to ParkingSpot--><path codeLine="85" d="M559.867,384.177 C559.647,399.799 561.139,416.249 565.958,431 C569.289,441.197 574.31,451.192 580.103,460.568 " fill="none" id="ParkingLot-ParkingSpot" style="stroke:#A80036;stroke-width:1.0;"/><polygon fill="#000000" points="572.2383,427.3997,572.7631,417.9036,567.0812,419.4088,572.2383,427.3997" style="stroke:#000000;stroke-width:1.0;"/><text fill="#000000" font-family="sans-serif" font-size="13" lengthAdjust="spacing" textLength="23" x="579.958" y="427.0669">has</text><text fill="#000000" font-family="sans-serif" font-size="13" lengthAdjust="spacing" textLength="8" x="550.517" y="403.7645">1</text><text fill="#000000" font-family="sans-serif" font-size="13" lengthAdjust="spacing" textLength="27" x="545.7776" y="449.9713">1...*</text><!--MD5=[4dccc96e3e6c8a65718bd66cc267c1de]
link ParkingSpot to Reservation--><path codeLine="87" d="M638.918,578.147 C640.052,593.425 640.157,609.875 637.958,625 C636.544,634.723 634.29,644.869 631.685,654.662 " fill="none" id="ParkingSpot-Reservation" style="stroke:#A80036;stroke-width:1.0;"/><polygon fill="#000000" points="644.4874,621.5442,648.2646,612.8159,642.4128,612.2627,644.4874,621.5442" style="stroke:#000000;stroke-width:1.0;"/><text fill="#000000" font-family="sans-serif" font-size="13" lengthAdjust="spacing" textLength="23" x="653.958" y="621.0669">has</text><text fill="#000000" font-family="sans-serif" font-size="13" lengthAdjust="spacing" textLength="8" x="631.4915" y="597.8798">1</text><text fill="#000000" font-family="sans-serif" font-size="13" lengthAdjust="spacing" textLength="27" x="605.405" y="644.0762">1...*</text><!--MD5=[eb1d94def20cc4429985d0722fbafb53]
link Reservation to PaymentAPI--><path codeLine="89" d="M619.351,772.115 C625.852,837.78 630.838,947.697 605.958,1038 C603.043,1048.5794 597.319,1059.2808 591.802,1067.9724 " fill="none" id="Reservation-PaymentAPI" style="stroke:#A80036;stroke-width:1.0;"/><polygon fill="#000000" points="629.4944,925.0449,633.2593,916.3112,627.4068,915.7663,629.4944,925.0449" style="stroke:#000000;stroke-width:1.0;"/><text fill="#000000" font-family="sans-serif" font-size="13" lengthAdjust="spacing" textLength="30" x="638.958" y="924.5669">uses</text><text fill="#000000" font-family="sans-serif" font-size="13" lengthAdjust="spacing" textLength="8" x="611.7433" y="791.8441">1</text><text fill="#000000" font-family="sans-serif" font-size="13" lengthAdjust="spacing" textLength="27" x="564.9031" y="1056.9726">1...*</text><!--MD5=[39b0970f240dff78a5aaab86d295e454]
link Reservation to SubLet--><path codeLine="90" d="M550.384,772.237 C542.433,781.641 534.978,791.695 528.958,802 C520.596,816.313 513.987,832.766 508.84,848.725 " fill="none" id="Reservation-SubLet" style="stroke:#A80036;stroke-width:1.0;"/><polygon fill="#000000" points="531.5716,814.9601,538.4712,808.4145,533.3061,805.6091,531.5716,814.9601" style="stroke:#000000;stroke-width:1.0;"/><text fill="#000000" font-family="sans-serif" font-size="13" lengthAdjust="spacing" textLength="59" x="542.958" y="815.0669">can have</text><text fill="#000000" font-family="sans-serif" font-size="13" lengthAdjust="spacing" textLength="8" x="534.802" y="791.9802">1</text><text fill="#000000" font-family="sans-serif" font-size="13" lengthAdjust="spacing" textLength="27" x="482.0745" y="838.0225">1...*</text><!--MD5=[e5483b6d594f51cfe5a7ef9869301148]
link Reservation to QRcodeAPI--><path codeLine="91" d="M651.223,772.235 C661.753,787.512 673.202,803.94 683.958,819 C704.293,847.472 728.525,879.955 743.578,899.97 " fill="none" id="Reservation-QRcodeAPI" style="stroke:#A80036;stroke-width:1.0;"/><polygon fill="#000000" points="691.8876,814.6183,688.9695,805.5664,684.2063,809.0103,691.8876,814.6183" style="stroke:#000000;stroke-width:1.0;"/><text fill="#000000" font-family="sans-serif" font-size="13" lengthAdjust="spacing" textLength="23" x="697.958" y="815.0669">has</text><text fill="#000000" font-family="sans-serif" font-size="13" lengthAdjust="spacing" textLength="8" x="647.3005" y="791.9779">1</text><text fill="#000000" font-family="sans-serif" font-size="13" lengthAdjust="spacing" textLength="23" x="712.9758" y="888.9695">1..*</text><!--MD5=[c3d8d4bc89ccfb97c622999a829cf3cb]
link QRcodeAPI to User--><path codeLine="93" d="M758.924,899.888 C760.275,852.644 757.365,728.849 695.958,655 C678.52,634.029 521.666,571.322 439.568,539.489 " fill="none" id="QRcodeAPI-User" style="stroke:#A80036;stroke-width:1.0;"/><polygon fill="#000000" points="748.642,709.8242,752.4411,718.543,756.8403,714.6448,748.642,709.8242" style="stroke:#000000;stroke-width:1.0;"/><text fill="#000000" font-family="sans-serif" font-size="13" lengthAdjust="spacing" textLength="87" x="760.958" y="718.0669">sent by email</text><text fill="#000000" font-family="sans-serif" font-size="13" lengthAdjust="spacing" textLength="8" x="750.0328" y="888.8634">1</text><text fill="#000000" font-family="sans-serif" font-size="13" lengthAdjust="spacing" textLength="8" x="447.442" y="555.6014">1</text><!--MD5=[7063a669f3bda7e596e3fc2785196080]
link SubLet to PaymentAPI--><path codeLine="95" d="M529.006,991.399 C543.304,1019.3225 558.6,1049.1943 568.215,1067.9729 " fill="none" id="SubLet-PaymentAPI" style="stroke:#A80036;stroke-width:1.0;"/><polygon fill="#000000" points="560.2368,1034.0169,558.7303,1024.6264,553.4984,1027.3053,560.2368,1034.0169" style="stroke:#000000;stroke-width:1.0;"/><text fill="#000000" font-family="sans-serif" font-size="13" lengthAdjust="spacing" textLength="30" x="566.958" y="1034.0669">uses</text><text fill="#000000" font-family="sans-serif" font-size="13" lengthAdjust="spacing" textLength="8" x="524.311" y="1011.5866">1</text><text fill="#000000" font-family="sans-serif" font-size="13" lengthAdjust="spacing" textLength="27" x="534.3874" y="1056.9732">1...*</text><!--MD5=[993a1ed30139d6bc9fd462e29443e622]
link User to User--><path codeLine="97" d="M439.852,501.554 C458.792,500.862 474.458,506.844 474.458,519.5 C474.458,532.156 458.792,538.138 439.852,537.446 " fill="none" id="User-User" style="stroke:#A80036;stroke-width:1.0;"/><polygon fill="#000000" points="479.2754,524.5631,482.5427,515.6313,476.6687,515.4167,479.2754,524.5631" style="stroke:#000000;stroke-width:1.0;"/><text fill="#000000" font-family="sans-serif" font-size="13" lengthAdjust="spacing" textLength="46" x="493.458" y="524.0669">sublets</text><text fill="#000000" font-family="sans-serif" font-size="13" lengthAdjust="spacing" textLength="8" x="447.4308" y="495.0502">1</text><text fill="#000000" font-family="sans-serif" font-size="13" lengthAdjust="spacing" textLength="23" x="447.3344" y="535.7927">1..*</text><!--MD5=[438065722335a144b512313feb973302]
link User to SubLet--><path codeLine="98" d="M405.615,571.745 C409.124,583.619 412.753,596.226 415.958,608 C438.384,690.384 461.6,785.786 476.596,848.975 " fill="none" id="User-SubLet" style="stroke:#A80036;stroke-width:1.0;"/><polygon fill="#000000" points="464.1982,718.4102,464.8018,708.9188,459.1076,710.3767,464.1982,718.4102" style="stroke:#000000;stroke-width:1.0;"/><text fill="#000000" font-family="sans-serif" font-size="13" lengthAdjust="spacing" textLength="23" x="471.958" y="718.0669">has</text><text fill="#000000" font-family="sans-serif" font-size="13" lengthAdjust="spacing" textLength="8" x="399.1086" y="591.4737">1</text><text fill="#000000" font-family="sans-serif" font-size="13" lengthAdjust="spacing" textLength="23" x="450.7227" y="837.9283">1..*</text><!--MD5=[be2d53e739b11a6facbafff01ae8b5e0]
link User to Platform--><path codeLine="99" d="M340.197,513.85 C287.478,506.1 206.03,485.516 162.9579,431 C6,232.341 119.0632,283.265 134.9579,207 C147.7876,145.441 182.979,79.11 201.389,47.24 " fill="none" id="User-Platform" style="stroke:#A80036;stroke-width:1.0;"/><polygon fill="#000000" points="138.5322,210.774,138.2944,220.2816,143.9282,218.6056,138.5322,210.774" style="stroke:#000000;stroke-width:1.0;"/><text fill="#000000" font-family="sans-serif" font-size="13" lengthAdjust="spacing" textLength="30" x="148.9579" y="220.0669">uses</text><text fill="#000000" font-family="sans-serif" font-size="13" lengthAdjust="spacing" textLength="8" x="324.3009" y="508.9935">1</text><text fill="#000000" font-family="sans-serif" font-size="13" lengthAdjust="spacing" textLength="23" x="171.9002" y="67.1274">1..*</text><!--MD5=[ba1c15311d2efcbbd5937150a6a2d35d]
link User to AuthenticationAPI--><path codeLine="100" d="M340.422,543.013 C313.16,557.809 280.91,579.684 260.958,608 C242.718,633.887 236.794,671.137 234.874,693.465 " fill="none" id="User-AuthenticationAPI" style="stroke:#A80036;stroke-width:1.0;"/><polygon fill="#000000" points="263.0865,620.6596,270.687,614.9428,265.8752,611.5671,263.0865,620.6596" style="stroke:#000000;stroke-width:1.0;"/><text fill="#000000" font-family="sans-serif" font-size="13" lengthAdjust="spacing" textLength="88" x="274.958" y="621.0669">authenticates</text><text fill="#000000" font-family="sans-serif" font-size="13" lengthAdjust="spacing" textLength="8" x="324.5589" y="542.4398">1</text><text fill="#000000" font-family="sans-serif" font-size="13" lengthAdjust="spacing" textLength="23" x="238.5212" y="682.463">1..*</text><!--MD5=[824e93652598fae7e851d95a77a350d5]
link User to PaymentAPI--><path codeLine="101" d="M386.062,571.77 C378.888,678.836 367.907,921.96 409.958,991 C435.995,1033.7481 488.635,1059.2558 528.09,1073.1105 " fill="none" id="User-PaymentAPI" style="stroke:#A80036;stroke-width:1.0;"/><polygon fill="#000000" points="387.3208,815.3771,387.6831,805.8734,382.0278,807.4755,387.3208,815.3771" style="stroke:#000000;stroke-width:1.0;"/><text fill="#000000" font-family="sans-serif" font-size="13" lengthAdjust="spacing" textLength="30" x="394.958" y="815.0669">uses</text><text fill="#000000" font-family="sans-serif" font-size="13" lengthAdjust="spacing" textLength="8" x="377.0503" y="591.5019">1</text><text fill="#000000" font-family="sans-serif" font-size="13" lengthAdjust="spacing" textLength="23" x="497.6108" y="1067.4568">1..*</text><!--MD5=[c24e85aca65080b7f8317b6a9db850e8]
link User to Reservation--><path codeLine="102" d="M439.638,561.861 C456.913,576.359 476.364,592.813 493.958,608 C511.462,623.11 530.266,639.63 547.606,654.984 " fill="none" id="User-Reservation" style="stroke:#A80036;stroke-width:1.0;"/><polygon fill="#000000" points="522.7442,619.8321,517.8144,611.699,513.9754,616.1499,522.7442,619.8321" style="stroke:#000000;stroke-width:1.0;"/><text fill="#000000" font-family="sans-serif" font-size="13" lengthAdjust="spacing" textLength="43" x="527.958" y="621.0669">makes</text><text fill="#000000" font-family="sans-serif" font-size="13" lengthAdjust="spacing" textLength="8" x="447.5223" y="581.2593">1</text><text fill="#000000" font-family="sans-serif" font-size="13" lengthAdjust="spacing" textLength="23" x="515.3615" y="644.0238">1..*</text><!--MD5=[eb2841599ae34f779ed08a26b36af173]
@startuml
skinparam classAttributeIconSize 0
hide methods
top to bottom direction

class Platform{

}

class CentralAPI{
  -List ParkAPI
}

class AuthenticationAPI{
}

class PaymentAPI{
}

class QRcodeAPI{
}


class Admin {
  -Integer ID
  -string email
  -string name
}

class User {
  -String userID
  -String name	
  -String nif
  -String email
  -Decimal credit
}

class ParkingLot{
  -Integer parkingLotID
  -String name
  -String companyOwner
  -String location
  -Integer capacity
  -DateTime openingTime
  -DateTime closingTime
}

class ParkingSpot {
  -String parkingSpotID
  -Decimal priceHour
  -String floor*
  -Bool isPrivate*
  -Bool isCovered*
  -Integer parkingLotID
}

class Reservation {
  -String reservationID
  -DateTime startTime
  -Integer hours
  -Decimal finalPrice
  -DateTime endTime
  -String parkingSpotID
}

class SubLet {
  -string subLetID
  -string reservationID
  -integer letHours
  -decimal letPrice
  -string userID
  -string userID*
  -DateTime startTime
  -DateTime endTime
}

Platform "1" - - "1" CentralAPI : connects >

CentralAPI "1" - - "1..*" AuthenticationAPI : consumes >
CentralAPI "1" - - "1..*" User : has >
CentralAPI "1" - - "1...*" ParkingLot : has >
CentralAPI "1" - - "1...*" Admin : is managed >
CentralAPI "1" - - "1...*" PaymentAPI : consumes >

ParkingLot "1" - - "1..*" Admin : is managed >
ParkingLot "1" - - "1...*" ParkingSpot : has >

ParkingSpot "1" - - "1...*" Reservation : has >

Reservation "1" - - "1...*" PaymentAPI : uses >
Reservation "1" - - "1...*" SubLet : can have >
Reservation "1" - - "1..*" QRcodeAPI : has >

QRcodeAPI "1" - - "1" User : sent by email >

SubLet "1" - - "1...*" PaymentAPI : uses >

User "1" - - "1..*" User: sublets >
User "1" - - "1..*" SubLet: has >
User "1" - - "1..*" Platform : uses >
User "1" - - "1..*" AuthenticationAPI : authenticates >
User "1" - - "1..*" PaymentAPI : uses >
User "1" - - "1..*" Reservation : makes >
@enduml

PlantUML version 1.2021.01beta7(Unknown compile time)
(GPL source distribution)
Java Runtime: Java(TM) SE Runtime Environment
JVM: Java HotSpot(TM) 64-Bit Server VM
Default Encoding: UTF-8
Language: en
Country: US
--></g></svg>