<?xml version="1.0" encoding="UTF-8" standalone="no"?><svg xmlns="http://www.w3.org/2000/svg" xmlns:xlink="http://www.w3.org/1999/xlink" contentScriptType="application/ecmascript" contentStyleType="text/css" height="766px" preserveAspectRatio="none" style="width:1629px;height:766px;" version="1.1" viewBox="0 0 1629 766" width="1629px" zoomAndPan="magnify"><defs><filter height="300%" id="f1dn4c9x73mq5" width="300%" x="-1" y="-1"><feGaussianBlur result="blurOut" stdDeviation="2.0"/><feColorMatrix in="blurOut" result="blurOut2" type="matrix" values="0 0 0 0 0 0 0 0 0 0 0 0 0 0 0 0 0 0 .4 0"/><feOffset dx="4.0" dy="4.0" in="blurOut2" result="blurOut3"/><feBlend in="SourceGraphic" in2="blurOut3" mode="normal"/></filter></defs><g><!--MD5=[99b8db98afdc2c8404e39242ef4c1e65]
class Platform--><rect codeLine="5" fill="#FEFECE" filter="url(#f1dn4c9x73mq5)" height="40" id="Platform" style="stroke:#A80036;stroke-width:1.5;" width="80" x="7" y="425.5659"/><ellipse cx="22" cy="441.5659" fill="#ADD1B2" rx="11" ry="11" style="stroke:#A80036;stroke-width:1.0;"/><path d="M24.3438,437.2378 C23.4063,436.8003 22.8125,436.6597 21.9375,436.6597 C19.3125,436.6597 17.3125,438.7378 17.3125,441.4565 L17.3125,442.5815 C17.3125,445.1597 19.4219,447.0503 22.3125,447.0503 C23.5313,447.0503 24.6875,446.7534 25.4375,446.2065 C26.0156,445.8003 26.3438,445.3472 26.3438,444.9565 C26.3438,444.5034 25.9531,444.1128 25.4844,444.1128 C25.2656,444.1128 25.0625,444.1909 24.875,444.3784 C24.4219,444.8628 24.4219,444.8628 24.2344,444.9565 C23.8125,445.2222 23.125,445.3472 22.3594,445.3472 C20.3125,445.3472 19.0156,444.2534 19.0156,442.5503 L19.0156,441.4565 C19.0156,439.6753 20.2656,438.3628 22,438.3628 C22.5781,438.3628 23.1875,438.519 23.6563,438.769 C24.1406,439.0503 24.3125,439.269 24.4063,439.6753 C24.4688,440.0815 24.5,440.2065 24.6406,440.3315 C24.7813,440.4722 25.0156,440.5815 25.2344,440.5815 C25.5,440.5815 25.7656,440.4409 25.9375,440.2222 C26.0469,440.0659 26.0781,439.8784 26.0781,439.4565 L26.0781,438.0347 C26.0781,437.5972 26.0625,437.4722 25.9688,437.3159 C25.8125,437.0503 25.5313,436.9097 25.2344,436.9097 C24.9375,436.9097 24.7344,437.0034 24.5156,437.3159 L24.3438,437.2378 Z " fill="#000000"/><text fill="#000000" font-family="sans-serif" font-size="12" lengthAdjust="spacing" textLength="48" x="36" y="445.7202">Platform</text><line style="stroke:#A80036;stroke-width:1.5;" x1="8" x2="86" y1="457.5659" y2="457.5659"/><!--MD5=[45aeaa341fef25f20606e62afa73950f]
class CentralAPI--><rect codeLine="9" fill="#FEFECE" filter="url(#f1dn4c9x73mq5)" height="52.8047" id="CentralAPI" style="stroke:#A80036;stroke-width:1.5;" width="91" x="220" y="178.0659"/><ellipse cx="235" cy="194.0659" fill="#ADD1B2" rx="11" ry="11" style="stroke:#A80036;stroke-width:1.0;"/><path d="M237.3438,189.7378 C236.4063,189.3003 235.8125,189.1597 234.9375,189.1597 C232.3125,189.1597 230.3125,191.2378 230.3125,193.9565 L230.3125,195.0815 C230.3125,197.6597 232.4219,199.5503 235.3125,199.5503 C236.5313,199.5503 237.6875,199.2534 238.4375,198.7065 C239.0156,198.3003 239.3438,197.8472 239.3438,197.4565 C239.3438,197.0034 238.9531,196.6128 238.4844,196.6128 C238.2656,196.6128 238.0625,196.6909 237.875,196.8784 C237.4219,197.3628 237.4219,197.3628 237.2344,197.4565 C236.8125,197.7222 236.125,197.8472 235.3594,197.8472 C233.3125,197.8472 232.0156,196.7534 232.0156,195.0503 L232.0156,193.9565 C232.0156,192.1753 233.2656,190.8628 235,190.8628 C235.5781,190.8628 236.1875,191.019 236.6563,191.269 C237.1406,191.5503 237.3125,191.769 237.4063,192.1753 C237.4688,192.5815 237.5,192.7065 237.6406,192.8315 C237.7813,192.9722 238.0156,193.0815 238.2344,193.0815 C238.5,193.0815 238.7656,192.9409 238.9375,192.7222 C239.0469,192.5659 239.0781,192.3784 239.0781,191.9565 L239.0781,190.5347 C239.0781,190.0972 239.0625,189.9722 238.9688,189.8159 C238.8125,189.5503 238.5313,189.4097 238.2344,189.4097 C237.9375,189.4097 237.7344,189.5034 237.5156,189.8159 L237.3438,189.7378 Z " fill="#000000"/><text fill="#000000" font-family="sans-serif" font-size="12" lengthAdjust="spacing" textLength="59" x="249" y="198.2202">CentralAPI</text><line style="stroke:#A80036;stroke-width:1.5;" x1="221" x2="310" y1="210.0659" y2="210.0659"/><text fill="#000000" font-family="sans-serif" font-size="11" lengthAdjust="spacing" textLength="67" x="226" y="224.2764">-List ParkAPI</text><!--MD5=[1082e5a79ce2eb21d0bc0571cb719e1c]
class AuthenticationAPI--><rect codeLine="13" fill="#FEFECE" filter="url(#f1dn4c9x73mq5)" height="40" id="AuthenticationAPI" style="stroke:#A80036;stroke-width:1.5;" width="133" x="1013" y="154.5659"/><ellipse cx="1028" cy="170.5659" fill="#ADD1B2" rx="11" ry="11" style="stroke:#A80036;stroke-width:1.0;"/><path d="M1030.3438,166.2378 C1029.4063,165.8003 1028.8125,165.6597 1027.9375,165.6597 C1025.3125,165.6597 1023.3125,167.7378 1023.3125,170.4565 L1023.3125,171.5815 C1023.3125,174.1597 1025.4219,176.0503 1028.3125,176.0503 C1029.5313,176.0503 1030.6875,175.7534 1031.4375,175.2065 C1032.0156,174.8003 1032.3438,174.3472 1032.3438,173.9565 C1032.3438,173.5034 1031.9531,173.1128 1031.4844,173.1128 C1031.2656,173.1128 1031.0625,173.1909 1030.875,173.3784 C1030.4219,173.8628 1030.4219,173.8628 1030.2344,173.9565 C1029.8125,174.2222 1029.125,174.3472 1028.3594,174.3472 C1026.3125,174.3472 1025.0156,173.2534 1025.0156,171.5503 L1025.0156,170.4565 C1025.0156,168.6753 1026.2656,167.3628 1028,167.3628 C1028.5781,167.3628 1029.1875,167.519 1029.6563,167.769 C1030.1406,168.0503 1030.3125,168.269 1030.4063,168.6753 C1030.4688,169.0815 1030.5,169.2065 1030.6406,169.3315 C1030.7813,169.4722 1031.0156,169.5815 1031.2344,169.5815 C1031.5,169.5815 1031.7656,169.4409 1031.9375,169.2222 C1032.0469,169.0659 1032.0781,168.8784 1032.0781,168.4565 L1032.0781,167.0347 C1032.0781,166.5972 1032.0625,166.4722 1031.9688,166.3159 C1031.8125,166.0503 1031.5313,165.9097 1031.2344,165.9097 C1030.9375,165.9097 1030.7344,166.0034 1030.5156,166.3159 L1030.3438,166.2378 Z " fill="#000000"/><text fill="#000000" font-family="sans-serif" font-size="12" lengthAdjust="spacing" textLength="101" x="1042" y="174.7202">AuthenticationAPI</text><line style="stroke:#A80036;stroke-width:1.5;" x1="1014" x2="1145" y1="186.5659" y2="186.5659"/><!--MD5=[b9b2b358c4596a7c3c612fa1a577c109]
class PaymentAPI--><rect codeLine="16" fill="#FEFECE" filter="url(#f1dn4c9x73mq5)" height="40" id="PaymentAPI" style="stroke:#A80036;stroke-width:1.5;" width="99" x="1516" y="489.5659"/><ellipse cx="1531" cy="505.5659" fill="#ADD1B2" rx="11" ry="11" style="stroke:#A80036;stroke-width:1.0;"/><path d="M1533.3438,501.2378 C1532.4063,500.8003 1531.8125,500.6597 1530.9375,500.6597 C1528.3125,500.6597 1526.3125,502.7378 1526.3125,505.4565 L1526.3125,506.5815 C1526.3125,509.1597 1528.4219,511.0503 1531.3125,511.0503 C1532.5313,511.0503 1533.6875,510.7534 1534.4375,510.2065 C1535.0156,509.8003 1535.3438,509.3472 1535.3438,508.9565 C1535.3438,508.5034 1534.9531,508.1128 1534.4844,508.1128 C1534.2656,508.1128 1534.0625,508.1909 1533.875,508.3784 C1533.4219,508.8628 1533.4219,508.8628 1533.2344,508.9565 C1532.8125,509.2222 1532.125,509.3472 1531.3594,509.3472 C1529.3125,509.3472 1528.0156,508.2534 1528.0156,506.5503 L1528.0156,505.4565 C1528.0156,503.6753 1529.2656,502.3628 1531,502.3628 C1531.5781,502.3628 1532.1875,502.519 1532.6563,502.769 C1533.1406,503.0503 1533.3125,503.269 1533.4063,503.6753 C1533.4688,504.0815 1533.5,504.2065 1533.6406,504.3315 C1533.7813,504.4722 1534.0156,504.5815 1534.2344,504.5815 C1534.5,504.5815 1534.7656,504.4409 1534.9375,504.2222 C1535.0469,504.0659 1535.0781,503.8784 1535.0781,503.4565 L1535.0781,502.0347 C1535.0781,501.5972 1535.0625,501.4722 1534.9688,501.3159 C1534.8125,501.0503 1534.5313,500.9097 1534.2344,500.9097 C1533.9375,500.9097 1533.7344,501.0034 1533.5156,501.3159 L1533.3438,501.2378 Z " fill="#000000"/><text fill="#000000" font-family="sans-serif" font-size="12" lengthAdjust="spacing" textLength="67" x="1545" y="509.7202">PaymentAPI</text><line style="stroke:#A80036;stroke-width:1.5;" x1="1517" x2="1614" y1="521.5659" y2="521.5659"/><!--MD5=[7cca23c7038e5b786a40cb26544f2e56]
class QRcodeAPI--><rect codeLine="19" fill="#FEFECE" filter="url(#f1dn4c9x73mq5)" height="40" id="QRcodeAPI" style="stroke:#A80036;stroke-width:1.5;" width="97" x="1297" y="334.5659"/><ellipse cx="1312" cy="350.5659" fill="#ADD1B2" rx="11" ry="11" style="stroke:#A80036;stroke-width:1.0;"/><path d="M1314.3438,346.2378 C1313.4063,345.8003 1312.8125,345.6597 1311.9375,345.6597 C1309.3125,345.6597 1307.3125,347.7378 1307.3125,350.4565 L1307.3125,351.5815 C1307.3125,354.1597 1309.4219,356.0503 1312.3125,356.0503 C1313.5313,356.0503 1314.6875,355.7534 1315.4375,355.2065 C1316.0156,354.8003 1316.3438,354.3472 1316.3438,353.9565 C1316.3438,353.5034 1315.9531,353.1128 1315.4844,353.1128 C1315.2656,353.1128 1315.0625,353.1909 1314.875,353.3784 C1314.4219,353.8628 1314.4219,353.8628 1314.2344,353.9565 C1313.8125,354.2222 1313.125,354.3472 1312.3594,354.3472 C1310.3125,354.3472 1309.0156,353.2534 1309.0156,351.5503 L1309.0156,350.4565 C1309.0156,348.6753 1310.2656,347.3628 1312,347.3628 C1312.5781,347.3628 1313.1875,347.519 1313.6563,347.769 C1314.1406,348.0503 1314.3125,348.269 1314.4063,348.6753 C1314.4688,349.0815 1314.5,349.2065 1314.6406,349.3315 C1314.7813,349.4722 1315.0156,349.5815 1315.2344,349.5815 C1315.5,349.5815 1315.7656,349.4409 1315.9375,349.2222 C1316.0469,349.0659 1316.0781,348.8784 1316.0781,348.4565 L1316.0781,347.0347 C1316.0781,346.5972 1316.0625,346.4722 1315.9688,346.3159 C1315.8125,346.0503 1315.5313,345.9097 1315.2344,345.9097 C1314.9375,345.9097 1314.7344,346.0034 1314.5156,346.3159 L1314.3438,346.2378 Z " fill="#000000"/><text fill="#000000" font-family="sans-serif" font-size="12" lengthAdjust="spacing" textLength="65" x="1326" y="354.7202">QRcodeAPI</text><line style="stroke:#A80036;stroke-width:1.5;" x1="1298" x2="1393" y1="366.5659" y2="366.5659"/><!--MD5=[db6d18d8099558415abc41d00477ab92]
class Admin--><rect codeLine="23" fill="#FEFECE" filter="url(#f1dn4c9x73mq5)" height="78.4141" id="Admin" style="stroke:#A80036;stroke-width:1.5;" width="84" x="742" y="147.5659"/><ellipse cx="763.75" cy="163.5659" fill="#ADD1B2" rx="11" ry="11" style="stroke:#A80036;stroke-width:1.0;"/><path d="M766.0938,159.2378 C765.1563,158.8003 764.5625,158.6597 763.6875,158.6597 C761.0625,158.6597 759.0625,160.7378 759.0625,163.4565 L759.0625,164.5815 C759.0625,167.1597 761.1719,169.0503 764.0625,169.0503 C765.2813,169.0503 766.4375,168.7534 767.1875,168.2065 C767.7656,167.8003 768.0938,167.3472 768.0938,166.9565 C768.0938,166.5034 767.7031,166.1128 767.2344,166.1128 C767.0156,166.1128 766.8125,166.1909 766.625,166.3784 C766.1719,166.8628 766.1719,166.8628 765.9844,166.9565 C765.5625,167.2222 764.875,167.3472 764.1094,167.3472 C762.0625,167.3472 760.7656,166.2534 760.7656,164.5503 L760.7656,163.4565 C760.7656,161.6753 762.0156,160.3628 763.75,160.3628 C764.3281,160.3628 764.9375,160.519 765.4063,160.769 C765.8906,161.0503 766.0625,161.269 766.1563,161.6753 C766.2188,162.0815 766.25,162.2065 766.3906,162.3315 C766.5313,162.4722 766.7656,162.5815 766.9844,162.5815 C767.25,162.5815 767.5156,162.4409 767.6875,162.2222 C767.7969,162.0659 767.8281,161.8784 767.8281,161.4565 L767.8281,160.0347 C767.8281,159.5972 767.8125,159.4722 767.7188,159.3159 C767.5625,159.0503 767.2813,158.9097 766.9844,158.9097 C766.6875,158.9097 766.4844,159.0034 766.2656,159.3159 L766.0938,159.2378 Z " fill="#000000"/><text fill="#000000" font-family="sans-serif" font-size="12" lengthAdjust="spacing" textLength="37" x="779.25" y="167.7202">Admin</text><line style="stroke:#A80036;stroke-width:1.5;" x1="743" x2="825" y1="179.5659" y2="179.5659"/><text fill="#000000" font-family="sans-serif" font-size="11" lengthAdjust="spacing" textLength="61" x="748" y="193.7764">-Integer ID</text><text fill="#000000" font-family="sans-serif" font-size="11" lengthAdjust="spacing" textLength="71" x="748" y="206.5811">-string email</text><text fill="#000000" font-family="sans-serif" font-size="11" lengthAdjust="spacing" textLength="72" x="748" y="219.3857">-string name</text><!--MD5=[3fd616f346a44cd59a91eb10b19e157c]
class User--><rect codeLine="29" fill="#FEFECE" filter="url(#f1dn4c9x73mq5)" height="104.0234" id="User" style="stroke:#A80036;stroke-width:1.5;" width="99" x="734.5" y="458.5659"/><ellipse cx="766.6" cy="474.5659" fill="#ADD1B2" rx="11" ry="11" style="stroke:#A80036;stroke-width:1.0;"/><path d="M768.9438,470.2378 C768.0063,469.8003 767.4125,469.6597 766.5375,469.6597 C763.9125,469.6597 761.9125,471.7378 761.9125,474.4565 L761.9125,475.5815 C761.9125,478.1597 764.0219,480.0503 766.9125,480.0503 C768.1313,480.0503 769.2875,479.7534 770.0375,479.2065 C770.6156,478.8003 770.9438,478.3472 770.9438,477.9565 C770.9438,477.5034 770.5531,477.1128 770.0844,477.1128 C769.8656,477.1128 769.6625,477.1909 769.475,477.3784 C769.0219,477.8628 769.0219,477.8628 768.8344,477.9565 C768.4125,478.2222 767.725,478.3472 766.9594,478.3472 C764.9125,478.3472 763.6156,477.2534 763.6156,475.5503 L763.6156,474.4565 C763.6156,472.6753 764.8656,471.3628 766.6,471.3628 C767.1781,471.3628 767.7875,471.519 768.2563,471.769 C768.7406,472.0503 768.9125,472.269 769.0063,472.6753 C769.0688,473.0815 769.1,473.2065 769.2406,473.3315 C769.3813,473.4722 769.6156,473.5815 769.8344,473.5815 C770.1,473.5815 770.3656,473.4409 770.5375,473.2222 C770.6469,473.0659 770.6781,472.8784 770.6781,472.4565 L770.6781,471.0347 C770.6781,470.5972 770.6625,470.4722 770.5688,470.3159 C770.4125,470.0503 770.1313,469.9097 769.8344,469.9097 C769.5375,469.9097 769.3344,470.0034 769.1156,470.3159 L768.9438,470.2378 Z " fill="#000000"/><text fill="#000000" font-family="sans-serif" font-size="12" lengthAdjust="spacing" textLength="29" x="784.4" y="478.7202">User</text><line style="stroke:#A80036;stroke-width:1.5;" x1="735.5" x2="832.5" y1="490.5659" y2="490.5659"/><text fill="#000000" font-family="sans-serif" font-size="11" lengthAdjust="spacing" textLength="78" x="740.5" y="504.7764">-String userID</text><text fill="#000000" font-family="sans-serif" font-size="11" lengthAdjust="spacing" textLength="74" x="740.5" y="517.5811">-String name</text><text fill="#000000" font-family="sans-serif" font-size="11" lengthAdjust="spacing" textLength="55" x="740.5" y="530.3857">-String nif</text><text fill="#000000" font-family="sans-serif" font-size="11" lengthAdjust="spacing" textLength="73" x="740.5" y="543.1904">-String email</text><text fill="#000000" font-family="sans-serif" font-size="11" lengthAdjust="spacing" textLength="87" x="740.5" y="555.9951">-Decimal credit</text><!--MD5=[8836a49f4083a7550430b1f83332c96a]
class ParkingLot--><rect codeLine="37" fill="#FEFECE" filter="url(#f1dn4c9x73mq5)" height="129.6328" id="ParkingLot" style="stroke:#A80036;stroke-width:1.5;" width="152" x="416" y="240.5659"/><ellipse cx="457.55" cy="256.5659" fill="#ADD1B2" rx="11" ry="11" style="stroke:#A80036;stroke-width:1.0;"/><path d="M459.8938,252.2378 C458.9563,251.8003 458.3625,251.6597 457.4875,251.6597 C454.8625,251.6597 452.8625,253.7378 452.8625,256.4565 L452.8625,257.5815 C452.8625,260.1597 454.9719,262.0503 457.8625,262.0503 C459.0813,262.0503 460.2375,261.7534 460.9875,261.2065 C461.5656,260.8003 461.8938,260.3472 461.8938,259.9565 C461.8938,259.5034 461.5031,259.1128 461.0344,259.1128 C460.8156,259.1128 460.6125,259.1909 460.425,259.3784 C459.9719,259.8628 459.9719,259.8628 459.7844,259.9565 C459.3625,260.2222 458.675,260.3472 457.9094,260.3472 C455.8625,260.3472 454.5656,259.2534 454.5656,257.5503 L454.5656,256.4565 C454.5656,254.6753 455.8156,253.3628 457.55,253.3628 C458.1281,253.3628 458.7375,253.519 459.2063,253.769 C459.6906,254.0503 459.8625,254.269 459.9563,254.6753 C460.0188,255.0815 460.05,255.2065 460.1906,255.3315 C460.3313,255.4722 460.5656,255.5815 460.7844,255.5815 C461.05,255.5815 461.3156,255.4409 461.4875,255.2222 C461.5969,255.0659 461.6281,254.8784 461.6281,254.4565 L461.6281,253.0347 C461.6281,252.5972 461.6125,252.4722 461.5188,252.3159 C461.3625,252.0503 461.0813,251.9097 460.7844,251.9097 C460.4875,251.9097 460.2844,252.0034 460.0656,252.3159 L459.8938,252.2378 Z " fill="#000000"/><text fill="#000000" font-family="sans-serif" font-size="12" lengthAdjust="spacing" textLength="61" x="477.45" y="260.7202">ParkingLot</text><line style="stroke:#A80036;stroke-width:1.5;" x1="417" x2="567" y1="272.5659" y2="272.5659"/><text fill="#000000" font-family="sans-serif" font-size="11" lengthAdjust="spacing" textLength="119" x="422" y="286.7764">-Integer parkingLotID</text><text fill="#000000" font-family="sans-serif" font-size="11" lengthAdjust="spacing" textLength="74" x="422" y="299.5811">-String name</text><text fill="#000000" font-family="sans-serif" font-size="11" lengthAdjust="spacing" textLength="130" x="422" y="312.3857">-String companyOwner</text><text fill="#000000" font-family="sans-serif" font-size="11" lengthAdjust="spacing" textLength="85" x="422" y="325.1904">-String location</text><text fill="#000000" font-family="sans-serif" font-size="11" lengthAdjust="spacing" textLength="96" x="422" y="337.9951">-Integer capacity</text><text fill="#000000" font-family="sans-serif" font-size="11" lengthAdjust="spacing" textLength="140" x="422" y="350.7998">-DateTime openingTime</text><text fill="#000000" font-family="sans-serif" font-size="11" lengthAdjust="spacing" textLength="133" x="422" y="363.6045">-DateTime closingTime</text><!--MD5=[e8d1d02626a1df80ab81ee14c5101fbd]
class ParkingSpot--><rect codeLine="47" fill="#FEFECE" filter="url(#f1dn4c9x73mq5)" height="116.8281" id="ParkingSpot" style="stroke:#A80036;stroke-width:1.5;" width="132" x="718" y="261.0659"/><ellipse cx="746.05" cy="277.0659" fill="#ADD1B2" rx="11" ry="11" style="stroke:#A80036;stroke-width:1.0;"/><path d="M748.3938,272.7378 C747.4563,272.3003 746.8625,272.1597 745.9875,272.1597 C743.3625,272.1597 741.3625,274.2378 741.3625,276.9565 L741.3625,278.0815 C741.3625,280.6597 743.4719,282.5503 746.3625,282.5503 C747.5813,282.5503 748.7375,282.2534 749.4875,281.7065 C750.0656,281.3003 750.3938,280.8472 750.3938,280.4565 C750.3938,280.0034 750.0031,279.6128 749.5344,279.6128 C749.3156,279.6128 749.1125,279.6909 748.925,279.8784 C748.4719,280.3628 748.4719,280.3628 748.2844,280.4565 C747.8625,280.7222 747.175,280.8472 746.4094,280.8472 C744.3625,280.8472 743.0656,279.7534 743.0656,278.0503 L743.0656,276.9565 C743.0656,275.1753 744.3156,273.8628 746.05,273.8628 C746.6281,273.8628 747.2375,274.019 747.7063,274.269 C748.1906,274.5503 748.3625,274.769 748.4563,275.1753 C748.5188,275.5815 748.55,275.7065 748.6906,275.8315 C748.8313,275.9722 749.0656,276.0815 749.2844,276.0815 C749.55,276.0815 749.8156,275.9409 749.9875,275.7222 C750.0969,275.5659 750.1281,275.3784 750.1281,274.9565 L750.1281,273.5347 C750.1281,273.0972 750.1125,272.9722 750.0188,272.8159 C749.8625,272.5503 749.5813,272.4097 749.2844,272.4097 C748.9875,272.4097 748.7844,272.5034 748.5656,272.8159 L748.3938,272.7378 Z " fill="#000000"/><text fill="#000000" font-family="sans-serif" font-size="12" lengthAdjust="spacing" textLength="71" x="762.95" y="281.2202">ParkingSpot</text><line style="stroke:#A80036;stroke-width:1.5;" x1="719" x2="849" y1="293.0659" y2="293.0659"/><text fill="#000000" font-family="sans-serif" font-size="11" lengthAdjust="spacing" textLength="120" x="724" y="307.2764">-String parkingSpotID</text><text fill="#000000" font-family="sans-serif" font-size="11" lengthAdjust="spacing" textLength="109" x="724" y="320.0811">-Decimal priceHour</text><text fill="#000000" font-family="sans-serif" font-size="11" lengthAdjust="spacing" textLength="72" x="724" y="332.8857">-String floor*</text><text fill="#000000" font-family="sans-serif" font-size="11" lengthAdjust="spacing" textLength="87" x="724" y="345.6904">-Bool isPrivate*</text><text fill="#000000" font-family="sans-serif" font-size="11" lengthAdjust="spacing" textLength="97" x="724" y="358.4951">-Bool isCovered*</text><text fill="#000000" font-family="sans-serif" font-size="11" lengthAdjust="spacing" textLength="119" x="724" y="371.2998">-Integer parkingLotID</text><!--MD5=[9c46470aa33a0c75e6d1dfdefc2f9c22]
class Reservation--><rect codeLine="56" fill="#FEFECE" filter="url(#f1dn4c9x73mq5)" height="116.8281" id="Reservation" style="stroke:#A80036;stroke-width:1.5;" width="132" x="1013.5" y="396.0659"/><ellipse cx="1041.55" cy="412.0659" fill="#ADD1B2" rx="11" ry="11" style="stroke:#A80036;stroke-width:1.0;"/><path d="M1043.8938,407.7378 C1042.9563,407.3003 1042.3625,407.1597 1041.4875,407.1597 C1038.8625,407.1597 1036.8625,409.2378 1036.8625,411.9565 L1036.8625,413.0815 C1036.8625,415.6597 1038.9719,417.5503 1041.8625,417.5503 C1043.0813,417.5503 1044.2375,417.2534 1044.9875,416.7065 C1045.5656,416.3003 1045.8938,415.8472 1045.8938,415.4565 C1045.8938,415.0034 1045.5031,414.6128 1045.0344,414.6128 C1044.8156,414.6128 1044.6125,414.6909 1044.425,414.8784 C1043.9719,415.3628 1043.9719,415.3628 1043.7844,415.4565 C1043.3625,415.7222 1042.675,415.8472 1041.9094,415.8472 C1039.8625,415.8472 1038.5656,414.7534 1038.5656,413.0503 L1038.5656,411.9565 C1038.5656,410.1753 1039.8156,408.8628 1041.55,408.8628 C1042.1281,408.8628 1042.7375,409.019 1043.2063,409.269 C1043.6906,409.5503 1043.8625,409.769 1043.9563,410.1753 C1044.0188,410.5815 1044.05,410.7065 1044.1906,410.8315 C1044.3313,410.9722 1044.5656,411.0815 1044.7844,411.0815 C1045.05,411.0815 1045.3156,410.9409 1045.4875,410.7222 C1045.5969,410.5659 1045.6281,410.3784 1045.6281,409.9565 L1045.6281,408.5347 C1045.6281,408.0972 1045.6125,407.9722 1045.5188,407.8159 C1045.3625,407.5503 1045.0813,407.4097 1044.7844,407.4097 C1044.4875,407.4097 1044.2844,407.5034 1044.0656,407.8159 L1043.8938,407.7378 Z " fill="#000000"/><text fill="#000000" font-family="sans-serif" font-size="12" lengthAdjust="spacing" textLength="71" x="1058.45" y="416.2202">Reservation</text><line style="stroke:#A80036;stroke-width:1.5;" x1="1014.5" x2="1144.5" y1="428.0659" y2="428.0659"/><text fill="#000000" font-family="sans-serif" font-size="11" lengthAdjust="spacing" textLength="118" x="1019.5" y="442.2764">-String reservationID</text><text fill="#000000" font-family="sans-serif" font-size="11" lengthAdjust="spacing" textLength="119" x="1019.5" y="455.0811">-DateTime startTime</text><text fill="#000000" font-family="sans-serif" font-size="11" lengthAdjust="spacing" textLength="80" x="1019.5" y="467.8857">-Integer hours</text><text fill="#000000" font-family="sans-serif" font-size="11" lengthAdjust="spacing" textLength="106" x="1019.5" y="480.6904">-Decimal finalPrice</text><text fill="#000000" font-family="sans-serif" font-size="11" lengthAdjust="spacing" textLength="116" x="1019.5" y="493.4951">-DateTime endTime</text><text fill="#000000" font-family="sans-serif" font-size="11" lengthAdjust="spacing" textLength="120" x="1019.5" y="506.2998">-String parkingSpotID</text><!--MD5=[73af141fbddd6c75d0486fea917d5e23]
class SubLet--><rect codeLine="65" fill="#FEFECE" filter="url(#f1dn4c9x73mq5)" height="142.4375" id="SubLet" style="stroke:#A80036;stroke-width:1.5;" width="131" x="1280" y="609.5659"/><ellipse cx="1321.1" cy="625.5659" fill="#ADD1B2" rx="11" ry="11" style="stroke:#A80036;stroke-width:1.0;"/><path d="M1323.4438,621.2378 C1322.5063,620.8003 1321.9125,620.6597 1321.0375,620.6597 C1318.4125,620.6597 1316.4125,622.7378 1316.4125,625.4565 L1316.4125,626.5815 C1316.4125,629.1597 1318.5219,631.0503 1321.4125,631.0503 C1322.6313,631.0503 1323.7875,630.7534 1324.5375,630.2065 C1325.1156,629.8003 1325.4438,629.3472 1325.4438,628.9565 C1325.4438,628.5034 1325.0531,628.1128 1324.5844,628.1128 C1324.3656,628.1128 1324.1625,628.1909 1323.975,628.3784 C1323.5219,628.8628 1323.5219,628.8628 1323.3344,628.9565 C1322.9125,629.2222 1322.225,629.3472 1321.4594,629.3472 C1319.4125,629.3472 1318.1156,628.2534 1318.1156,626.5503 L1318.1156,625.4565 C1318.1156,623.6753 1319.3656,622.3628 1321.1,622.3628 C1321.6781,622.3628 1322.2875,622.519 1322.7563,622.769 C1323.2406,623.0503 1323.4125,623.269 1323.5063,623.6753 C1323.5688,624.0815 1323.6,624.2065 1323.7406,624.3315 C1323.8813,624.4722 1324.1156,624.5815 1324.3344,624.5815 C1324.6,624.5815 1324.8656,624.4409 1325.0375,624.2222 C1325.1469,624.0659 1325.1781,623.8784 1325.1781,623.4565 L1325.1781,622.0347 C1325.1781,621.5972 1325.1625,621.4722 1325.0688,621.3159 C1324.9125,621.0503 1324.6313,620.9097 1324.3344,620.9097 C1324.0375,620.9097 1323.8344,621.0034 1323.6156,621.3159 L1323.4438,621.2378 Z " fill="#000000"/><text fill="#000000" font-family="sans-serif" font-size="12" lengthAdjust="spacing" textLength="41" x="1340.9" y="629.7202">SubLet</text><line style="stroke:#A80036;stroke-width:1.5;" x1="1281" x2="1410" y1="641.5659" y2="641.5659"/><text fill="#000000" font-family="sans-serif" font-size="11" lengthAdjust="spacing" textLength="89" x="1286" y="655.7764">-string subLetID</text><text fill="#000000" font-family="sans-serif" font-size="11" lengthAdjust="spacing" textLength="116" x="1286" y="668.5811">-string reservationID</text><text fill="#000000" font-family="sans-serif" font-size="11" lengthAdjust="spacing" textLength="96" x="1286" y="681.3857">-integer letHours</text><text fill="#000000" font-family="sans-serif" font-size="11" lengthAdjust="spacing" textLength="95" x="1286" y="694.1904">-decimal letPrice</text><text fill="#000000" font-family="sans-serif" font-size="11" lengthAdjust="spacing" textLength="76" x="1286" y="706.9951">-string userID</text><text fill="#000000" font-family="sans-serif" font-size="11" lengthAdjust="spacing" textLength="82" x="1286" y="719.7998">-string userID*</text><text fill="#000000" font-family="sans-serif" font-size="11" lengthAdjust="spacing" textLength="119" x="1286" y="732.6045">-DateTime startTime</text><text fill="#000000" font-family="sans-serif" font-size="11" lengthAdjust="spacing" textLength="116" x="1286" y="745.4092">-DateTime endTime</text><!--MD5=[c28f3a27f05f6e4cd4e15e0769de5f8b]
link Platform to CentralAPI--><path codeLine="76" d="M66.0863,425.4329 C105.0098,382.1049 196.727,280.0079 240.473,231.3119 " fill="none" id="Platform-CentralAPI" style="stroke:#A80036;stroke-width:1.0;"/><polygon fill="#000000" points="125.3414,276.4128,117.1105,281.1775,121.483,285.1055,125.3414,276.4128" style="stroke:#000000;stroke-width:1.0;"/><text fill="#000000" font-family="sans-serif" font-size="13" lengthAdjust="spacing" textLength="58" x="131" y="284.6328">connects</text><text fill="#000000" font-family="sans-serif" font-size="13" lengthAdjust="spacing" textLength="8" x="62.5179" y="414.4021">1</text><text fill="#000000" font-family="sans-serif" font-size="13" lengthAdjust="spacing" textLength="8" x="226.1233" y="250.906">1</text><!--MD5=[4f37ba3d10b9c221c70d2e84278ddd82]
link CentralAPI to AuthenticationAPI--><path codeLine="78" d="M311.166,184.3659 C320.845,180.6169 331.14,177.0919 341,174.5659 C560.999,118.2009 623.968,107.5209 850,129.5659 C905.332,134.9629 967.144,147.5439 1012.51,158.0349 " fill="none" id="CentralAPI-AuthenticationAPI" style="stroke:#A80036;stroke-width:1.0;"/><polygon fill="#000000" points="612.4965,110.9447,603.3475,108.3472,603.568,114.2209,612.4965,110.9447" style="stroke:#000000;stroke-width:1.0;"/><text fill="#000000" font-family="sans-serif" font-size="13" lengthAdjust="spacing" textLength="66" x="616.5" y="115.6328">consumes</text><text fill="#000000" font-family="sans-serif" font-size="13" lengthAdjust="spacing" textLength="8" x="319.0815" y="194.4349">1</text><text fill="#000000" font-family="sans-serif" font-size="13" lengthAdjust="spacing" textLength="23" x="982.0322" y="169.2474">1..*</text><!--MD5=[534cb6648375a4bfb2a3ca2f4af4d3e9]
link CentralAPI to User--><path codeLine="79" d="M278.997,231.1129 C300.694,274.2999 349.466,359.5599 416,405.5659 C422.703,410.2009 635.881,469.7319 734.2,497.0409 " fill="none" id="CentralAPI-User" style="stroke:#A80036;stroke-width:1.0;"/><polygon fill="#000000" points="482.3173,399.6545,475.9897,392.5542,473.0248,397.6295,482.3173,399.6545" style="stroke:#000000;stroke-width:1.0;"/><text fill="#000000" font-family="sans-serif" font-size="13" lengthAdjust="spacing" textLength="23" x="487" y="401.6328">has</text><text fill="#000000" font-family="sans-serif" font-size="13" lengthAdjust="spacing" textLength="8" x="273.1932" y="251.0911">1</text><text fill="#000000" font-family="sans-serif" font-size="13" lengthAdjust="spacing" textLength="23" x="703.3459" y="508.3429">1..*</text><!--MD5=[1bbad24c7a375925995cd82632d00bc9]
link CentralAPI to ParkingLot--><path codeLine="80" d="M311.122,224.6409 C341.045,238.1029 381.189,256.1629 415.961,271.8069 " fill="none" id="CentralAPI-ParkingLot" style="stroke:#A80036;stroke-width:1.0;"/><polygon fill="#000000" points="354.0598,233.1837,347.0168,226.7925,344.6053,232.1529,354.0598,233.1837" style="stroke:#000000;stroke-width:1.0;"/><text fill="#000000" font-family="sans-serif" font-size="13" lengthAdjust="spacing" textLength="23" x="358.5" y="235.6328">has</text><text fill="#000000" font-family="sans-serif" font-size="13" lengthAdjust="spacing" textLength="8" x="319.0305" y="241.1287">1</text><text fill="#000000" font-family="sans-serif" font-size="13" lengthAdjust="spacing" textLength="27" x="380.9864" y="281.5574">1...*</text><!--MD5=[abe209d831a44ba556f3cc970731f6fd]
link CentralAPI to Admin--><path codeLine="81" d="M311.432,202.9999 C410.464,199.5489 646.286,191.3299 741.786,188.0019 " fill="none" id="CentralAPI-Admin" style="stroke:#A80036;stroke-width:1.0;"/><polygon fill="#000000" points="456.997,184.9582,447.855,182.3361,448.0597,188.2104,456.997,184.9582" style="stroke:#000000;stroke-width:1.0;"/><text fill="#000000" font-family="sans-serif" font-size="13" lengthAdjust="spacing" textLength="75" x="461" y="189.6328">is managed</text><text fill="#000000" font-family="sans-serif" font-size="13" lengthAdjust="spacing" textLength="8" x="319.0778" y="216.0006">1</text><text fill="#000000" font-family="sans-serif" font-size="13" lengthAdjust="spacing" textLength="27" x="706.9512" y="201.3057">1...*</text><!--MD5=[bc318b7b2235170839f8a61959d157b6]
link CentralAPI to PaymentAPI--><path codeLine="82" d="M282.535,177.8589 C315.028,127.5109 393.873,23.5659 491,23.5659 C491,23.5659 491,23.5659 1346.5,23.5659 C1554.11,23.5659 1565.24,397.3229 1564.84,489.3019 " fill="none" id="CentralAPI-PaymentAPI" style="stroke:#A80036;stroke-width:1.0;"/><polygon fill="#000000" points="900.8587,16.3124,892.7628,11.3217,891.3756,17.0335,900.8587,16.3124" style="stroke:#000000;stroke-width:1.0;"/><text fill="#000000" font-family="sans-serif" font-size="13" lengthAdjust="spacing" textLength="66" x="905" y="19.6328">consumes</text><text fill="#000000" font-family="sans-serif" font-size="13" lengthAdjust="spacing" textLength="8" x="277.5493" y="167.0534">1</text><text fill="#000000" font-family="sans-serif" font-size="13" lengthAdjust="spacing" textLength="27" x="1533.8575" y="478.5789">1...*</text><!--MD5=[958e8d4713a2a8f6658c9252c39bef85]
link ParkingLot to Admin--><path codeLine="84" d="M568.059,274.7659 C623.441,252.0399 696.723,221.9689 741.824,203.4619 " fill="none" id="ParkingLot-Admin" style="stroke:#A80036;stroke-width:1.0;"/><polygon fill="#000000" points="607.6257,217.2342,598.142,217.949,600.3734,223.3869,607.6257,217.2342" style="stroke:#000000;stroke-width:1.0;"/><text fill="#000000" font-family="sans-serif" font-size="13" lengthAdjust="spacing" textLength="75" x="612" y="223.6328">is managed</text><text fill="#000000" font-family="sans-serif" font-size="13" lengthAdjust="spacing" textLength="8" x="575.9398" y="284.5638">1</text><text fill="#000000" font-family="sans-serif" font-size="13" lengthAdjust="spacing" textLength="23" x="710.9403" y="219.0913">1..*</text><!--MD5=[5e93dd975e469842cc64e7a48c49d475]
link ParkingLot to ParkingSpot--><path codeLine="85" d="M568.059,309.1899 C614.379,311.4259 673.219,314.2659 717.622,316.4099 " fill="none" id="ParkingLot-ParkingSpot" style="stroke:#A80036;stroke-width:1.0;"/><polygon fill="#000000" points="633.9942,302.3734,625.1013,299.0018,624.8179,304.8728,633.9942,302.3734" style="stroke:#000000;stroke-width:1.0;"/><text fill="#000000" font-family="sans-serif" font-size="13" lengthAdjust="spacing" textLength="23" x="638" y="306.6328">has</text><text fill="#000000" font-family="sans-serif" font-size="13" lengthAdjust="spacing" textLength="8" x="575.9398" y="322.3764">1</text><text fill="#000000" font-family="sans-serif" font-size="13" lengthAdjust="spacing" textLength="27" x="683.0086" y="328.9054">1...*</text><!--MD5=[4dccc96e3e6c8a65718bd66cc267c1de]
link ParkingSpot to Reservation--><path codeLine="87" d="M850.012,263.7189 C859.569,257.9429 869.685,252.9559 880,249.5659 C923.49,235.2739 946.89,221.4289 983,249.5659 C1026.02,283.0899 989.328,319.4269 1013,368.5659 C1017.48,377.8659 1023.06,387.1389 1029.06,395.9679 " fill="none" id="ParkingSpot-Reservation" style="stroke:#A80036;stroke-width:1.0;"/><polygon fill="#000000" points="921.5219,227.103,915.9923,219.365,912.5002,224.093,921.5219,227.103" style="stroke:#000000;stroke-width:1.0;"/><text fill="#000000" font-family="sans-serif" font-size="13" lengthAdjust="spacing" textLength="23" x="926.5" y="228.6328">has</text><text fill="#000000" font-family="sans-serif" font-size="13" lengthAdjust="spacing" textLength="8" x="858.1071" y="270.2133">1</text><text fill="#000000" font-family="sans-serif" font-size="13" lengthAdjust="spacing" textLength="27" x="994.2628" y="384.9977">1...*</text><!--MD5=[eb1d94def20cc4429985d0722fbafb53]
link Reservation to PaymentAPI--><path codeLine="89" d="M1145.52,461.9549 C1243.88,473.1319 1428.28,494.0859 1515.89,504.0419 " fill="none" id="Reservation-PaymentAPI" style="stroke:#A80036;stroke-width:1.0;"/><polygon fill="#000000" points="1332.968,468.6969,1324.3126,464.7555,1323.649,470.5957,1332.968,468.6969" style="stroke:#000000;stroke-width:1.0;"/><text fill="#000000" font-family="sans-serif" font-size="13" lengthAdjust="spacing" textLength="30" x="1337" y="472.6328">uses</text><text fill="#000000" font-family="sans-serif" font-size="13" lengthAdjust="spacing" textLength="8" x="1153.6161" y="475.761">1</text><text fill="#000000" font-family="sans-serif" font-size="13" lengthAdjust="spacing" textLength="27" x="1480.804" y="516.3705">1...*</text><!--MD5=[39b0970f240dff78a5aaab86d295e454]
link Reservation to SubLet--><path codeLine="90" d="M1145.75,488.7669 C1192.54,513.3599 1247.72,542.5409 1250,544.5659 C1270.75,562.9819 1289.29,586.8389 1304.33,609.4179 " fill="none" id="Reservation-SubLet" style="stroke:#A80036;stroke-width:1.0;"/><polygon fill="#000000" points="1184.9792,500.1598,1179.5602,492.3441,1176.0012,497.022,1184.9792,500.1598" style="stroke:#000000;stroke-width:1.0;"/><text fill="#000000" font-family="sans-serif" font-size="13" lengthAdjust="spacing" textLength="59" x="1190" y="501.6328">can have</text><text fill="#000000" font-family="sans-serif" font-size="13" lengthAdjust="spacing" textLength="8" x="1153.4336" y="505.4115">1</text><text fill="#000000" font-family="sans-serif" font-size="13" lengthAdjust="spacing" textLength="27" x="1271.6922" y="598.3585">1...*</text><!--MD5=[e5483b6d594f51cfe5a7ef9869301148]
link Reservation to QRcodeAPI--><path codeLine="91" d="M1145.76,429.8469 C1192.63,412.0909 1254.75,388.5619 1296.98,372.5679 " fill="none" id="Reservation-QRcodeAPI" style="stroke:#A80036;stroke-width:1.0;"/><polygon fill="#000000" points="1203.6758,382.3612,1194.1762,382.8168,1196.2582,388.3135,1203.6758,382.3612" style="stroke:#000000;stroke-width:1.0;"/><text fill="#000000" font-family="sans-serif" font-size="13" lengthAdjust="spacing" textLength="23" x="1208" y="388.6328">has</text><text fill="#000000" font-family="sans-serif" font-size="13" lengthAdjust="spacing" textLength="8" x="1153.4447" y="440.0471">1</text><text fill="#000000" font-family="sans-serif" font-size="13" lengthAdjust="spacing" textLength="23" x="1265.9148" y="388.0706">1..*</text><!--MD5=[c3d8d4bc89ccfb97c622999a829cf3cb]
link QRcodeAPI to User--><path codeLine="93" d="M1296.78,351.9749 C1231.4,349.7759 1110.92,350.5799 1013,378.5659 C945.934,397.7329 877.862,440.9059 833.782,472.6829 " fill="none" id="QRcodeAPI-User" style="stroke:#A80036;stroke-width:1.0;"/><polygon fill="#000000" points="1028.6617,348.3937,1038.1557,348.9557,1036.6728,343.268,1028.6617,348.3937" style="stroke:#000000;stroke-width:1.0;"/><text fill="#000000" font-family="sans-serif" font-size="13" lengthAdjust="spacing" textLength="87" x="1042.5" y="351.6328">sent by email</text><text fill="#000000" font-family="sans-serif" font-size="13" lengthAdjust="spacing" textLength="8" x="1281.0368" y="364.7726">1</text><text fill="#000000" font-family="sans-serif" font-size="13" lengthAdjust="spacing" textLength="8" x="841.3451" y="480.4849">1</text><!--MD5=[7063a669f3bda7e596e3fc2785196080]
link SubLet to PaymentAPI--><path codeLine="95" d="M1411.17,648.7989 C1435.77,635.2679 1463.32,618.2789 1486,599.5659 C1511.27,578.7189 1535.25,549.3219 1549.91,529.8699 " fill="none" id="SubLet-PaymentAPI" style="stroke:#A80036;stroke-width:1.0;"/><polygon fill="#000000" points="1449.7962,587.8782,1441.0161,591.5336,1444.8416,595.9963,1449.7962,587.8782" style="stroke:#000000;stroke-width:1.0;"/><text fill="#000000" font-family="sans-serif" font-size="13" lengthAdjust="spacing" textLength="30" x="1455" y="595.6328">uses</text><text fill="#000000" font-family="sans-serif" font-size="13" lengthAdjust="spacing" textLength="8" x="1418.7902" y="658.1949">1</text><text fill="#000000" font-family="sans-serif" font-size="13" lengthAdjust="spacing" textLength="27" x="1514.7284" y="549.7754">1...*</text><!--MD5=[993a1ed30139d6bc9fd462e29443e622]
link User to User--><path codeLine="97" d="M757.79,458.3309 C757.08,439.2209 765.816,423.5659 784,423.5659 C802.184,423.5659 810.92,439.2209 810.21,458.3309 " fill="none" id="User-User" style="stroke:#A80036;stroke-width:1.0;"/><polygon fill="#000000" points="748.5034,409.9467,757.4332,413.2194,757.6514,407.3456,748.5034,409.9467" style="stroke:#000000;stroke-width:1.0;"/><text fill="#000000" font-family="sans-serif" font-size="13" lengthAdjust="spacing" textLength="46" x="767.5" y="414.6328">sublets</text><text fill="#000000" font-family="sans-serif" font-size="13" lengthAdjust="spacing" textLength="8" x="745.7305" y="447.3783">1</text><text fill="#000000" font-family="sans-serif" font-size="13" lengthAdjust="spacing" textLength="23" x="789.1867" y="447.3783">1..*</text><!--MD5=[438065722335a144b512313feb973302]
link User to SubLet--><path codeLine="98" d="M833.707,561.1009 C847.624,573.0479 863.518,584.6109 880,592.5659 C1012.31,656.4247 1186.69,674.0047 1279.62,678.803 " fill="none" id="User-SubLet" style="stroke:#A80036;stroke-width:1.0;"/><polygon fill="#000000" points="1070.3344,632.4084,1062.3389,627.2584,1060.8388,632.9416,1070.3344,632.4084" style="stroke:#000000;stroke-width:1.0;"/><text fill="#000000" font-family="sans-serif" font-size="13" lengthAdjust="spacing" textLength="23" x="1074.5" y="635.6328">has</text><text fill="#000000" font-family="sans-serif" font-size="13" lengthAdjust="spacing" textLength="8" x="841.5952" y="581.6997">1</text><text fill="#000000" font-family="sans-serif" font-size="13" lengthAdjust="spacing" textLength="23" x="1249.0029" y="691.4197">1..*</text><!--MD5=[be2d53e739b11a6facbafff01ae8b5e0]
link User to Platform--><path codeLine="99" d="M734.323,506.2609 C597.563,494.1669 211.752,460.0479 87.2569,449.0379 " fill="none" id="User-Platform" style="stroke:#A80036;stroke-width:1.0;"/><polygon fill="#000000" points="341.0194,462.6919,349.7705,466.4162,350.2883,460.5612,341.0194,462.6919" style="stroke:#000000;stroke-width:1.0;"/><text fill="#000000" font-family="sans-serif" font-size="13" lengthAdjust="spacing" textLength="30" x="355" y="467.6328">uses</text><text fill="#000000" font-family="sans-serif" font-size="13" lengthAdjust="spacing" textLength="8" x="718.4392" y="518.8051">1</text><text fill="#000000" font-family="sans-serif" font-size="13" lengthAdjust="spacing" textLength="23" x="94.8587" y="462.7261">1..*</text><!--MD5=[ba1c15311d2efcbbd5937150a6a2d35d]
link User to AuthenticationAPI--><path codeLine="100" d="M817.248,458.4049 C828.451,439.0799 840.56,416.7179 850,395.5659 C867.013,357.4479 850.133,335.7279 880,306.5659 C914.298,273.0769 942.254,299.8179 983,274.5659 C1017.08,253.4469 1047.33,217.3259 1064.25,194.7639 " fill="none" id="User-AuthenticationAPI" style="stroke:#A80036;stroke-width:1.0;"/><polygon fill="#000000" points="888.4185,262.4835,880.0897,267.0749,884.3791,271.0936,888.4185,262.4835" style="stroke:#000000;stroke-width:1.0;"/><text fill="#000000" font-family="sans-serif" font-size="13" lengthAdjust="spacing" textLength="88" x="894" y="270.6328">authenticates</text><text fill="#000000" font-family="sans-serif" font-size="13" lengthAdjust="spacing" textLength="8" x="822.2532" y="447.4622">1</text><text fill="#000000" font-family="sans-serif" font-size="13" lengthAdjust="spacing" textLength="23" x="1033.7266" y="214.6396">1..*</text><!--MD5=[824e93652598fae7e851d95a77a350d5]
link User to PaymentAPI--><path codeLine="101" d="M833.758,523.8909 C918.309,545.3959 1097.69,583.9649 1250,569.5659 C1345.18,560.5679 1454.43,536.5759 1515.88,521.7999 " fill="none" id="User-PaymentAPI" style="stroke:#A80036;stroke-width:1.0;"/><polygon fill="#000000" points="1200.5,561.117,1191.4459,558.2058,1191.4639,564.0836,1200.5,561.117" style="stroke:#000000;stroke-width:1.0;"/><text fill="#000000" font-family="sans-serif" font-size="13" lengthAdjust="spacing" textLength="30" x="1204.5" y="565.6328">uses</text><text fill="#000000" font-family="sans-serif" font-size="13" lengthAdjust="spacing" textLength="8" x="841.6537" y="539.0245">1</text><text fill="#000000" font-family="sans-serif" font-size="13" lengthAdjust="spacing" textLength="23" x="1485.049" y="536.4037">1..*</text><!--MD5=[c24e85aca65080b7f8317b6a9db850e8]
link User to Reservation--><path codeLine="102" d="M833.795,501.2559 C882.941,491.8789 959.061,477.3549 1013.34,466.9979 " fill="none" id="User-Reservation" style="stroke:#A80036;stroke-width:1.0;"/><polygon fill="#000000" points="912.4114,464.1952,902.9758,463.0036,904.0774,468.7773,912.4114,464.1952" style="stroke:#000000;stroke-width:1.0;"/><text fill="#000000" font-family="sans-serif" font-size="13" lengthAdjust="spacing" textLength="43" x="916.5" y="469.6328">makes</text><text fill="#000000" font-family="sans-serif" font-size="13" lengthAdjust="spacing" textLength="8" x="841.3599" y="513.076">1</text><text fill="#000000" font-family="sans-serif" font-size="13" lengthAdjust="spacing" textLength="23" x="982.3368" y="481.136">1..*</text><!--MD5=[eb95707afbad6ab8c540cd12f7ac2b7b]
@startuml
skinparam classAttributeIconSize 0
hide methods
left to right direction

class Platform{

}

class CentralAPI{
  -List ParkAPI
}

class AuthenticationAPI{
}

class PaymentAPI{
}

class QRcodeAPI{
}


class Admin {
  -Integer ID
  -string email
  -string name
}

class User {
  -String userID
  -String name	
  -String nif
  -String email
  -Decimal credit
}

class ParkingLot{
  -Integer parkingLotID
  -String name
  -String companyOwner
  -String location
  -Integer capacity
  -DateTime openingTime
  -DateTime closingTime
}

class ParkingSpot {
  -String parkingSpotID
  -Decimal priceHour
  -String floor*
  -Bool isPrivate*
  -Bool isCovered*
  -Integer parkingLotID
}

class Reservation {
  -String reservationID
  -DateTime startTime
  -Integer hours
  -Decimal finalPrice
  -DateTime endTime
  -String parkingSpotID
}

class SubLet {
  -string subLetID
  -string reservationID
  -integer letHours
  -decimal letPrice
  -string userID
  -string userID*
  -DateTime startTime
  -DateTime endTime
}

Platform "1" - - "1" CentralAPI : connects >

CentralAPI "1" - - "1..*" AuthenticationAPI : consumes >
CentralAPI "1" - - "1..*" User : has >
CentralAPI "1" - - "1...*" ParkingLot : has >
CentralAPI "1" - - "1...*" Admin : is managed >
CentralAPI "1" - - "1...*" PaymentAPI : consumes >

ParkingLot "1" - - "1..*" Admin : is managed >
ParkingLot "1" - - "1...*" ParkingSpot : has >

ParkingSpot "1" - - "1...*" Reservation : has >

Reservation "1" - - "1...*" PaymentAPI : uses >
Reservation "1" - - "1...*" SubLet : can have >
Reservation "1" - - "1..*" QRcodeAPI : has >

QRcodeAPI "1" - - "1" User : sent by email >

SubLet "1" - - "1...*" PaymentAPI : uses >

User "1" - - "1..*" User: sublets >
User "1" - - "1..*" SubLet: has >
User "1" - - "1..*" Platform : uses >
User "1" - - "1..*" AuthenticationAPI : authenticates >
User "1" - - "1..*" PaymentAPI : uses >
User "1" - - "1..*" Reservation : makes >
@enduml

PlantUML version 1.2021.01beta7(Unknown compile time)
(GPL source distribution)
Java Runtime: Java(TM) SE Runtime Environment
JVM: Java HotSpot(TM) 64-Bit Server VM
Default Encoding: UTF-8
Language: en
Country: US
--></g></svg>