<?xml version="1.0" encoding="UTF-8" standalone="no"?><svg xmlns="http://www.w3.org/2000/svg" xmlns:xlink="http://www.w3.org/1999/xlink" contentScriptType="application/ecmascript" contentStyleType="text/css" height="425px" preserveAspectRatio="none" style="width:454px;height:425px;" version="1.1" viewBox="0 0 454 425" width="454px" zoomAndPan="magnify"><defs><filter height="300%" id="f1si5kolmgo1fy" width="300%" x="-1" y="-1"><feGaussianBlur result="blurOut" stdDeviation="2.0"/><feColorMatrix in="blurOut" result="blurOut2" type="matrix" values="0 0 0 0 0 0 0 0 0 0 0 0 0 0 0 0 0 0 .4 0"/><feOffset dx="4.0" dy="4.0" in="blurOut2" result="blurOut3"/><feBlend in="SourceGraphic" in2="blurOut3" mode="normal"/></filter></defs><g><rect fill="#FFFFFF" filter="url(#f1si5kolmgo1fy)" height="225.0625" style="stroke:#A80036;stroke-width:1.0;" width="10" x="18.5" y="98.2969"/><rect fill="#FFFFFF" filter="url(#f1si5kolmgo1fy)" height="29.1328" style="stroke:#A80036;stroke-width:1.0;" width="10" x="396.5" y="119.4297"/><rect fill="#FFFFFF" filter="url(#f1si5kolmgo1fy)" height="29.1328" style="stroke:#A80036;stroke-width:1.0;" width="10" x="396.5" y="177.6953"/><rect fill="#FFFFFF" filter="url(#f1si5kolmgo1fy)" height="29.1328" style="stroke:#A80036;stroke-width:1.0;" width="10" x="396.5" y="235.9609"/><rect fill="#FFFFFF" filter="url(#f1si5kolmgo1fy)" height="29.1328" style="stroke:#A80036;stroke-width:1.0;" width="10" x="396.5" y="294.2266"/><line style="stroke:#A80036;stroke-width:1.0;stroke-dasharray:5.0,5.0;" x1="23" x2="23" y1="88.2969" y2="341.3594"/><line style="stroke:#A80036;stroke-width:1.0;stroke-dasharray:5.0,5.0;" x1="401.5" x2="401.5" y1="88.2969" y2="341.3594"/><text fill="#000000" font-family="sans-serif" font-size="14" lengthAdjust="spacing" textLength="31" x="5" y="84.9951">User</text><ellipse cx="23.5" cy="15" fill="#FEFECE" filter="url(#f1si5kolmgo1fy)" rx="8" ry="8" style="stroke:#A80036;stroke-width:2.0;"/><path d="M23.5,23 L23.5,50 M10.5,31 L36.5,31 M23.5,50 L10.5,65 M23.5,50 L36.5,65 " fill="none" filter="url(#f1si5kolmgo1fy)" style="stroke:#A80036;stroke-width:2.0;"/><text fill="#000000" font-family="sans-serif" font-size="14" lengthAdjust="spacing" textLength="31" x="5" y="353.3545">User</text><ellipse cx="23.5" cy="366.6563" fill="#FEFECE" filter="url(#f1si5kolmgo1fy)" rx="8" ry="8" style="stroke:#A80036;stroke-width:2.0;"/><path d="M23.5,374.6563 L23.5,401.6563 M10.5,382.6563 L36.5,382.6563 M23.5,401.6563 L10.5,416.6563 M23.5,401.6563 L36.5,416.6563 " fill="none" filter="url(#f1si5kolmgo1fy)" style="stroke:#A80036;stroke-width:2.0;"/><rect fill="#FEFECE" filter="url(#f1si5kolmgo1fy)" height="30.2969" style="stroke:#A80036;stroke-width:1.5;" width="82" x="358.5" y="53"/><text fill="#000000" font-family="sans-serif" font-size="14" lengthAdjust="spacing" textLength="68" x="365.5" y="72.9951">:Platform</text><rect fill="#FEFECE" filter="url(#f1si5kolmgo1fy)" height="30.2969" style="stroke:#A80036;stroke-width:1.5;" width="82" x="358.5" y="340.3594"/><text fill="#000000" font-family="sans-serif" font-size="14" lengthAdjust="spacing" textLength="68" x="365.5" y="360.3545">:Platform</text><rect fill="#FFFFFF" filter="url(#f1si5kolmgo1fy)" height="225.0625" style="stroke:#A80036;stroke-width:1.0;" width="10" x="18.5" y="98.2969"/><rect fill="#FFFFFF" filter="url(#f1si5kolmgo1fy)" height="29.1328" style="stroke:#A80036;stroke-width:1.0;" width="10" x="396.5" y="119.4297"/><rect fill="#FFFFFF" filter="url(#f1si5kolmgo1fy)" height="29.1328" style="stroke:#A80036;stroke-width:1.0;" width="10" x="396.5" y="177.6953"/><rect fill="#FFFFFF" filter="url(#f1si5kolmgo1fy)" height="29.1328" style="stroke:#A80036;stroke-width:1.0;" width="10" x="396.5" y="235.9609"/><rect fill="#FFFFFF" filter="url(#f1si5kolmgo1fy)" height="29.1328" style="stroke:#A80036;stroke-width:1.0;" width="10" x="396.5" y="294.2266"/><polygon fill="#A80036" points="384.5,115.4297,394.5,119.4297,384.5,123.4297,388.5,119.4297" style="stroke:#A80036;stroke-width:1.0;"/><line style="stroke:#A80036;stroke-width:1.0;" x1="28.5" x2="390.5" y1="119.4297" y2="119.4297"/><text fill="#000000" font-family="sans-serif" font-size="13" font-weight="bold" lengthAdjust="spacing" textLength="9" x="35.5" y="114.3638">1</text><text fill="#000000" font-family="sans-serif" font-size="13" lengthAdjust="spacing" textLength="258" x="48.5" y="114.3638">asks to be authenticated in the Platform</text><polygon fill="#A80036" points="39.5,144.5625,29.5,148.5625,39.5,152.5625,35.5,148.5625" style="stroke:#A80036;stroke-width:1.0;"/><line style="stroke:#A80036;stroke-width:1.0;stroke-dasharray:2.0,2.0;" x1="33.5" x2="400.5" y1="148.5625" y2="148.5625"/><text fill="#000000" font-family="sans-serif" font-size="13" font-weight="bold" lengthAdjust="spacing" textLength="9" x="45.5" y="143.4966">2</text><text fill="#000000" font-family="sans-serif" font-size="13" lengthAdjust="spacing" textLength="184" x="58.5" y="143.4966">confirms user authentication</text><polygon fill="#A80036" points="384.5,173.6953,394.5,177.6953,384.5,181.6953,388.5,177.6953" style="stroke:#A80036;stroke-width:1.0;"/><line style="stroke:#A80036;stroke-width:1.0;" x1="28.5" x2="390.5" y1="177.6953" y2="177.6953"/><text fill="#000000" font-family="sans-serif" font-size="13" font-weight="bold" lengthAdjust="spacing" textLength="8" x="35.5" y="172.6294">3</text><text fill="#000000" font-family="sans-serif" font-size="13" lengthAdjust="spacing" textLength="337" x="47.5" y="172.6294">access Platform to check the available parking spots</text><polygon fill="#A80036" points="39.5,202.8281,29.5,206.8281,39.5,210.8281,35.5,206.8281" style="stroke:#A80036;stroke-width:1.0;"/><line style="stroke:#A80036;stroke-width:1.0;stroke-dasharray:2.0,2.0;" x1="33.5" x2="400.5" y1="206.8281" y2="206.8281"/><text fill="#000000" font-family="sans-serif" font-size="13" font-weight="bold" lengthAdjust="spacing" textLength="9" x="45.5" y="201.7622">4</text><text fill="#000000" font-family="sans-serif" font-size="13" lengthAdjust="spacing" textLength="177" x="58.5" y="201.7622">asks the start and end date</text><polygon fill="#A80036" points="384.5,231.9609,394.5,235.9609,384.5,239.9609,388.5,235.9609" style="stroke:#A80036;stroke-width:1.0;"/><line style="stroke:#A80036;stroke-width:1.0;" x1="28.5" x2="390.5" y1="235.9609" y2="235.9609"/><text fill="#000000" font-family="sans-serif" font-size="13" font-weight="bold" lengthAdjust="spacing" textLength="9" x="35.5" y="230.895">5</text><text fill="#000000" font-family="sans-serif" font-size="13" lengthAdjust="spacing" textLength="153" x="48.5" y="230.895">inserts the required info</text><polygon fill="#A80036" points="39.5,261.0938,29.5,265.0938,39.5,269.0938,35.5,265.0938" style="stroke:#A80036;stroke-width:1.0;"/><line style="stroke:#A80036;stroke-width:1.0;stroke-dasharray:2.0,2.0;" x1="33.5" x2="400.5" y1="265.0938" y2="265.0938"/><text fill="#000000" font-family="sans-serif" font-size="13" font-weight="bold" lengthAdjust="spacing" textLength="9" x="45.5" y="260.0278">6</text><text fill="#000000" font-family="sans-serif" font-size="13" lengthAdjust="spacing" textLength="256" x="58.5" y="260.0278">shows the list of available parking spots</text><polygon fill="#A80036" points="384.5,290.2266,394.5,294.2266,384.5,298.2266,388.5,294.2266" style="stroke:#A80036;stroke-width:1.0;"/><line style="stroke:#A80036;stroke-width:1.0;" x1="28.5" x2="390.5" y1="294.2266" y2="294.2266"/><text fill="#000000" font-family="sans-serif" font-size="13" font-weight="bold" lengthAdjust="spacing" textLength="9" x="35.5" y="289.1606">7</text><text fill="#000000" font-family="sans-serif" font-size="13" lengthAdjust="spacing" textLength="91" x="48.5" y="289.1606">checks the list</text><polygon fill="#A80036" points="34.5,319.3594,24.5,323.3594,34.5,327.3594,30.5,323.3594" style="stroke:#A80036;stroke-width:1.0;"/><line style="stroke:#A80036;stroke-width:1.0;stroke-dasharray:2.0,2.0;" x1="28.5" x2="400.5" y1="323.3594" y2="323.3594"/><text fill="#000000" font-family="sans-serif" font-size="13" font-weight="bold" lengthAdjust="spacing" textLength="9" x="40.5" y="318.2935">8</text><text fill="#000000" font-family="sans-serif" font-size="13" lengthAdjust="spacing" textLength="132" x="53.5" y="318.2935">successful operation</text><!--MD5=[19f91eec61c03f8992317fb8ce253092]
@startuml
autonumber
actor "User" as USR

activate USR
USR -> ":Platform" : asks to be authenticated in the Platform
activate ":Platform"
":Platform" - -> USR : confirms user authentication
deactivate ":Platform"

USR -> ":Platform" : access Platform to check the available parking spots
activate ":Platform"
":Platform" - -> USR : asks the start and end date
deactivate ":Platform"

USR -> ":Platform" : inserts the required info
activate ":Platform"

":Platform" - -> USR : shows the list of available parking spots
deactivate ":Platform"

USR -> ":Platform" : checks the list
activate ":Platform"

":Platform" - -> USR : successful operation
deactivate ":Platform"

deactivate ":Platform"

deactivate USR
@enduml

PlantUML version 1.2021.01beta3(Unknown compile time)
(GPL source distribution)
Java Runtime: Java(TM) SE Runtime Environment
JVM: Java HotSpot(TM) 64-Bit Server VM
Default Encoding: UTF-8
Language: en
Country: US
--></g></svg>