<?xml version="1.0" encoding="UTF-8" standalone="no"?><svg xmlns="http://www.w3.org/2000/svg" xmlns:xlink="http://www.w3.org/1999/xlink" contentScriptType="application/ecmascript" contentStyleType="text/css" height="635px" preserveAspectRatio="none" style="width:512px;height:635px;" version="1.1" viewBox="0 0 512 635" width="512px" zoomAndPan="magnify"><defs><filter height="300%" id="f79f5aqwv9q9p" width="300%" x="-1" y="-1"><feGaussianBlur result="blurOut" stdDeviation="2.0"/><feColorMatrix in="blurOut" result="blurOut2" type="matrix" values="0 0 0 0 0 0 0 0 0 0 0 0 0 0 0 0 0 0 .4 0"/><feOffset dx="4.0" dy="4.0" in="blurOut2" result="blurOut3"/><feBlend in="SourceGraphic" in2="blurOut3" mode="normal"/></filter></defs><g><ellipse cx="333.0975" cy="589.8195" fill="#FEFECE" filter="url(#f79f5aqwv9q9p)" rx="132.0975" ry="28.8195" style="stroke:#A80036;stroke-width:1.5;"/><text fill="#000000" font-family="sans-serif" font-size="14" lengthAdjust="spacing" textLength="233" x="216.5975" y="592.6662">UC1 - Parking Spot Management</text><!--MD5=[fa4a852255336115efa9bd6dabfeb69b]
entity ADMIN--><ellipse cx="56" cy="559" fill="#FEFECE" filter="url(#f79f5aqwv9q9p)" rx="8" ry="8" style="stroke:#A80036;stroke-width:1.5;"/><path d="M56,567 L56,594 M43,575 L69,575 M56,594 L43,609 M56,594 L69,609 " fill="none" filter="url(#f79f5aqwv9q9p)" style="stroke:#A80036;stroke-width:1.5;"/><text fill="#000000" font-family="sans-serif" font-size="14" lengthAdjust="spacing" textLength="100" x="6" y="627.4951">Administrator</text><ellipse cx="332.9278" cy="473.9856" fill="#FEFECE" filter="url(#f79f5aqwv9q9p)" rx="100.4278" ry="22.4856" style="stroke:#A80036;stroke-width:1.5;"/><text fill="#000000" font-family="sans-serif" font-size="14" lengthAdjust="spacing" textLength="165" x="250.4278" y="476.8322">UC2 - User Registration</text><!--MD5=[2a08f0fa87684f8bcd53af50529f0c02]
entity NR_USR--><ellipse cx="56" cy="443" fill="#FEFECE" filter="url(#f79f5aqwv9q9p)" rx="8" ry="8" style="stroke:#A80036;stroke-width:1.5;"/><path d="M56,451 L56,478 M43,459 L69,459 M56,478 L43,493 M56,478 L69,493 " fill="none" filter="url(#f79f5aqwv9q9p)" style="stroke:#A80036;stroke-width:1.5;"/><text fill="#000000" font-family="sans-serif" font-size="14" lengthAdjust="spacing" textLength="65" x="23.5" y="511.4951">Non-User</text><ellipse cx="332.7813" cy="34.1563" fill="#FEFECE" filter="url(#f79f5aqwv9q9p)" rx="128.7813" ry="28.1563" style="stroke:#A80036;stroke-width:1.5;"/><text fill="#000000" font-family="sans-serif" font-size="14" lengthAdjust="spacing" textLength="226" x="219.7813" y="37.0029">UC3 - Reservation Management</text><!--MD5=[1d495d3bb5ae62dda75b0dafe6e19368]
entity USR--><ellipse cx="56" cy="187" fill="#FEFECE" filter="url(#f79f5aqwv9q9p)" rx="8" ry="8" style="stroke:#A80036;stroke-width:1.5;"/><path d="M56,195 L56,222 M43,203 L69,203 M56,222 L43,237 M56,222 L69,237 " fill="none" filter="url(#f79f5aqwv9q9p)" style="stroke:#A80036;stroke-width:1.5;"/><text fill="#000000" font-family="sans-serif" font-size="14" lengthAdjust="spacing" textLength="31" x="40.5" y="255.4951">User</text><ellipse cx="332.9079" cy="121.7816" fill="#FEFECE" filter="url(#f79f5aqwv9q9p)" rx="111.9079" ry="24.7816" style="stroke:#A80036;stroke-width:1.5;"/><text fill="#000000" font-family="sans-serif" font-size="14" lengthAdjust="spacing" textLength="190" x="237.9079" y="124.6283">UC4 -  Sublet Management</text><ellipse cx="333.1369" cy="217.8274" fill="#FEFECE" filter="url(#f79f5aqwv9q9p)" rx="167.1369" ry="35.8274" style="stroke:#A80036;stroke-width:1.5;"/><text fill="#000000" font-family="sans-serif" font-size="14" lengthAdjust="spacing" textLength="306" x="180.1369" y="220.6741">UC5 - Available Parking Spots Consultation</text><ellipse cx="332.9278" cy="311.9856" fill="#FEFECE" filter="url(#f79f5aqwv9q9p)" rx="100.4278" ry="22.4856" style="stroke:#A80036;stroke-width:1.5;"/><text fill="#000000" font-family="sans-serif" font-size="14" lengthAdjust="spacing" textLength="165" x="250.4278" y="314.8322">UC6 - Payment Process</text><ellipse cx="333.1608" cy="393.0322" fill="#FEFECE" filter="url(#f79f5aqwv9q9p)" rx="103.1608" ry="23.0322" style="stroke:#A80036;stroke-width:1.5;"/><text fill="#000000" font-family="sans-serif" font-size="14" lengthAdjust="spacing" textLength="171" x="247.6608" y="395.8788">UC7 - User Management</text><!--MD5=[41a673fe44d4c6e830feb80f89436910]
link ADMIN to UC1--><path d="M106.164,590 C131.461,590 163.675,590 195.795,590 " fill="none" id="ADMIN-to-UC1" style="stroke:#A80036;stroke-width:1.0;"/><polygon fill="#A80036" points="200.948,590,191.948,586,195.948,590,191.948,594,200.948,590" style="stroke:#A80036;stroke-width:1.0;"/><!--MD5=[6d8e56d94abfc63c354f2fa58565d96e]
link NR_USR to UC2--><path d="M88.546,474 C122.372,474 177.906,474 227.399,474 " fill="none" id="NR_USR-to-UC2" style="stroke:#A80036;stroke-width:1.0;"/><polygon fill="#A80036" points="232.476,474,223.476,470,227.476,474,223.476,478,232.476,474" style="stroke:#A80036;stroke-width:1.0;"/><!--MD5=[4c1bf92274b6a81a360816c66249e47d]
link USR to UC3--><path d="M71.5607,190.107 C89.5323,158.429 123.054,107.46 166,79 C183.513,67.394 203.938,58.769 224.352,52.362 " fill="none" id="USR-to-UC3" style="stroke:#A80036;stroke-width:1.0;"/><polygon fill="#A80036" points="229.26,50.864,219.4843,49.6659,224.4778,52.3238,221.8199,57.3173,229.26,50.864" style="stroke:#A80036;stroke-width:1.0;"/><!--MD5=[7333cfdb5d789fcd1ca70718d2dda7c0]
link USR to UC4--><path d="M71.7165,209.447 C92.2526,197.809 130.937,176.954 166,164 C191.228,154.68 219.356,146.702 245.184,140.281 " fill="none" id="USR-to-UC4" style="stroke:#A80036;stroke-width:1.0;"/><polygon fill="#A80036" points="250.318,139.018,240.6226,137.286,245.463,140.2135,242.5355,145.0539,250.318,139.018" style="stroke:#A80036;stroke-width:1.0;"/><!--MD5=[85239e29a550401bef61a87d1b367cc3]
link USR to UC5--><path d="M71.7852,218 C90.2029,218 123.797,218 160.866,218 " fill="none" id="USR-to-UC5" style="stroke:#A80036;stroke-width:1.0;"/><polygon fill="#A80036" points="165.879,218,156.879,214,160.879,218,156.879,222,165.879,218" style="stroke:#A80036;stroke-width:1.0;"/><!--MD5=[eac39549b99c8cb91e5040c88f72a503]
link USR to UC6--><path d="M71.7289,226.404 C92.2794,237.839 130.98,258.321 166,271 C193.591,280.989 224.624,289.377 252.327,295.911 " fill="none" id="USR-to-UC6" style="stroke:#A80036;stroke-width:1.0;"/><polygon fill="#A80036" points="257.46,297.109,249.6057,291.1668,252.591,295.9718,247.7861,298.9571,257.46,297.109" style="stroke:#A80036;stroke-width:1.0;"/><!--MD5=[e2efd12d1967232340d771a352417422]
link USR to UC7--><path d="M71.5398,244.78 C89.6042,275.452 123.323,324.944 166,352 C187.389,365.56 212.958,374.636 237.545,380.71 " fill="none" id="USR-to-UC7" style="stroke:#A80036;stroke-width:1.0;"/><polygon fill="#A80036" points="242.448,381.885,234.6288,375.8967,237.5858,380.7191,232.7634,383.6761,242.448,381.885" style="stroke:#A80036;stroke-width:1.0;"/><!--MD5=[00321fa708236baacb37989517b35869]
@startuml
usecase UC1 as "UC1 - Parking Spot Management"
actor "Administrator" as ADMIN

usecase UC2 as "UC2 - User Registration"
actor "Non-User" as NR_USR

usecase UC3 as "UC3 - Reservation Management"
actor "User" as USR

usecase UC4 as"UC4 -  Sublet Management"
actor "User" as USR

usecase UC5 as "UC5 - Available Parking Spots Consultation"
actor "User" as USR

usecase UC6 as "UC6 - Payment Process"
actor "User" as USR

usecase UC7 as "UC7 - User Management"
actor "User" as USR

left to right direction
ADMIN - ->(UC1)
NR_USR - ->(UC2)
USR - ->(UC3)
USR - ->(UC4)
USR - ->(UC5)
USR - ->(UC6)
USR - ->(UC7)
@enduml

PlantUML version 1.2021.01beta3(Unknown compile time)
(GPL source distribution)
Java Runtime: Java(TM) SE Runtime Environment
JVM: Java HotSpot(TM) 64-Bit Server VM
Default Encoding: UTF-8
Language: en
Country: US
--></g></svg>