<?xml version="1.0" encoding="UTF-8" standalone="no"?><svg xmlns="http://www.w3.org/2000/svg" xmlns:xlink="http://www.w3.org/1999/xlink" contentScriptType="application/ecmascript" contentStyleType="text/css" height="408px" preserveAspectRatio="none" style="width:1081px;height:408px;" version="1.1" viewBox="0 0 1081 408" width="1081px" zoomAndPan="magnify"><defs><filter height="300%" id="f1va3vbhbd0kry" width="300%" x="-1" y="-1"><feGaussianBlur result="blurOut" stdDeviation="2.0"/><feColorMatrix in="blurOut" result="blurOut2" type="matrix" values="0 0 0 0 0 0 0 0 0 0 0 0 0 0 0 0 0 0 .4 0"/><feOffset dx="4.0" dy="4.0" in="blurOut2" result="blurOut3"/><feBlend in="SourceGraphic" in2="blurOut3" mode="normal"/></filter></defs><g><!--MD5=[99b8db98afdc2c8404e39242ef4c1e65]
class Platform--><rect codeLine="5" fill="#FEFECE" filter="url(#f1va3vbhbd0kry)" height="40" id="Platform" style="stroke:#A80036;stroke-width:1.5;" width="80" x="7" y="123"/><ellipse cx="22" cy="139" fill="#ADD1B2" rx="11" ry="11" style="stroke:#A80036;stroke-width:1.0;"/><path d="M24.3438,134.6719 C23.4063,134.2344 22.8125,134.0938 21.9375,134.0938 C19.3125,134.0938 17.3125,136.1719 17.3125,138.8906 L17.3125,140.0156 C17.3125,142.5938 19.4219,144.4844 22.3125,144.4844 C23.5313,144.4844 24.6875,144.1875 25.4375,143.6406 C26.0156,143.2344 26.3438,142.7813 26.3438,142.3906 C26.3438,141.9375 25.9531,141.5469 25.4844,141.5469 C25.2656,141.5469 25.0625,141.625 24.875,141.8125 C24.4219,142.2969 24.4219,142.2969 24.2344,142.3906 C23.8125,142.6563 23.125,142.7813 22.3594,142.7813 C20.3125,142.7813 19.0156,141.6875 19.0156,139.9844 L19.0156,138.8906 C19.0156,137.1094 20.2656,135.7969 22,135.7969 C22.5781,135.7969 23.1875,135.9531 23.6563,136.2031 C24.1406,136.4844 24.3125,136.7031 24.4063,137.1094 C24.4688,137.5156 24.5,137.6406 24.6406,137.7656 C24.7813,137.9063 25.0156,138.0156 25.2344,138.0156 C25.5,138.0156 25.7656,137.875 25.9375,137.6563 C26.0469,137.5 26.0781,137.3125 26.0781,136.8906 L26.0781,135.4688 C26.0781,135.0313 26.0625,134.9063 25.9688,134.75 C25.8125,134.4844 25.5313,134.3438 25.2344,134.3438 C24.9375,134.3438 24.7344,134.4375 24.5156,134.75 L24.3438,134.6719 Z " fill="#000000"/><text fill="#000000" font-family="sans-serif" font-size="12" lengthAdjust="spacing" textLength="48" x="36" y="143.1543">Platform</text><line style="stroke:#A80036;stroke-width:1.5;" x1="8" x2="86" y1="155" y2="155"/><!--MD5=[45aeaa341fef25f20606e62afa73950f]
class CentralAPI--><rect codeLine="8" fill="#FEFECE" filter="url(#f1va3vbhbd0kry)" height="52.8047" id="CentralAPI" style="stroke:#A80036;stroke-width:1.5;" width="91" x="185" y="116.5"/><ellipse cx="200" cy="132.5" fill="#ADD1B2" rx="11" ry="11" style="stroke:#A80036;stroke-width:1.0;"/><path d="M202.3438,128.1719 C201.4063,127.7344 200.8125,127.5938 199.9375,127.5938 C197.3125,127.5938 195.3125,129.6719 195.3125,132.3906 L195.3125,133.5156 C195.3125,136.0938 197.4219,137.9844 200.3125,137.9844 C201.5313,137.9844 202.6875,137.6875 203.4375,137.1406 C204.0156,136.7344 204.3438,136.2813 204.3438,135.8906 C204.3438,135.4375 203.9531,135.0469 203.4844,135.0469 C203.2656,135.0469 203.0625,135.125 202.875,135.3125 C202.4219,135.7969 202.4219,135.7969 202.2344,135.8906 C201.8125,136.1563 201.125,136.2813 200.3594,136.2813 C198.3125,136.2813 197.0156,135.1875 197.0156,133.4844 L197.0156,132.3906 C197.0156,130.6094 198.2656,129.2969 200,129.2969 C200.5781,129.2969 201.1875,129.4531 201.6563,129.7031 C202.1406,129.9844 202.3125,130.2031 202.4063,130.6094 C202.4688,131.0156 202.5,131.1406 202.6406,131.2656 C202.7813,131.4063 203.0156,131.5156 203.2344,131.5156 C203.5,131.5156 203.7656,131.375 203.9375,131.1563 C204.0469,131 204.0781,130.8125 204.0781,130.3906 L204.0781,128.9688 C204.0781,128.5313 204.0625,128.4063 203.9688,128.25 C203.8125,127.9844 203.5313,127.8438 203.2344,127.8438 C202.9375,127.8438 202.7344,127.9375 202.5156,128.25 L202.3438,128.1719 Z " fill="#000000"/><text fill="#000000" font-family="sans-serif" font-size="12" lengthAdjust="spacing" textLength="59" x="214" y="136.6543">CentralAPI</text><line style="stroke:#A80036;stroke-width:1.5;" x1="186" x2="275" y1="148.5" y2="148.5"/><text fill="#000000" font-family="sans-serif" font-size="11" lengthAdjust="spacing" textLength="67" x="191" y="162.7104">-List ParkAPI</text><!--MD5=[0a63649e00e896fc8481d10013d29142]
class PublicAPI--><rect codeLine="12" fill="#FEFECE" filter="url(#f1va3vbhbd0kry)" height="40" id="PublicAPI" style="stroke:#A80036;stroke-width:1.5;" width="83" x="446" y="7"/><ellipse cx="461" cy="23" fill="#ADD1B2" rx="11" ry="11" style="stroke:#A80036;stroke-width:1.0;"/><path d="M463.3438,18.6719 C462.4063,18.2344 461.8125,18.0938 460.9375,18.0938 C458.3125,18.0938 456.3125,20.1719 456.3125,22.8906 L456.3125,24.0156 C456.3125,26.5938 458.4219,28.4844 461.3125,28.4844 C462.5313,28.4844 463.6875,28.1875 464.4375,27.6406 C465.0156,27.2344 465.3438,26.7813 465.3438,26.3906 C465.3438,25.9375 464.9531,25.5469 464.4844,25.5469 C464.2656,25.5469 464.0625,25.625 463.875,25.8125 C463.4219,26.2969 463.4219,26.2969 463.2344,26.3906 C462.8125,26.6563 462.125,26.7813 461.3594,26.7813 C459.3125,26.7813 458.0156,25.6875 458.0156,23.9844 L458.0156,22.8906 C458.0156,21.1094 459.2656,19.7969 461,19.7969 C461.5781,19.7969 462.1875,19.9531 462.6563,20.2031 C463.1406,20.4844 463.3125,20.7031 463.4063,21.1094 C463.4688,21.5156 463.5,21.6406 463.6406,21.7656 C463.7813,21.9063 464.0156,22.0156 464.2344,22.0156 C464.5,22.0156 464.7656,21.875 464.9375,21.6563 C465.0469,21.5 465.0781,21.3125 465.0781,20.8906 L465.0781,19.4688 C465.0781,19.0313 465.0625,18.9063 464.9688,18.75 C464.8125,18.4844 464.5313,18.3438 464.2344,18.3438 C463.9375,18.3438 463.7344,18.4375 463.5156,18.75 L463.3438,18.6719 Z " fill="#000000"/><text fill="#000000" font-family="sans-serif" font-size="12" lengthAdjust="spacing" textLength="51" x="475" y="27.1543">PublicAPI</text><line style="stroke:#A80036;stroke-width:1.5;" x1="447" x2="528" y1="39" y2="39"/><!--MD5=[db6d18d8099558415abc41d00477ab92]
class Admin--><rect codeLine="15" fill="#FEFECE" filter="url(#f1va3vbhbd0kry)" height="78.4141" id="Admin" style="stroke:#A80036;stroke-width:1.5;" width="84" x="735" y="80"/><ellipse cx="756.75" cy="96" fill="#ADD1B2" rx="11" ry="11" style="stroke:#A80036;stroke-width:1.0;"/><path d="M759.0938,91.6719 C758.1563,91.2344 757.5625,91.0938 756.6875,91.0938 C754.0625,91.0938 752.0625,93.1719 752.0625,95.8906 L752.0625,97.0156 C752.0625,99.5938 754.1719,101.4844 757.0625,101.4844 C758.2813,101.4844 759.4375,101.1875 760.1875,100.6406 C760.7656,100.2344 761.0938,99.7813 761.0938,99.3906 C761.0938,98.9375 760.7031,98.5469 760.2344,98.5469 C760.0156,98.5469 759.8125,98.625 759.625,98.8125 C759.1719,99.2969 759.1719,99.2969 758.9844,99.3906 C758.5625,99.6563 757.875,99.7813 757.1094,99.7813 C755.0625,99.7813 753.7656,98.6875 753.7656,96.9844 L753.7656,95.8906 C753.7656,94.1094 755.0156,92.7969 756.75,92.7969 C757.3281,92.7969 757.9375,92.9531 758.4063,93.2031 C758.8906,93.4844 759.0625,93.7031 759.1563,94.1094 C759.2188,94.5156 759.25,94.6406 759.3906,94.7656 C759.5313,94.9063 759.7656,95.0156 759.9844,95.0156 C760.25,95.0156 760.5156,94.875 760.6875,94.6563 C760.7969,94.5 760.8281,94.3125 760.8281,93.8906 L760.8281,92.4688 C760.8281,92.0313 760.8125,91.9063 760.7188,91.75 C760.5625,91.4844 760.2813,91.3438 759.9844,91.3438 C759.6875,91.3438 759.4844,91.4375 759.2656,91.75 L759.0938,91.6719 Z " fill="#000000"/><text fill="#000000" font-family="sans-serif" font-size="12" lengthAdjust="spacing" textLength="37" x="772.25" y="100.1543">Admin</text><line style="stroke:#A80036;stroke-width:1.5;" x1="736" x2="818" y1="112" y2="112"/><text fill="#000000" font-family="sans-serif" font-size="11" lengthAdjust="spacing" textLength="61" x="741" y="126.2104">-Integer ID</text><text fill="#000000" font-family="sans-serif" font-size="11" lengthAdjust="spacing" textLength="71" x="741" y="139.0151">-string email</text><text fill="#000000" font-family="sans-serif" font-size="11" lengthAdjust="spacing" textLength="72" x="741" y="151.8198">-string name</text><!--MD5=[3fd616f346a44cd59a91eb10b19e157c]
class User--><rect codeLine="21" fill="#FEFECE" filter="url(#f1va3vbhbd0kry)" height="91.2188" id="User" style="stroke:#A80036;stroke-width:1.5;" width="99" x="588" y="303.5"/><ellipse cx="620.1" cy="319.5" fill="#ADD1B2" rx="11" ry="11" style="stroke:#A80036;stroke-width:1.0;"/><path d="M622.4438,315.1719 C621.5063,314.7344 620.9125,314.5938 620.0375,314.5938 C617.4125,314.5938 615.4125,316.6719 615.4125,319.3906 L615.4125,320.5156 C615.4125,323.0938 617.5219,324.9844 620.4125,324.9844 C621.6313,324.9844 622.7875,324.6875 623.5375,324.1406 C624.1156,323.7344 624.4438,323.2813 624.4438,322.8906 C624.4438,322.4375 624.0531,322.0469 623.5844,322.0469 C623.3656,322.0469 623.1625,322.125 622.975,322.3125 C622.5219,322.7969 622.5219,322.7969 622.3344,322.8906 C621.9125,323.1563 621.225,323.2813 620.4594,323.2813 C618.4125,323.2813 617.1156,322.1875 617.1156,320.4844 L617.1156,319.3906 C617.1156,317.6094 618.3656,316.2969 620.1,316.2969 C620.6781,316.2969 621.2875,316.4531 621.7563,316.7031 C622.2406,316.9844 622.4125,317.2031 622.5063,317.6094 C622.5688,318.0156 622.6,318.1406 622.7406,318.2656 C622.8813,318.4063 623.1156,318.5156 623.3344,318.5156 C623.6,318.5156 623.8656,318.375 624.0375,318.1563 C624.1469,318 624.1781,317.8125 624.1781,317.3906 L624.1781,315.9688 C624.1781,315.5313 624.1625,315.4063 624.0688,315.25 C623.9125,314.9844 623.6313,314.8438 623.3344,314.8438 C623.0375,314.8438 622.8344,314.9375 622.6156,315.25 L622.4438,315.1719 Z " fill="#000000"/><text fill="#000000" font-family="sans-serif" font-size="12" lengthAdjust="spacing" textLength="29" x="637.9" y="323.6543">User</text><line style="stroke:#A80036;stroke-width:1.5;" x1="589" x2="686" y1="335.5" y2="335.5"/><text fill="#000000" font-family="sans-serif" font-size="11" lengthAdjust="spacing" textLength="74" x="594" y="349.7104">-String name</text><text fill="#000000" font-family="sans-serif" font-size="11" lengthAdjust="spacing" textLength="55" x="594" y="362.5151">-String nif</text><text fill="#000000" font-family="sans-serif" font-size="11" lengthAdjust="spacing" textLength="73" x="594" y="375.3198">-String email</text><text fill="#000000" font-family="sans-serif" font-size="11" lengthAdjust="spacing" textLength="87" x="594" y="388.1245">-Decimal credit</text><!--MD5=[8836a49f4083a7550430b1f83332c96a]
class ParkingLot--><rect codeLine="28" fill="#FEFECE" filter="url(#f1va3vbhbd0kry)" height="129.6328" id="ParkingLot" style="stroke:#A80036;stroke-width:1.5;" width="141" x="417" y="169"/><ellipse cx="453.6" cy="185" fill="#ADD1B2" rx="11" ry="11" style="stroke:#A80036;stroke-width:1.0;"/><path d="M455.9438,180.6719 C455.0063,180.2344 454.4125,180.0938 453.5375,180.0938 C450.9125,180.0938 448.9125,182.1719 448.9125,184.8906 L448.9125,186.0156 C448.9125,188.5938 451.0219,190.4844 453.9125,190.4844 C455.1313,190.4844 456.2875,190.1875 457.0375,189.6406 C457.6156,189.2344 457.9438,188.7813 457.9438,188.3906 C457.9438,187.9375 457.5531,187.5469 457.0844,187.5469 C456.8656,187.5469 456.6625,187.625 456.475,187.8125 C456.0219,188.2969 456.0219,188.2969 455.8344,188.3906 C455.4125,188.6563 454.725,188.7813 453.9594,188.7813 C451.9125,188.7813 450.6156,187.6875 450.6156,185.9844 L450.6156,184.8906 C450.6156,183.1094 451.8656,181.7969 453.6,181.7969 C454.1781,181.7969 454.7875,181.9531 455.2563,182.2031 C455.7406,182.4844 455.9125,182.7031 456.0063,183.1094 C456.0688,183.5156 456.1,183.6406 456.2406,183.7656 C456.3813,183.9063 456.6156,184.0156 456.8344,184.0156 C457.1,184.0156 457.3656,183.875 457.5375,183.6563 C457.6469,183.5 457.6781,183.3125 457.6781,182.8906 L457.6781,181.4688 C457.6781,181.0313 457.6625,180.9063 457.5688,180.75 C457.4125,180.4844 457.1313,180.3438 456.8344,180.3438 C456.5375,180.3438 456.3344,180.4375 456.1156,180.75 L455.9438,180.6719 Z " fill="#000000"/><text fill="#000000" font-family="sans-serif" font-size="12" lengthAdjust="spacing" textLength="61" x="472.4" y="189.1543">ParkingLot</text><line style="stroke:#A80036;stroke-width:1.5;" x1="418" x2="557" y1="201" y2="201"/><text fill="#000000" font-family="sans-serif" font-size="11" lengthAdjust="spacing" textLength="61" x="423" y="215.2104">-Integer ID</text><text fill="#000000" font-family="sans-serif" font-size="11" lengthAdjust="spacing" textLength="75" x="423" y="228.0151">-String Name</text><text fill="#000000" font-family="sans-serif" font-size="11" lengthAdjust="spacing" textLength="129" x="423" y="240.8198">-String CompanyName</text><text fill="#000000" font-family="sans-serif" font-size="11" lengthAdjust="spacing" textLength="62" x="423" y="253.6245">-Bool Type</text><text fill="#000000" font-family="sans-serif" font-size="11" lengthAdjust="spacing" textLength="88" x="423" y="266.4292">-String Location</text><text fill="#000000" font-family="sans-serif" font-size="11" lengthAdjust="spacing" textLength="98" x="423" y="279.2339">-Integer Capacity</text><text fill="#000000" font-family="sans-serif" font-size="11" lengthAdjust="spacing" textLength="93" x="423" y="292.0386">-List ParkingSpot</text><!--MD5=[e8d1d02626a1df80ab81ee14c5101fbd]
class ParkingSpot--><rect codeLine="38" fill="#FEFECE" filter="url(#f1va3vbhbd0kry)" height="78.4141" id="ParkingSpot" style="stroke:#A80036;stroke-width:1.5;" width="120" x="717" y="213"/><ellipse cx="739.65" cy="229" fill="#ADD1B2" rx="11" ry="11" style="stroke:#A80036;stroke-width:1.0;"/><path d="M741.9938,224.6719 C741.0563,224.2344 740.4625,224.0938 739.5875,224.0938 C736.9625,224.0938 734.9625,226.1719 734.9625,228.8906 L734.9625,230.0156 C734.9625,232.5938 737.0719,234.4844 739.9625,234.4844 C741.1813,234.4844 742.3375,234.1875 743.0875,233.6406 C743.6656,233.2344 743.9938,232.7813 743.9938,232.3906 C743.9938,231.9375 743.6031,231.5469 743.1344,231.5469 C742.9156,231.5469 742.7125,231.625 742.525,231.8125 C742.0719,232.2969 742.0719,232.2969 741.8844,232.3906 C741.4625,232.6563 740.775,232.7813 740.0094,232.7813 C737.9625,232.7813 736.6656,231.6875 736.6656,229.9844 L736.6656,228.8906 C736.6656,227.1094 737.9156,225.7969 739.65,225.7969 C740.2281,225.7969 740.8375,225.9531 741.3063,226.2031 C741.7906,226.4844 741.9625,226.7031 742.0563,227.1094 C742.1188,227.5156 742.15,227.6406 742.2906,227.7656 C742.4313,227.9063 742.6656,228.0156 742.8844,228.0156 C743.15,228.0156 743.4156,227.875 743.5875,227.6563 C743.6969,227.5 743.7281,227.3125 743.7281,226.8906 L743.7281,225.4688 C743.7281,225.0313 743.7125,224.9063 743.6188,224.75 C743.4625,224.4844 743.1813,224.3438 742.8844,224.3438 C742.5875,224.3438 742.3844,224.4375 742.1656,224.75 L741.9938,224.6719 Z " fill="#000000"/><text fill="#000000" font-family="sans-serif" font-size="12" lengthAdjust="spacing" textLength="71" x="755.35" y="233.1543">ParkingSpot</text><line style="stroke:#A80036;stroke-width:1.5;" x1="718" x2="836" y1="245" y2="245"/><text fill="#000000" font-family="sans-serif" font-size="11" lengthAdjust="spacing" textLength="53" x="723" y="259.2104">-String ID</text><text fill="#000000" font-family="sans-serif" font-size="11" lengthAdjust="spacing" textLength="108" x="723" y="272.0151">-Decimal PriceHour</text><text fill="#000000" font-family="sans-serif" font-size="11" lengthAdjust="spacing" textLength="68" x="723" y="284.8198">-String Floor</text><!--MD5=[9c46470aa33a0c75e6d1dfdefc2f9c22]
class Reservation--><rect codeLine="44" fill="#FEFECE" filter="url(#f1va3vbhbd0kry)" height="116.8281" id="Reservation" style="stroke:#A80036;stroke-width:1.5;" width="132" x="935" y="249.5"/><ellipse cx="963.05" cy="265.5" fill="#ADD1B2" rx="11" ry="11" style="stroke:#A80036;stroke-width:1.0;"/><path d="M965.3938,261.1719 C964.4563,260.7344 963.8625,260.5938 962.9875,260.5938 C960.3625,260.5938 958.3625,262.6719 958.3625,265.3906 L958.3625,266.5156 C958.3625,269.0938 960.4719,270.9844 963.3625,270.9844 C964.5813,270.9844 965.7375,270.6875 966.4875,270.1406 C967.0656,269.7344 967.3938,269.2813 967.3938,268.8906 C967.3938,268.4375 967.0031,268.0469 966.5344,268.0469 C966.3156,268.0469 966.1125,268.125 965.925,268.3125 C965.4719,268.7969 965.4719,268.7969 965.2844,268.8906 C964.8625,269.1563 964.175,269.2813 963.4094,269.2813 C961.3625,269.2813 960.0656,268.1875 960.0656,266.4844 L960.0656,265.3906 C960.0656,263.6094 961.3156,262.2969 963.05,262.2969 C963.6281,262.2969 964.2375,262.4531 964.7063,262.7031 C965.1906,262.9844 965.3625,263.2031 965.4563,263.6094 C965.5188,264.0156 965.55,264.1406 965.6906,264.2656 C965.8313,264.4063 966.0656,264.5156 966.2844,264.5156 C966.55,264.5156 966.8156,264.375 966.9875,264.1563 C967.0969,264 967.1281,263.8125 967.1281,263.3906 L967.1281,261.9688 C967.1281,261.5313 967.1125,261.4063 967.0188,261.25 C966.8625,260.9844 966.5813,260.8438 966.2844,260.8438 C965.9875,260.8438 965.7844,260.9375 965.5656,261.25 L965.3938,261.1719 Z " fill="#000000"/><text fill="#000000" font-family="sans-serif" font-size="12" lengthAdjust="spacing" textLength="71" x="979.95" y="269.6543">Reservation</text><line style="stroke:#A80036;stroke-width:1.5;" x1="936" x2="1066" y1="281.5" y2="281.5"/><text fill="#000000" font-family="sans-serif" font-size="11" lengthAdjust="spacing" textLength="56" x="941" y="295.7104">-String ID;</text><text fill="#000000" font-family="sans-serif" font-size="11" lengthAdjust="spacing" textLength="120" x="941" y="308.5151">-DateTime StartDate</text><text fill="#000000" font-family="sans-serif" font-size="11" lengthAdjust="spacing" textLength="81" x="941" y="321.3198">-Integer Hours</text><text fill="#000000" font-family="sans-serif" font-size="11" lengthAdjust="spacing" textLength="115" x="941" y="334.1245">-DateTime EndTime</text><text fill="#000000" font-family="sans-serif" font-size="11" lengthAdjust="spacing" textLength="119" x="941" y="346.9292">-String ParkingSpotID</text><text fill="#000000" font-family="sans-serif" font-size="11" lengthAdjust="spacing" textLength="118" x="941" y="359.7339">-Integer ParkingLotID</text><!--MD5=[c28f3a27f05f6e4cd4e15e0769de5f8b]
link Platform to CentralAPI--><path codeLine="54" d="M87.3828,143 C116.054,143 154.925,143 184.768,143 " fill="none" id="Platform-CentralAPI" style="stroke:#A80036;stroke-width:1.0;"/><polygon fill="#000000" points="127,134.5664,117.9549,131.6275,117.9549,137.5053,127,134.5664" style="stroke:#000000;stroke-width:1.0;"/><text fill="#000000" font-family="sans-serif" font-size="13" lengthAdjust="spacing" textLength="23" x="131" y="139.0669">has</text><text fill="#000000" font-family="sans-serif" font-size="13" lengthAdjust="spacing" textLength="8" x="95.0111" y="156.3674">1</text><text fill="#000000" font-family="sans-serif" font-size="13" lengthAdjust="spacing" textLength="8" x="169.1528" y="156.2405">1</text><!--MD5=[e1693c265dee3bf6540e8cd3cbce40d0]
link CentralAPI to PublicAPI--><path codeLine="56" d="M253.814,116.197 C267.46,101.429 286.085,83.929 306,73 C350.226,48.73 407.578,36.957 445.636,31.464 " fill="none" id="CentralAPI-PublicAPI" style="stroke:#A80036;stroke-width:1.0;"/><polygon fill="#000000" points="315.5737,32.5461,306.1123,33.5125,308.4873,38.8892,315.5737,32.5461" style="stroke:#000000;stroke-width:1.0;"/><text fill="#000000" font-family="sans-serif" font-size="13" lengthAdjust="spacing" textLength="66" x="320" y="39.0669">consumes</text><text fill="#000000" font-family="sans-serif" font-size="13" lengthAdjust="spacing" textLength="8" x="250.2804" y="105.3693">1</text><text fill="#000000" font-family="sans-serif" font-size="13" lengthAdjust="spacing" textLength="23" x="415.1317" y="45.2227">1..*</text><!--MD5=[534cb6648375a4bfb2a3ca2f4af4d3e9]
link CentralAPI to User--><path codeLine="57" d="M250.47,169.506 C280.645,209.327 343.716,283.487 417,317 C471.81,342.0648 541.638,348.4431 587.639,349.6147 " fill="none" id="CentralAPI-User" style="stroke:#A80036;stroke-width:1.0;"/><polygon fill="#000000" points="325.9102,228.9223,319.3168,222.0682,316.5473,227.2527,325.9102,228.9223" style="stroke:#000000;stroke-width:1.0;"/><text fill="#000000" font-family="sans-serif" font-size="13" lengthAdjust="spacing" textLength="45" x="330.5" y="231.0669">is used</text><text fill="#000000" font-family="sans-serif" font-size="13" lengthAdjust="spacing" textLength="8" x="246.1631" y="189.4747">1</text><text fill="#000000" font-family="sans-serif" font-size="13" lengthAdjust="spacing" textLength="23" x="557.1606" y="362.6653">1..*</text><!--MD5=[1bbad24c7a375925995cd82632d00bc9]
link CentralAPI to ParkingLot--><path codeLine="58" d="M276.209,158.955 C315.061,172.82 371.983,193.133 416.81,209.13 " fill="none" id="CentralAPI-ParkingLot" style="stroke:#A80036;stroke-width:1.0;"/><polygon fill="#000000" points="337.2091,162.2469,329.678,156.4389,327.7025,161.9748,337.2091,162.2469" style="stroke:#000000;stroke-width:1.0;"/><text fill="#000000" font-family="sans-serif" font-size="13" lengthAdjust="spacing" textLength="23" x="341.5" y="165.0669">has</text><text fill="#000000" font-family="sans-serif" font-size="13" lengthAdjust="spacing" textLength="8" x="284.1314" y="174.7862">1</text><text fill="#000000" font-family="sans-serif" font-size="13" lengthAdjust="spacing" textLength="27" x="382.0487" y="219.6186">1...*</text><!--MD5=[abe209d831a44ba556f3cc970731f6fd]
link CentralAPI to Admin--><path codeLine="59" d="M276.059,141.036 C379.559,136.474 634.998,125.215 734.957,120.809 " fill="none" id="CentralAPI-Admin" style="stroke:#A80036;stroke-width:1.0;"/><polygon fill="#000000" points="452.4952,119.3462,443.3294,116.8085,443.5883,122.6806,452.4952,119.3462" style="stroke:#000000;stroke-width:1.0;"/><text fill="#000000" font-family="sans-serif" font-size="13" lengthAdjust="spacing" textLength="75" x="456.5" y="124.0669">is managed</text><text fill="#000000" font-family="sans-serif" font-size="13" lengthAdjust="spacing" textLength="8" x="283.9575" y="154.0113">1</text><text fill="#000000" font-family="sans-serif" font-size="13" lengthAdjust="spacing" textLength="27" x="700.1463" y="117.0558">1...*</text><!--MD5=[958e8d4713a2a8f6658c9252c39bef85]
link ParkingLot to Admin--><path codeLine="62" d="M558.096,206.162 C613.269,184.092 688.512,153.995 734.598,135.561 " fill="none" id="ParkingLot-Admin" style="stroke:#A80036;stroke-width:1.0;"/><polygon fill="#000000" points="602.1424,145.7094,592.6527,146.34,594.8357,151.7974,602.1424,145.7094" style="stroke:#000000;stroke-width:1.0;"/><text fill="#000000" font-family="sans-serif" font-size="13" lengthAdjust="spacing" textLength="75" x="606.5" y="152.0669">is managed</text><text fill="#000000" font-family="sans-serif" font-size="13" lengthAdjust="spacing" textLength="8" x="565.7887" y="216.1573">1</text><text fill="#000000" font-family="sans-serif" font-size="13" lengthAdjust="spacing" textLength="23" x="704.018" y="150.9917">1..*</text><!--MD5=[5e93dd975e469842cc64e7a48c49d475]
link ParkingLot to ParkingSpot--><path codeLine="63" d="M558.096,238.357 C606.622,241.395 670.672,245.406 716.757,248.291 " fill="none" id="ParkingLot-ParkingSpot" style="stroke:#A80036;stroke-width:1.0;"/><polygon fill="#000000" points="628.4902,231.8789,619.6465,228.3804,619.2792,234.2468,628.4902,231.8789" style="stroke:#000000;stroke-width:1.0;"/><text fill="#000000" font-family="sans-serif" font-size="13" lengthAdjust="spacing" textLength="23" x="632.5" y="236.0669">has</text><text fill="#000000" font-family="sans-serif" font-size="13" lengthAdjust="spacing" textLength="8" x="565.7887" y="251.6724">1</text><text fill="#000000" font-family="sans-serif" font-size="13" lengthAdjust="spacing" textLength="27" x="682.1523" y="260.7343">1...*</text><!--MD5=[4dccc96e3e6c8a65718bd66cc267c1de]
link ParkingSpot to Reservation--><path codeLine="65" d="M837.2,266.933 C867.257,274.515 903.845,283.745 934.716,291.532 " fill="none" id="ParkingSpot-Reservation" style="stroke:#A80036;stroke-width:1.0;"/><polygon fill="#000000" points="876.8481,266.7894,868.7966,261.7273,867.3589,267.4267,876.8481,266.7894" style="stroke:#000000;stroke-width:1.0;"/><text fill="#000000" font-family="sans-serif" font-size="13" lengthAdjust="spacing" textLength="23" x="881" y="270.0669">has</text><text fill="#000000" font-family="sans-serif" font-size="13" lengthAdjust="spacing" textLength="8" x="845.0244" y="281.7168">1</text><text fill="#000000" font-family="sans-serif" font-size="13" lengthAdjust="spacing" textLength="27" x="900.1116" y="302.7587">1...*</text><!--MD5=[c24e85aca65080b7f8317b6a9db850e8]
link User to Reservation--><path codeLine="67" d="M687.253,343.4706 C751.237,336.2137 863.743,323.4538 934.94,315.3788 " fill="none" id="User-Reservation" style="stroke:#A80036;stroke-width:1.0;"/><polygon fill="#000000" points="757.9681,317.0029,748.6495,315.1021,749.3119,320.9425,757.9681,317.0029" style="stroke:#000000;stroke-width:1.0;"/><text fill="#000000" font-family="sans-serif" font-size="13" lengthAdjust="spacing" textLength="43" x="762" y="322.0669">makes</text><text fill="#000000" font-family="sans-serif" font-size="13" lengthAdjust="spacing" textLength="8" x="695.148" y="355.8206">1</text><text fill="#000000" font-family="sans-serif" font-size="13" lengthAdjust="spacing" textLength="27" x="900.1083" y="328.9253">1...*</text><!--MD5=[82f31647b3e6465ea991268bfee25535]
@startuml
skinparam classAttributeIconSize 0
hide methods
left to right direction

class Platform{
}

class CentralAPI{
  -List ParkAPI
}

class PublicAPI{
}

class Admin {
  -Integer ID
  -string email
  -string name
}

class User {
  -String name	
  -String nif
  -String email
  -Decimal credit
}

class ParkingLot{
  -Integer ID
  -String Name
  -String CompanyName
  -Bool Type
  -String Location
  -Integer Capacity
  -List ParkingSpot
}

class ParkingSpot {
  -String ID
  -Decimal PriceHour
  -String Floor
}

class Reservation {
  -String ID;
  -DateTime StartDate
  -Integer Hours
  -DateTime EndTime
  -String ParkingSpotID
  -Integer ParkingLotID
}


Platform "1" - - "1" CentralAPI : has >

CentralAPI "1" - - "1..*" PublicAPI : consumes >
CentralAPI "1" - - "1..*" User : is used >
CentralAPI "1" - - "1...*" ParkingLot : has >
CentralAPI "1" - - "1...*" Admin : is managed >


ParkingLot "1" - - "1..*" Admin : is managed >
ParkingLot "1" - - "1...*" ParkingSpot : has >

ParkingSpot "1" - - "1...*" Reservation : has >

User "1" - - "1...*" Reservation : makes >
@enduml

PlantUML version 1.2021.01beta3(Unknown compile time)
(GPL source distribution)
Java Runtime: Java(TM) SE Runtime Environment
JVM: Java HotSpot(TM) 64-Bit Server VM
Default Encoding: UTF-8
Language: en
Country: US
--></g></svg>