<?xml version="1.0" encoding="UTF-8" standalone="no"?><svg xmlns="http://www.w3.org/2000/svg" xmlns:xlink="http://www.w3.org/1999/xlink" contentScriptType="application/ecmascript" contentStyleType="text/css" height="367px" preserveAspectRatio="none" style="width:533px;height:367px;" version="1.1" viewBox="0 0 533 367" width="533px" zoomAndPan="magnify"><defs><filter height="300%" id="fxsuhfn3p25nn" width="300%" x="-1" y="-1"><feGaussianBlur result="blurOut" stdDeviation="2.0"/><feColorMatrix in="blurOut" result="blurOut2" type="matrix" values="0 0 0 0 0 0 0 0 0 0 0 0 0 0 0 0 0 0 .4 0"/><feOffset dx="4.0" dy="4.0" in="blurOut2" result="blurOut3"/><feBlend in="SourceGraphic" in2="blurOut3" mode="normal"/></filter></defs><g><line style="stroke:#A80036;stroke-width:1.0;stroke-dasharray:5.0,5.0;" x1="23" x2="23" y1="88.2969" y2="283.0938"/><line style="stroke:#A80036;stroke-width:1.0;stroke-dasharray:5.0,5.0;" x1="269" x2="269" y1="88.2969" y2="283.0938"/><line style="stroke:#A80036;stroke-width:1.0;stroke-dasharray:5.0,5.0;" x1="454.5" x2="454.5" y1="88.2969" y2="283.0938"/><text fill="#000000" font-family="sans-serif" font-size="14" lengthAdjust="spacing" textLength="31" x="5" y="84.9951">User</text><ellipse cx="23.5" cy="15" fill="#FF0000" filter="url(#fxsuhfn3p25nn)" rx="8" ry="8" style="stroke:#A80036;stroke-width:2.0;"/><path d="M23.5,23 L23.5,50 M10.5,31 L36.5,31 M23.5,50 L10.5,65 M23.5,50 L36.5,65 " fill="none" filter="url(#fxsuhfn3p25nn)" style="stroke:#A80036;stroke-width:2.0;"/><text fill="#000000" font-family="sans-serif" font-size="14" lengthAdjust="spacing" textLength="31" x="5" y="295.0889">User</text><ellipse cx="23.5" cy="308.3906" fill="#FF0000" filter="url(#fxsuhfn3p25nn)" rx="8" ry="8" style="stroke:#A80036;stroke-width:2.0;"/><path d="M23.5,316.3906 L23.5,343.3906 M10.5,324.3906 L36.5,324.3906 M23.5,343.3906 L10.5,358.3906 M23.5,343.3906 L36.5,358.3906 " fill="none" filter="url(#fxsuhfn3p25nn)" style="stroke:#A80036;stroke-width:2.0;"/><rect fill="#FEFECE" filter="url(#fxsuhfn3p25nn)" height="30.2969" style="stroke:#A80036;stroke-width:1.5;" width="77" x="229" y="53"/><text fill="#000000" font-family="sans-serif" font-size="14" lengthAdjust="spacing" textLength="63" x="236" y="72.9951">Platform</text><rect fill="#FEFECE" filter="url(#fxsuhfn3p25nn)" height="30.2969" style="stroke:#A80036;stroke-width:1.5;" width="77" x="229" y="282.0938"/><text fill="#000000" font-family="sans-serif" font-size="14" lengthAdjust="spacing" textLength="63" x="236" y="302.0889">Platform</text><rect fill="#99FF99" filter="url(#fxsuhfn3p25nn)" height="30.2969" style="stroke:#A80036;stroke-width:1.5;" width="134" x="385.5" y="53"/><text fill="#000000" font-family="sans-serif" font-size="14" lengthAdjust="spacing" textLength="120" x="392.5" y="72.9951">Parking Lot's API</text><rect fill="#99FF99" filter="url(#fxsuhfn3p25nn)" height="30.2969" style="stroke:#A80036;stroke-width:1.5;" width="134" x="385.5" y="282.0938"/><text fill="#000000" font-family="sans-serif" font-size="14" lengthAdjust="spacing" textLength="120" x="392.5" y="302.0889">Parking Lot's API</text><polygon fill="#A80036" points="257.5,115.4297,267.5,119.4297,257.5,123.4297,261.5,119.4297" style="stroke:#A80036;stroke-width:1.0;"/><line style="stroke:#A80036;stroke-width:1.0;" x1="23.5" x2="263.5" y1="119.4297" y2="119.4297"/><text fill="#000000" font-family="sans-serif" font-size="13" lengthAdjust="spacing" textLength="192" x="30.5" y="114.3638">Reservation Creation Request</text><polygon fill="#A80036" points="34.5,144.5625,24.5,148.5625,34.5,152.5625,30.5,148.5625" style="stroke:#A80036;stroke-width:1.0;"/><line style="stroke:#A80036;stroke-width:1.0;stroke-dasharray:2.0,2.0;" x1="28.5" x2="268.5" y1="148.5625" y2="148.5625"/><text fill="#000000" font-family="sans-serif" font-size="13" lengthAdjust="spacing" textLength="124" x="40.5" y="143.4966">Input Data Request</text><polygon fill="#A80036" points="257.5,173.6953,267.5,177.6953,257.5,181.6953,261.5,177.6953" style="stroke:#A80036;stroke-width:1.0;"/><line style="stroke:#A80036;stroke-width:1.0;" x1="23.5" x2="263.5" y1="177.6953" y2="177.6953"/><text fill="#000000" font-family="sans-serif" font-size="13" lengthAdjust="spacing" textLength="100" x="30.5" y="172.6294">Input Data Sent</text><polygon fill="#A80036" points="442.5,202.8281,452.5,206.8281,442.5,210.8281,446.5,206.8281" style="stroke:#A80036;stroke-width:1.0;"/><line style="stroke:#A80036;stroke-width:1.0;" x1="269.5" x2="448.5" y1="206.8281" y2="206.8281"/><text fill="#000000" font-family="sans-serif" font-size="13" lengthAdjust="spacing" textLength="100" x="276.5" y="201.7622">Input Data Sent</text><polygon fill="#A80036" points="280.5,231.9609,270.5,235.9609,280.5,239.9609,276.5,235.9609" style="stroke:#A80036;stroke-width:1.0;"/><line style="stroke:#A80036;stroke-width:1.0;stroke-dasharray:2.0,2.0;" x1="274.5" x2="453.5" y1="235.9609" y2="235.9609"/><text fill="#000000" font-family="sans-serif" font-size="13" lengthAdjust="spacing" textLength="161" x="286.5" y="230.895">Http response successful</text><polygon fill="#A80036" points="34.5,261.0938,24.5,265.0938,34.5,269.0938,30.5,265.0938" style="stroke:#A80036;stroke-width:1.0;"/><line style="stroke:#A80036;stroke-width:1.0;stroke-dasharray:2.0,2.0;" x1="28.5" x2="268.5" y1="265.0938" y2="265.0938"/><text fill="#000000" font-family="sans-serif" font-size="13" lengthAdjust="spacing" textLength="222" x="40.5" y="260.0278">Successful Operation Confirmation</text><!--MD5=[08d70583838a90b7bc7f39452d07c883]
@startuml
actor User #red
participant Platform
participant "Parking Lot's API" as L #99FF99


User-> Platform: Reservation Creation Request
Platform - -> User: Input Data Request
User -> Platform: Input Data Sent
L <- Platform: Input Data Sent
L - -> Platform: Http response successful
Platform - -> User: Successful Operation Confirmation
@enduml

PlantUML version 1.2021.01beta3(Unknown compile time)
(GPL source distribution)
Java Runtime: Java(TM) SE Runtime Environment
JVM: Java HotSpot(TM) 64-Bit Server VM
Default Encoding: UTF-8
Language: en
Country: US
--></g></svg>